<svg id="Layer_2" data-name="Layer 2" xmlns="http://www.w3.org/2000/svg" viewBox="0 0 1920 325"><defs><style>.cls-1{fill:none;}.cls-2{fill:#fff;}</style></defs><title>eight</title><rect class="cls-1" width="1920" height="325"/><path class="cls-2" d="M929.67,106q-1.53-17.07,5.86-30.32,4.33-8.66,18.85-21.15.51-.51,3.44-3.06T961.9,48q1.15-.89,3.57-2.68a21.49,21.49,0,0,1,8.79-4.08Q987.5,38.73,1002,51.59t20.13,27.64q3.82,9.94,4.33,13.25a16.81,16.81,0,0,1-.25,5q-.52,2.67-1.4,6.37t-1.15,5.22q-.26,1.53-.51,4.59t-.64,5.35a23.1,23.1,0,0,1-1.15,4.33,54.67,54.67,0,0,1-4.84,8.41q-3.57,5.35-4.33,6.62a134.79,134.79,0,0,1-16.05,23.44q-5.61,5.61-5.35,7.64a11.72,11.72,0,0,0,1.27,4.59,51,51,0,0,0,3.57,6.37q2.29,3.57,2.55,4.08l3.31,6.75q2.8,5.73,3.69,7.77a57.7,57.7,0,0,1,2.16,6.5,40.12,40.12,0,0,1,1.53,8.28q.77,10.19-6.11,28-11,28-34.14,37.71a46.68,46.68,0,0,1-27.39,3.95,45.93,45.93,0,0,1-25.35-12.61,49.89,49.89,0,0,1-12-17.58,46.29,46.29,0,0,1-3.06-20.51A134.33,134.33,0,0,1,903.94,212a115.93,115.93,0,0,1,8-22.29q5.73-12.35,9.94-20.51t11-19.87q6.75-11.72,9.3-16.56Q931.2,123.06,929.67,106ZM975.91,249.8q9.55-6.25,12.1-20.76,1.27-8.66-1.53-28.66t-9.17-19.49a4.61,4.61,0,0,0-2.68,1.53q-1.66,1.53-3.57,3.57a14.76,14.76,0,0,1-2.42,2.29,73,73,0,0,0-8.92,9.94q-1.53,2.29-6.88,9.3T945,218.59q-12,19.62-12.48,26.24-.26,6.88,5.61,9.81a26.53,26.53,0,0,0,13,2.68Q966.36,256,975.91,249.8Zm9.68-190.06a13.07,13.07,0,0,0-9.17-2.17A42.55,42.55,0,0,0,965.72,60a27.9,27.9,0,0,0-8.28,4.46A45.4,45.4,0,0,0,945,81.91a63.07,63.07,0,0,0-5.1,21.78q-.26,8.41,7.13,14,2.29,1.78,1.53,2.55l1,.51q2.8.76,8.92-5.35a62.71,62.71,0,0,0,5.35-6.11q2.54-3.31,6.11-8.41T974.77,94q.76-1.27,5.48-7A52.94,52.94,0,0,0,987,77.07a16.49,16.49,0,0,0,1.78-8.28Q989.29,62.42,985.59,59.74Z"/><path class="cls-2" d="M1053,276.43h-.51a8.78,8.78,0,0,1-3.06,1.27,1.06,1.06,0,0,1-.76.25q-1.28,1.27-3.82.76a15.79,15.79,0,0,1-3.57-1.78l-1.27-1.27a7.79,7.79,0,0,1-.51-1.53,8.09,8.09,0,0,0-.51-1.53,7.77,7.77,0,0,1-.64-.76,7.13,7.13,0,0,0-.64-.76l-.76-1.53c0-.51,0-1.19-.13-2s-.13-1.53-.13-2a21.07,21.07,0,0,1,.51-3.82,27,27,0,0,1,2.29-7.39,5.71,5.71,0,0,0,1-1.66,5.5,5.5,0,0,1,1-1.66,2.75,2.75,0,0,1,2-.76,1,1,0,0,0,1-.76q1-2.55,2.8-2.8h2a25.88,25.88,0,0,1,3.31,1,4.08,4.08,0,0,1,1.78.51,3.46,3.46,0,0,0,2.55,1c.68,0,1,.26,1,.76q.51.76,1.4,2.17a11.08,11.08,0,0,1,1.15,2.17,1.48,1.48,0,0,1,.26,1,9.49,9.49,0,0,1,.26,3.57c-.17.68-.38,1.66-.64,2.93a26.46,26.46,0,0,1-.64,2.67v.76a7.58,7.58,0,0,0-.51,1.53c-.17.68-.34,1.27-.51,1.78s-.34,1-.51,1.53a24.54,24.54,0,0,1-3.82,4.59c0,.17-.17.42-.51.76s-.51.59-.51.76Z"/></svg>