<svg id="Layer_2" data-name="Layer 2" xmlns="http://www.w3.org/2000/svg" viewBox="0 0 1920 325"><defs><style>.cls-1{fill:none;}.cls-2{fill:#fff;}</style></defs><title>five</title><rect class="cls-1" width="1920" height="325"/><path class="cls-2" d="M920.71,260.17q-7.64,7.29-12.5,9.83-2.08,0-7.41-4.74a73.53,73.53,0,0,1-8.79-9.14q-9-6.94-12-14.35a23.41,23.41,0,0,1-1.62-13.88q1.39-6.48,7.29-14a103.79,103.79,0,0,1,11.92-13q6-5.43,15.27-12.38.92-.69,3.7-3,52.76-39.8,44.89-50.68-1.16-1.39-11.92-2.31t-15.62-.93q-4.4,0-13.07,2.31t-14,1.85q-6.94-.46-10.88-4.17a14.3,14.3,0,0,1-4.51-9.26,41.17,41.17,0,0,1,.35-11.11,65,65,0,0,1,3-11.34l3.12-9.6a74.64,74.64,0,0,1,5.55-13.54,24.1,24.1,0,0,1,6.83-7.64,26.21,26.21,0,0,1,5.09-3q3-1.39,5.44-2.43a51.67,51.67,0,0,1,6.83-2.2q4.39-1.16,6.25-1.62l6.71-1.62q4.86-1.16,5.55-1.39a38.85,38.85,0,0,1,18.63-2.43q9.83,1,4.74,11a15.66,15.66,0,0,1-3,3.47,21,21,0,0,1-4.74,3Q958.88,73.31,957,74t-5.67,2q-3.82,1.27-4.74,1.5-1.86.69-6.94,2.31T933.2,82l-5.09,2.08a18.65,18.65,0,0,0-4.86,2.55q-1.16,1-3.7,3A12.77,12.77,0,0,0,916,93.56q-1,2-2.31,5a33.29,33.29,0,0,0-2,6.48q1.85-.46,8-1.85t8.56-2q2.43-.58,7.64-1.39a75.51,75.51,0,0,1,8.56-.93,69.73,69.73,0,0,1,7.75.23,41,41,0,0,1,8.33,1.5,54.79,54.79,0,0,1,19.78,9,122.27,122.27,0,0,1,17.47,16.2q23.14,26.15,5.55,57.62-9.26,16-30.78,32.4-1.85,1.39-14.23,9.49A162.77,162.77,0,0,0,939,239.69Q932,245.94,929.73,252,928.34,252.87,920.71,260.17Zm-13.65-.12a1.1,1.1,0,0,1,.23-.58,3.46,3.46,0,0,1,.46-.58A.84.84,0,0,0,907.06,260.05Z"/><path class="cls-2" d="M1035,264.45h-.46a8,8,0,0,1-2.78,1.16,1,1,0,0,1-.69.23,3.65,3.65,0,0,1-3.47.69,14.33,14.33,0,0,1-3.24-1.62l-1.16-1.16a7,7,0,0,1-.46-1.39,7.33,7.33,0,0,0-.46-1.39,7.08,7.08,0,0,1-.58-.69,6.46,6.46,0,0,0-.58-.69l-.69-1.39c0-.46,0-1.08-.12-1.85s-.12-1.39-.12-1.85a19.16,19.16,0,0,1,.46-3.47,24.52,24.52,0,0,1,2.08-6.71,5.19,5.19,0,0,0,.93-1.5,5,5,0,0,1,.93-1.5,2.5,2.5,0,0,1,1.85-.69.91.91,0,0,0,.93-.69q.92-2.32,2.55-2.55h1.85a23.61,23.61,0,0,1,3,.93,3.7,3.7,0,0,1,1.62.46,3.15,3.15,0,0,0,2.31.93c.61,0,.93.23.93.69q.46.69,1.27,2a10.1,10.1,0,0,1,1,2,1.35,1.35,0,0,1,.23.93,8.63,8.63,0,0,1,.23,3.24c-.16.61-.35,1.5-.58,2.66a24,24,0,0,1-.58,2.43v.69a6.88,6.88,0,0,0-.46,1.39c-.15.61-.31,1.16-.46,1.62l-.46,1.39a22.3,22.3,0,0,1-3.47,4.16c0,.15-.16.38-.46.69s-.46.54-.46.69Z"/></svg>