<svg id="Layer_4" data-name="Layer 4" xmlns="http://www.w3.org/2000/svg" viewBox="0 0 325.19 158.94"><defs><style>.cls-1{fill:#042966;}.cls-2{fill:#fef9fb;}.cls-3{fill:#b81133;}.cls-4{fill:#bb0b2f;}.cls-5{fill:#8f2037;}.cls-6{fill:#e2eef6;}</style></defs><title>flag</title><g id="d6IOGZ"><path class="cls-1" d="M798.46,176.77q0-45,0-90.1c0-1.75.47-2,2.1-2q64,.07,128,0l.06,13.07q0,6.7,0,13.39,0,6.54,0,13.08l0,13.23,0,12.89q0,6.7,0,13.41-.05,6.49-.1,13c-1,0-2,.11-3,.11q-35.35,0-70.7,0Q826.63,176.82,798.46,176.77ZM915,134.52c2.59-1.54,2.59-1.54,5.6,0-1.3-2.39-.51-4,1.62-5.29-2.58.41-4-.61-4.57-3.21,0,3.29-3.15,2-4.44,3.32C915.57,131.41,915.57,131.41,915,134.52Zm-90.29,22.35c-2.7.59-3.57-1.4-4.91-3.63,0,3.43-1.91,3.72-4.2,3.76,2.49,1.11,2.66,2.93,1.94,5.23,1.82-2,3.5-1.62,5.53,0C821.27,159.59,822.8,158.23,824.69,156.88Zm34.16.1c2.92,1,2.54,3,1.64,5.94,2.18-2.61,3.86-2.36,5.7-.72-1.06-2.4-.37-4.06,1.86-5.29-2.69.51-3.6-1.38-4.86-3.62C863,156.44,861.54,157.27,858.85,157Zm45.35,5.23c1.79-2.45,3.6-1,6.11.23-2.41-3.1-.44-4.22,1.69-6-3.4,1.18-4.1-1.12-5.61-3,.2,3.44-2,3.41-4.88,3.49C904.67,158.18,905.1,159.83,904.2,162.2ZM888,143.81c-1.18-2.38-.62-4.09,1.75-5.46-2.91.87-4-.65-4.65-3-.5,2.6-2,3.51-4.54,3.19,2.3,1.23,2.81,3,1.68,5.33C885.15,142.18,885.15,142.18,888,143.81Zm-46.31-8.64c0,3.42-2.25,3.24-4.62,3.46,3,.91,2.57,3,2.11,5.34,1.77-2.64,3.47-1.5,5.53-.2-1.95-2.65-.13-3.94,2.11-5.61C843.86,138.75,842.24,138.14,841.73,135.17Zm56.93-.66c-1.28-2.53,0-4,1.83-5.34-2.62.53-3.94-.62-4.68-3.31.18,3.48-2.26,3.21-5,3.49,3.18,1.15,3.36,2.89,2,5.8C895.09,133,896.77,132.52,898.67,134.52Zm-27.09,0c1.86-1.78,3.6-1.59,5.52-.06-1.43-2.46,0-3.87,1.73-5.45-3.14,1.35-3.67-1-4.87-3.68.06,3.7-1.91,4-4.17,4C872.18,130.52,872.58,132.19,871.58,134.52Zm-21.65,0c2.66-1.54,2.66-1.54,6.05.24-2.15-2.78-.72-4.19,1.19-5.55-2.61.47-4-.65-4.56-3.17-.43,2.7-2,3.47-4.51,3.08C850.56,131.51,850.56,131.51,849.93,134.52Zm-19.08-8.33c-.25,2.74-2.08,3.18-4.42,3.17,2.53,1.09,2.59,3,2,5.39,1.78-2.72,3.49-1.42,5.91.28-1.92-3-.67-4.48,1.31-5.8C832.21,129,832.21,129,830.85,126.19Zm-24.23,8.51c1.79-2.38,3.55-1.55,5.64-.24-2.05-2.65,0-3.84,2.05-5.66-3.24,1-4.41-.38-5.08-2.77-.39,2.75-2,3.46-4.63,3.29C807.47,130.35,807.34,132.28,806.62,134.71ZM909.5,125.3c-1.3-2.54,0-4,2.06-5.29-1.39-.1-2.59.16-3.28-.32s-.94-1.72-1.71-3.33c-.08,3.35-2,3.82-4.35,3.88,2.71,1,2.71,2.82,1.44,5.69C905.93,123.79,907.61,123.32,909.5,125.3ZM880.67,120c2.29,1.25,2.74,3,1.79,5.34,1.81-2,3.56-1.55,5.49-.15-1.5-2.49,0-3.87,1.67-5.29-2.7.7-3.84-.75-4.54-3.07C884.59,119.38,883.37,120.54,880.67,120Zm-19.86,5.34c1.79-2,3.54-1.52,5.47-.15-1.5-2.49,0-3.85,1.66-5.28-2.71.71-3.82-.76-4.67-3.24.11,3.42-2.07,3.34-4.49,3.48C861.69,121.13,861.5,123.09,860.81,125.36Zm-36.18-5.23c-2.51.28-4-.67-4.49-3.3-.4,2.76-2.1,3.46-4.56,3.34,2.63,1.05,2.55,3,2,5.2,1.8-2.08,3.48-1.54,5.31-.07C821.95,123,822.16,121.29,824.62,120.13Zm20.1,5.11c-1.86-2.58-.13-3.87,1.6-5.27-2.6.51-3.95-.6-4.56-3.15-.29,2.88-2.17,3.35-4.5,3.38,2.53,1.09,2.74,2.82,1.66,5.06C842,123.76,842,123.76,844.72,125.24Zm57.55,13.25c2.33,1.22,2.8,3,1.68,5.33,2.87-1.64,2.87-1.64,6.19.24-2-2.76-.89-4.29,1.22-5.58-2.51.3-4-.55-4.54-3.2C906.32,137.92,904.79,138.78,902.27,138.5Zm-43.34,0c2.3,1.2,2.83,2.92,1.85,5.29,1.85-1.81,3.55-1.85,5.55.06-1.5-2.55-.44-4.09,1.68-5.37-2.49.26-4.05-.53-4.65-3.4C863.33,138.43,861.28,138.53,858.93,138.51Zm-34.32.06c-2.5.28-4-.7-4.64-3.47.06,3.42-2.11,3.36-4.54,3.5,2.95,1,2.65,3,1.67,5.9,2.2-2.62,3.9-2.43,5.73-.73C822,141.54,822.1,139.73,824.62,138.57ZM915,171.38c2.59-1.52,2.59-1.52,5.61,0-1.39-2.43-.38-4,1.68-5.47-3,1.08-3.9-.72-4.81-3.15.11,3.41-2.08,3.34-4.34,3.27C915.56,168.36,915.56,168.36,915,171.38Zm-23.66-5.28c2.73,1.06,2.7,3,2.13,5.51,1.77-2.77,3.47-1.35,5.86.23-1.94-3-.58-4.42,1.25-6-3,1.25-3.78-.85-4.79-3.64C895.5,165.65,894,166.48,891.31,166.1Zm-21.69.09c2.82,1,2.77,3,2,5.25,1.83-1.79,3.53-1.84,5.37,0-.93-2.36-.44-4.1,2-5.46-2.89.83-4-.64-4.77-3.25C874.13,166,872.17,166.24,869.61,166.19Zm-17-3.26c-.46,2.66-2,3.49-4.52,3.22,2.3,1.22,2.78,3,1.87,5.31,1.84-1.87,3.53-1.77,5.38,0-1-2.39-.37-4.07,1.85-5.34C854.6,166.51,853.19,165.48,852.62,162.92Zm-26.13,3.22c2.44,1.17,2.53,3,1.91,5.31,1.8-2.14,3.49-1.5,5.36-.12-1.39-2.47-.06-3.92,1.71-5.34-2.73.73-3.84-.78-4.6-3.06C830.47,165.61,829.05,166.51,826.48,166.14Zm-19.88,5.22c1.88-1.91,3.57-1.54,5.43,0-1.2-2.45-.2-4,1.79-5.36-2.65.57-3.94-.66-4.72-3.28.1,3.42-2.11,3.31-5,3.26C806.88,167.4,807.77,168.9,806.61,171.36ZM868,101.6c-2.76.64-3.83-.9-4.57-3.17-.33,2.79-2,3.4-4.61,3.31,3,1,2.65,3,2,5.22,1.77-2.06,3.53-1.52,5.44-.18C865,104.39,865.84,102.87,868,101.6Zm12.56,55.47c3.08.87,2.36,3,1.81,5.83,2.06-2.8,3.74-2.11,5.6-.76-1.38-2.49-.12-3.94,1.75-5.3-2.59.48-4-.56-4.66-3.32C885,156.83,883,157,880.52,157.07ZM846.29,101.7c-2.52.3-3.94-.7-4.47-3.29-.46,2.66-2.09,3.48-4.56,3.34,2.65,1,2.53,3,2,5.18,1.81-2.13,3.48-1.53,5.75.53C843.64,104.61,843.81,102.87,846.29,101.7Zm-4.58,51.9c0,3.4-2.21,3.25-5.19,3.21,3.06,1.34,3.56,3.06,2.6,5.57,1.79-2.36,3.56-1.51,5.49-.33-1.58-2.49.09-3.8,2.22-5.54C843.7,157.29,842.3,156.39,841.71,153.6Zm-16.56-52.46c-3.3,1.1-4.37-.45-5.22-2.87.08,3.35-2.05,3.35-4.49,3.48,3,.94,2.66,2.95,2,5.2,1.78-2.05,3.53-1.53,5.39,0C822.21,103.8,822.21,103.8,825.15,101.14Zm64.56.26c-2.66.69-4-.59-4.7-3-.14,3.1-2.18,3.25-4.52,3.42,3,.88,2.43,3,2,5.09,2.58-1.58,2.58-1.58,5.26-.19C887.34,103.81,887.34,103.81,889.7,101.41Zm31,51.91c-1.56-2.72-.62-4.34,1.41-5.74-2.84.79-3.81-.9-4.63-3.06-.22,2.88-2.06,3.29-4.56,3.32,3,.94,2.62,3,1.91,5.17C917.72,151.35,917.72,151.35,920.74,153.31ZM896,144.54c-.38,2.82-2.19,3.28-4.7,3.3,3,.89,2.53,3,2.13,5.17,1.78-2.07,3.47-1.52,5.52,0-2-2.68,0-3.9,2-5.63C897.94,148,896.47,147.23,896,144.54ZM877.14,153c-1.86-2.73.09-3.94,2.27-5.73-3.22.89-4.53-.28-5.14-2.78-.46,2.68-2,3.5-4.71,3.27,2.92,1,2.83,2.91,1.64,5.8C873.42,151.4,875.1,151,877.14,153Zm-29.06-5.3c2.3,1.23,2.82,3,1.87,5.32,1.84-1.83,3.54-1.81,5.4,0-1-2.39-.36-4.07,1.85-5.33-2.58.38-4-.61-4.56-3.19C852.14,147.12,850.64,148,848.09,147.7ZM833.64,153c-1.25-2.53,0-4,1.85-5.35-2.6.5-4-.59-4.56-3.15-.29,2.87-2.17,3.35-4.5,3.38,2.49,1.11,2.72,2.83,1.35,5.71C830.07,151.47,831.74,150.91,833.64,153Zm-27,0c1.82-1.92,3.57-1.53,5.48-.14-1.29-2.43-.3-3.9,1.87-5.3-3,1.06-3.89-.93-5-3.15.35,3.55-2.19,3.08-4.93,3.37C807.26,149,807.45,150.71,806.6,153Zm95.76-51.21c2.54,1,2.44,2.93,1.87,5.16,1.81-2.07,3.49-1.6,5.32-.06-1.11-2.4-.36-4,1.83-5.3-2.69.56-3.94-.82-4.57-3.4C905.63,101.38,905.63,101.38,902.36,101.78Zm-32.66,9.07c2.87,1.06,2.58,3,1.93,5.3,1.78-2,3.54-1.53,5.63-.11-2-2.64,0-3.82,2-5.67-3.27,1.07-4.34-.46-5.07-2.72C873.73,110.11,872.55,111.33,869.71,110.85ZM812,97.62c-1.34-2.52,0-3.93,1.76-5.33-2.73.7-3.82-.8-4.52-3.11-.45,2.66-1.95,3.54-4.7,3.29,3.11.93,2.7,3,1.76,5.71C808.42,96,810.11,95.73,812,97.62Zm14.3-5c3.12.83,2.45,3,1.92,5.08,2.73-1.59,2.73-1.59,5.66.1-1.33-2.43-.54-4.09,1.57-5.47-2.89.84-3.77-1-4.48-3.2C829.7,92.19,829.7,92.19,826.31,92.58Zm29.23,5.07c-2.06-2.72.18-3.85,1.59-5.55-3.11,1.38-3.66-.94-4.73-3.63-.2,3.48-1.85,4.15-4.31,4,2.44,1.16,2.72,2.95,1.86,5.26C851.79,95.9,853.48,95.84,855.54,97.65Zm23.25-5.29c-2.86.75-3.77-1-4.6-3.15-.3,2.78-2,3.38-4.57,3.31,3,.94,2.6,3,1.7,5.78,2.15-2.45,3.85-2.41,5.84-.54C875.77,95.27,876.61,93.68,878.79,92.36ZM901,91.9c-3.38,1.19-4.32-.54-5.12-2.7-.34,2.74-2,3.44-4.59,3.31,3,1,2.64,3,2,5.22,1.78-2.05,3.54-1.52,5.4,0C898.07,94.58,898.07,94.58,901,91.9Zm-7.65,24.33c1.73-1.92,3.52-1.76,5.48-.25-1.64-2.66.05-3.88,1.66-5.24-2.63.57-3.9-.66-4.56-3.14-.29,2.85-2.15,3.36-4.65,3.19C893.81,112.87,893.81,112.87,893.35,116.23Zm24.09-8.67c.29,3.4-2.27,3-5,3.49,3.48,1,3.09,3,2.22,5.79,2.17-2.65,3.87-2.37,5.72-.73-1.13-2.41-.29-4,2-5.25C918.85,110.55,918.85,110.55,917.45,107.56Zm-67.51,8.7c1.82-2.36,3.58-1.56,5.5-.27-1.44-2.43,0-3.84,1.64-5.29-2.84.89-3.7-1-4.73-3.18.29,3.48-2.13,3.17-4.24,3.44C850.57,112.08,850.83,113.81,849.93,116.26Zm-23.58-5.32c3,.93,2.39,3.05,2.06,5.37,1.77-2.66,3.46-1.5,5.73.26-1.53-2.87-.81-4.5,1.48-5.92-3.09,1.17-3.85-1-4.84-3C830.53,110.52,828.89,111.08,826.35,110.94Zm-21.52-.13c2.35,1.22,2.6,3,1.83,5.33,1.82-2,3.52-1.68,5.55,0-1.77-2.63-.23-4,1.69-5.54-3,1.08-3.88-.74-4.66-3C808.71,110.08,807.55,111.35,804.83,110.81ZM915,97.71c1.76-2,3.53-1.49,5.45-.18-1.46-2.44,0-3.81,1.79-5.18-3.22-.15-3.22-.15-4.75-3.15-.37,2.67-1.9,3.52-4.55,3.29C916,93.44,915.56,95.48,915,97.71Z" transform="translate(-798.42 -84.62)"/><path class="cls-2" d="M1123.54,229.33v13.54c-.63,0-1.26,0-1.89,0H800.36c-.63,0-1.26,0-1.89,0V229.33c.81,0,1.62.06,2.43.06h320.21C1121.92,229.39,1122.73,229.35,1123.54,229.33Z" transform="translate(-798.42 -84.62)"/><path class="cls-2" d="M798.46,176.77q28.17,0,56.34.06,35.35,0,70.7,0c1,0,2-.07,3-.11.36,0,.72.07,1.08.07l194,0v13.54c-.9,0-1.8-.11-2.7-.11H801.16c-.9,0-1.8.07-2.7.11Z" transform="translate(-798.42 -84.62)"/><path class="cls-2" d="M1123.54,203.32v13l-36.27,0-288.81,0v-13c1.08-.05,2.15-.15,3.23-.15h318.89C1121.57,203.17,1122.56,203.27,1123.54,203.32Z" transform="translate(-798.42 -84.62)"/><path class="cls-3" d="M1123.54,203.32c-1-.05-2-.15-3-.15H801.69c-1.08,0-2.15.1-3.23.15v-13c.9,0,1.8-.11,2.7-.11h319.68c.9,0,1.8.07,2.7.11Z" transform="translate(-798.42 -84.62)"/><path class="cls-3" d="M798.46,216.33l288.81,0,36.27,0v12.46H798.46Z" transform="translate(-798.42 -84.62)"/><path class="cls-2" d="M928.57,163.74q0-6.7,0-13.41h192.25c.9,0,1.8-.07,2.7-.11v13.54l-3.25,0Z" transform="translate(-798.42 -84.62)"/><path class="cls-2" d="M928.56,111.13q0-6.7,0-13.39l168.72,0q13.13,0,26.27,0v13.54c-1.17,0-2.34-.07-3.52-.07Z" transform="translate(-798.42 -84.62)"/><path class="cls-3" d="M1123.54,150.23c-.9,0-1.8.11-2.7.11H928.59q0-6.45,0-12.89c1,0,2-.06,3-.06h188.71c1.08,0,2.15-.1,3.23-.15Z" transform="translate(-798.42 -84.62)"/><path class="cls-2" d="M1123.54,137.22c-1.08.05-2.15.15-3.23.15H931.6c-1,0-2,0-3,.06q0-6.61,0-13.23h195Z" transform="translate(-798.42 -84.62)"/><path class="cls-4" d="M929.58,84.67q95.9,0,191.8-.05c1.86,0,2.33.35,2.22,2.22-.19,3.42-.05,6.86-.05,10.29H941.12c-2.89,0-5.78-.11-8.66,0-2.31.12-3-.82-2.92-3C929.67,91,929.58,87.83,929.58,84.67Z" transform="translate(-798.42 -84.62)"/><path class="cls-4" d="M1123.54,164.31v11.92H934.23c-.81,0-1.63,0-2.44,0-1.63.08-2.28-.71-2.23-2.3.05-1.8,0-3.61,0-5.42,0-4.18,0-4.18,4.12-4.18Z" transform="translate(-798.42 -84.62)"/><path class="cls-4" d="M1123.54,112.3v10.84H937.17c-7.62,0-7.62,0-7.6-7.75,0-3.65,0-3.62,3.54-3.16a21,21,0,0,0,2.7.06Z" transform="translate(-798.42 -84.62)"/><path class="cls-5" d="M1123.54,112.3l-187.72,0a21,21,0,0,1-2.7-.06c-3.54-.46-3.53-.48-3.54,3.16,0,7.75,0,7.75,7.6,7.75h186.37v1.08h-195q0-6.54,0-13.08l191.47,0c1.17,0,2.34,0,3.52.07Z" transform="translate(-798.42 -84.62)"/><path class="cls-5" d="M1123.54,164.31l-189.85,0c-4.11,0-4.11,0-4.12,4.18,0,1.81,0,3.61,0,5.42,0,1.58.6,2.37,2.23,2.3.81,0,1.62,0,2.44,0h189.31v.54l-194,0c-.36,0-.72,0-1.08-.07q.05-6.49.1-13h191.72l3.25,0Z" transform="translate(-798.42 -84.62)"/><path class="cls-5" d="M798.46,228.79h325.08v.54c-.81,0-1.62.06-2.43.06H800.9c-.81,0-1.62,0-2.43-.06Z" transform="translate(-798.42 -84.62)"/><path class="cls-5" d="M798.46,242.87c.63,0,1.26,0,1.89,0h321.29c.63,0,1.26,0,1.89,0-.12.17.27.56-.27.55-.72,0-1.44,0-2.17,0q-160.1,0-320.21,0C800.11,243.38,799.06,244,798.46,242.87Z" transform="translate(-798.42 -84.62)"/><path class="cls-5" d="M929.58,84.67c0,3.16.1,6.32,0,9.47-.09,2.19.61,3.14,2.92,3,2.88-.15,5.77,0,8.66,0h182.43v.54q-13.13,0-26.27,0l-168.72,0q0-6.53-.06-13.07Z" transform="translate(-798.42 -84.62)"/><path class="cls-6" d="M915,134.52c.59-3.11.59-3.11-1.8-5.18,1.29-1.32,4.4,0,4.44-3.32.58,2.6,2,3.63,4.57,3.21-2.13,1.28-2.92,2.9-1.62,5.29C917.56,133,917.56,133,915,134.52Z" transform="translate(-798.42 -84.62)"/><path class="cls-6" d="M824.69,156.88c-1.89,1.36-3.42,2.72-1.64,5.36-2-1.62-3.71-2-5.53,0,.73-2.29.55-4.12-1.94-5.23,2.29,0,4.24-.33,4.2-3.76C821.12,155.48,822,157.46,824.69,156.88Z" transform="translate(-798.42 -84.62)"/><path class="cls-6" d="M858.85,157c2.69.29,4.15-.53,4.35-3.68,1.25,2.24,2.17,4.13,4.86,3.62-2.23,1.24-2.92,2.89-1.86,5.29-1.84-1.65-3.53-1.9-5.7.72C861.39,160,861.77,158,858.85,157Z" transform="translate(-798.42 -84.62)"/><path class="cls-6" d="M904.2,162.2c.91-2.38.47-4-2.69-5.29,2.89-.08,5.08-.06,4.88-3.49,1.51,1.88,2.21,4.19,5.61,3-2.12,1.79-4.1,2.91-1.69,6C907.8,161.24,906,159.76,904.2,162.2Z" transform="translate(-798.42 -84.62)"/><path class="cls-6" d="M888,143.81c-2.89-1.63-2.89-1.63-5.76,0,1.14-2.37.63-4.1-1.68-5.33,2.55.32,4-.58,4.54-3.19.67,2.4,1.74,3.92,4.65,3C887.42,139.72,886.86,141.43,888,143.81Z" transform="translate(-798.42 -84.62)"/><path class="cls-6" d="M841.73,135.17c.51,3,2.13,3.58,5.14,3-2.24,1.67-4.05,3-2.11,5.61-2.06-1.29-3.76-2.43-5.53.2.45-2.38.88-4.43-2.11-5.34C839.48,138.41,841.75,138.59,841.73,135.17Z" transform="translate(-798.42 -84.62)"/><path class="cls-6" d="M898.67,134.52c-1.9-2-3.58-1.51-5.87.65,1.35-2.9,1.17-4.64-2-5.8,2.78-.28,5.22,0,5-3.49.74,2.69,2.06,3.84,4.68,3.31C898.64,130.54,897.39,132,898.67,134.52Z" transform="translate(-798.42 -84.62)"/><path class="cls-6" d="M871.58,134.52c1-2.32.6-4-1.79-5.14,2.25-.07,4.22-.35,4.17-4,1.2,2.65,1.73,5,4.87,3.68-1.76,1.58-3.16,3-1.73,5.45C875.18,132.93,873.44,132.74,871.58,134.52Z" transform="translate(-798.42 -84.62)"/><path class="cls-6" d="M849.93,134.52c.63-3,.63-3-1.83-5.4,2.49.4,4.08-.37,4.51-3.08.59,2.52,2,3.64,4.56,3.17-1.91,1.36-3.34,2.77-1.19,5.55C852.58,133,852.58,133,849.93,134.52Z" transform="translate(-798.42 -84.62)"/><path class="cls-6" d="M830.85,126.19c1.35,2.83,1.35,2.83,4.76,3-2,1.33-3.23,2.79-1.31,5.8-2.43-1.7-4.13-3-5.91-.28.62-2.44.56-4.3-2-5.39C828.77,129.38,830.61,128.93,830.85,126.19Z" transform="translate(-798.42 -84.62)"/><path class="cls-6" d="M806.62,134.71c.71-2.43.85-4.36-2-5.37,2.63.17,4.25-.54,4.63-3.29.67,2.39,1.85,3.76,5.08,2.77-2,1.82-4.1,3-2.05,5.66C810.17,133.16,808.41,132.33,806.62,134.71Z" transform="translate(-798.42 -84.62)"/><path class="cls-6" d="M909.5,125.3c-1.9-2-3.58-1.51-5.84.63,1.27-2.87,1.28-4.68-1.44-5.69,2.38-.06,4.27-.52,4.35-3.88.77,1.6,1,2.82,1.71,3.33s1.89.22,3.28.32C909.49,121.32,908.21,122.76,909.5,125.3Z" transform="translate(-798.42 -84.62)"/><path class="cls-6" d="M880.67,120c2.7.51,3.92-.64,4.41-3.16.7,2.32,1.84,3.77,4.54,3.07-1.69,1.42-3.17,2.79-1.67,5.29-1.93-1.4-3.68-1.84-5.49.15C883.41,123,883,121.27,880.67,120Z" transform="translate(-798.42 -84.62)"/><path class="cls-6" d="M860.81,125.36c.69-2.28.88-4.23-2-5.2,2.43-.14,4.61-.06,4.49-3.48.85,2.48,2,4,4.67,3.24-1.66,1.43-3.17,2.79-1.66,5.28C864.35,123.84,862.6,123.37,860.81,125.36Z" transform="translate(-798.42 -84.62)"/><path class="cls-6" d="M824.62,120.13c-2.46,1.15-2.68,2.88-1.76,5.16-1.83-1.47-3.51-2-5.31.07.57-2.23.65-4.14-2-5.2,2.45.12,4.16-.58,4.56-3.34C820.66,119.46,822.11,120.41,824.62,120.13Z" transform="translate(-798.42 -84.62)"/><path class="cls-6" d="M844.72,125.24c-2.77-1.48-2.77-1.48-5.8,0,1.08-2.24.87-4-1.66-5.06,2.33,0,4.21-.5,4.5-3.38.62,2.54,2,3.66,4.56,3.15C844.59,121.37,842.86,122.67,844.72,125.24Z" transform="translate(-798.42 -84.62)"/><path class="cls-6" d="M902.27,138.5c2.52.29,4-.58,4.56-3.21.49,2.65,2,3.49,4.54,3.2-2.11,1.29-3.21,2.82-1.22,5.58-3.32-1.89-3.32-1.89-6.19-.24C905.07,141.45,904.6,139.71,902.27,138.5Z" transform="translate(-798.42 -84.62)"/><path class="cls-6" d="M858.93,138.51c2.35,0,4.4-.08,4.43-3.42.6,2.87,2.17,3.66,4.65,3.4-2.12,1.29-3.18,2.82-1.68,5.37-2-1.91-3.71-1.87-5.55-.06C861.76,141.44,861.23,139.72,858.93,138.51Z" transform="translate(-798.42 -84.62)"/><path class="cls-6" d="M824.62,138.57c-2.52,1.17-2.58,3-1.78,5.21-1.83-1.7-3.53-1.89-5.73.73,1-2.94,1.28-4.95-1.67-5.9,2.43-.14,4.6-.08,4.54-3.5C820.66,137.87,822.11,138.85,824.62,138.57Z" transform="translate(-798.42 -84.62)"/><path class="cls-6" d="M915,171.38c.59-3,.59-3-1.85-5.35,2.26.06,4.45.14,4.34-3.27.91,2.43,1.83,4.22,4.81,3.15-2.07,1.48-3.07,3-1.68,5.47C917.56,169.86,917.56,169.86,915,171.38Z" transform="translate(-798.42 -84.62)"/><path class="cls-6" d="M891.31,166.1c2.72.37,4.19-.45,4.45-3.89,1,2.79,1.75,4.89,4.79,3.64-1.83,1.58-3.18,3-1.25,6-2.4-1.58-4.1-3-5.86-.23C894,169.14,894,167.17,891.31,166.1Z" transform="translate(-798.42 -84.62)"/><path class="cls-6" d="M869.61,166.19c2.56,0,4.51-.19,4.58-3.44.77,2.61,1.88,4.08,4.77,3.25-2.39,1.36-2.88,3.1-2,5.46-1.84-1.85-3.54-1.8-5.37,0C872.38,169.14,872.43,167.22,869.61,166.19Z" transform="translate(-798.42 -84.62)"/><path class="cls-6" d="M852.62,162.92c.57,2.55,2,3.59,4.58,3.17-2.22,1.27-2.87,3-1.85,5.34-1.85-1.76-3.54-1.86-5.38,0,.92-2.36.44-4.09-1.87-5.31C850.6,166.41,852.16,165.59,852.62,162.92Z" transform="translate(-798.42 -84.62)"/><path class="cls-6" d="M826.48,166.14c2.57.37,4-.54,4.38-3.21.75,2.28,1.87,3.79,4.6,3.06-1.77,1.43-3.1,2.87-1.71,5.34-1.87-1.39-3.56-2-5.36.12C829,169.18,828.92,167.32,826.48,166.14Z" transform="translate(-798.42 -84.62)"/><path class="cls-6" d="M806.61,171.36c1.16-2.46.27-4-2.48-5.34,2.87.05,5.09.16,5-3.26.78,2.61,2.06,3.85,4.72,3.28-2,1.35-3,2.91-1.79,5.36C810.18,169.82,808.49,169.45,806.61,171.36Z" transform="translate(-798.42 -84.62)"/><path class="cls-6" d="M868,101.6c-2.12,1.27-2.92,2.79-1.7,5.18-1.91-1.35-3.67-1.88-5.44.18.61-2.25.95-4.26-2-5.22,2.58.09,4.27-.52,4.61-3.31C864.12,100.7,865.19,102.24,868,101.6Z" transform="translate(-798.42 -84.62)"/><path class="cls-6" d="M880.52,157.07c2.47-.06,4.45-.24,4.49-3.55.68,2.76,2.08,3.8,4.66,3.32-1.87,1.35-3.13,2.81-1.75,5.3-1.86-1.34-3.54-2-5.6.76C882.88,160.1,883.6,157.94,880.52,157.07Z" transform="translate(-798.42 -84.62)"/><path class="cls-6" d="M846.29,101.7c-2.47,1.16-2.65,2.9-1.3,5.76-2.27-2.06-3.95-2.65-5.75-.53.55-2.23.67-4.15-2-5.18,2.47.14,4.09-.68,4.56-3.34C842.35,101,843.76,102,846.29,101.7Z" transform="translate(-798.42 -84.62)"/><path class="cls-6" d="M841.71,153.6c.59,2.79,2,3.69,5.13,2.9-2.13,1.74-3.8,3-2.22,5.54-1.93-1.18-3.7-2-5.49.33,1-2.5.47-4.22-2.6-5.57C839.5,156.85,841.74,157,841.71,153.6Z" transform="translate(-798.42 -84.62)"/><path class="cls-6" d="M825.15,101.14c-2.93,2.66-2.93,2.66-2.29,5.81-1.86-1.53-3.61-2.06-5.39,0,.62-2.25.94-4.26-2-5.2,2.44-.12,4.58-.13,4.49-3.48C820.78,100.7,821.84,102.24,825.15,101.14Z" transform="translate(-798.42 -84.62)"/><path class="cls-6" d="M889.7,101.41c-2.36,2.4-2.36,2.4-2,5.3-2.68-1.39-2.68-1.39-5.26.19.45-2.1,1-4.2-2-5.09,2.33-.17,4.37-.33,4.52-3.42C885.73,100.82,887,102.1,889.7,101.41Z" transform="translate(-798.42 -84.62)"/><path class="cls-6" d="M920.74,153.31c-3-2-3-2-5.87-.32.71-2.2,1.08-4.22-1.91-5.17,2.49,0,4.33-.44,4.56-3.32.82,2.17,1.78,3.86,4.63,3.06C920.12,149,919.18,150.6,920.74,153.31Z" transform="translate(-798.42 -84.62)"/><path class="cls-6" d="M896,144.54c.48,2.69,2,3.51,4.95,2.8-2,1.73-4,2.95-2,5.63-2.05-1.48-3.74-2-5.52,0,.4-2.19.91-4.28-2.13-5.17C893.8,147.82,895.61,147.36,896,144.54Z" transform="translate(-798.42 -84.62)"/><path class="cls-6" d="M877.14,153c-2-2-3.72-1.59-5.94.57,1.19-2.89,1.28-4.81-1.64-5.8,2.72.23,4.26-.6,4.71-3.27.61,2.5,1.92,3.67,5.14,2.78C877.24,149,875.29,150.27,877.14,153Z" transform="translate(-798.42 -84.62)"/><path class="cls-6" d="M848.09,147.7c2.55.32,4.05-.58,4.55-3.21.54,2.58,2,3.57,4.56,3.19-2.21,1.26-2.88,2.93-1.85,5.33-1.86-1.79-3.56-1.81-5.4,0C850.91,150.65,850.39,148.92,848.09,147.7Z" transform="translate(-798.42 -84.62)"/><path class="cls-6" d="M833.64,153c-1.9-2-3.58-1.49-5.86.6,1.37-2.88,1.14-4.6-1.35-5.71,2.33,0,4.21-.51,4.5-3.38.6,2.56,2,3.65,4.56,3.15C833.62,149,832.39,150.43,833.64,153Z" transform="translate(-798.42 -84.62)"/><path class="cls-6" d="M806.6,153c.85-2.28.66-4-2.54-5.22,2.73-.29,5.28.18,4.93-3.37,1.07,2.22,1.92,4.21,5,3.15-2.16,1.41-3.16,2.87-1.87,5.3C810.17,151.46,808.41,151.07,806.6,153Z" transform="translate(-798.42 -84.62)"/><path class="cls-6" d="M902.36,101.78c3.26-.4,3.26-.4,4.45-3.6.63,2.58,1.88,4,4.57,3.4-2.19,1.27-2.94,2.9-1.83,5.3-1.84-1.54-3.51-2-5.32.06C904.81,104.71,904.9,102.79,902.36,101.78Z" transform="translate(-798.42 -84.62)"/><path class="cls-6" d="M869.71,110.85c2.85.48,4-.74,4.53-3.21.73,2.26,1.8,3.79,5.07,2.72-2,1.85-4.07,3-2,5.67-2.09-1.42-3.85-1.9-5.63.11C872.29,113.89,872.58,111.91,869.71,110.85Z" transform="translate(-798.42 -84.62)"/><path class="cls-6" d="M812,97.62c-1.9-1.89-3.59-1.6-5.71.56.94-2.75,1.35-4.77-1.76-5.71,2.75.24,4.25-.64,4.7-3.29.71,2.31,1.8,3.81,4.52,3.11C812,93.7,810.66,95.11,812,97.62Z" transform="translate(-798.42 -84.62)"/><path class="cls-6" d="M826.31,92.58c3.4-.39,3.4-.39,4.67-3.49.71,2.22,1.59,4,4.48,3.2-2.11,1.38-2.9,3-1.57,5.47-2.93-1.69-2.93-1.69-5.66-.1C828.76,95.54,829.43,93.41,826.31,92.58Z" transform="translate(-798.42 -84.62)"/><path class="cls-6" d="M855.54,97.65c-2.06-1.81-3.75-1.75-5.58.06.85-2.31.57-4.1-1.86-5.26,2.46.18,4.11-.5,4.31-4,1.07,2.69,1.61,5,4.73,3.63C855.71,93.8,853.48,94.93,855.54,97.65Z" transform="translate(-798.42 -84.62)"/><path class="cls-6" d="M878.79,92.36c-2.18,1.32-3,2.91-1.63,5.4-2-1.87-3.68-1.91-5.84.54.9-2.81,1.32-4.85-1.7-5.78,2.57.07,4.27-.53,4.57-3.31C875,91.33,875.92,93.11,878.79,92.36Z" transform="translate(-798.42 -84.62)"/><path class="cls-6" d="M901,91.9c-2.93,2.68-2.93,2.68-2.28,5.82-1.87-1.51-3.63-2.05-5.4,0,.6-2.24,1-4.25-2-5.22,2.62.13,4.25-.56,4.59-3.31C896.68,91.36,897.62,93.09,901,91.9Z" transform="translate(-798.42 -84.62)"/><path class="cls-6" d="M893.35,116.23c.46-3.36.46-3.36-2.07-5.43,2.51.16,4.37-.34,4.65-3.19.66,2.48,1.93,3.71,4.56,3.14-1.61,1.36-3.3,2.58-1.66,5.24C896.87,114.47,895.09,114.31,893.35,116.23Z" transform="translate(-798.42 -84.62)"/><path class="cls-6" d="M917.45,107.56c1.4,3,1.4,3,5,3.29-2.3,1.22-3.14,2.84-2,5.25-1.86-1.64-3.55-1.92-5.72.73.87-2.82,1.25-4.78-2.22-5.79C915.17,110.58,917.73,111,917.45,107.56Z" transform="translate(-798.42 -84.62)"/><path class="cls-6" d="M849.93,116.26c.89-2.45.64-4.18-1.82-5.3,2.11-.28,4.53,0,4.24-3.44,1,2.17,1.89,4.07,4.73,3.18-1.68,1.46-3.09,2.86-1.64,5.29C853.52,114.7,851.76,113.9,849.93,116.26Z" transform="translate(-798.42 -84.62)"/><path class="cls-6" d="M826.35,110.94c2.54.14,4.18-.43,4.43-3.27,1,2,1.75,4.14,4.84,3-2.29,1.42-3,3.06-1.48,5.92-2.27-1.76-4-2.91-5.73-.26C828.74,114,829.4,111.87,826.35,110.94Z" transform="translate(-798.42 -84.62)"/><path class="cls-6" d="M804.83,110.81c2.72.54,3.88-.73,4.42-3.17.77,2.24,1.67,4.06,4.66,3-1.93,1.53-3.47,2.91-1.69,5.54-2-1.69-3.73-2-5.55,0C807.43,113.84,807.18,112,804.83,110.81Z" transform="translate(-798.42 -84.62)"/><path class="cls-6" d="M915,97.71c.56-2.23,1-4.28-2.07-5.23,2.66.24,4.18-.62,4.55-3.29,1.54,3,1.54,3,4.75,3.15-1.76,1.38-3.25,2.74-1.79,5.18C918.53,96.22,916.77,95.67,915,97.71Z" transform="translate(-798.42 -84.62)"/></g></svg>