<svg id="Layer_2" data-name="Layer 2" xmlns="http://www.w3.org/2000/svg" viewBox="0 0 1920 325"><defs><style>.cls-1{fill:none;}.cls-2{fill:#fff;}</style></defs><title>four</title><rect class="cls-1" width="1920" height="325"/><path class="cls-2" d="M1010.34,67.66a24.68,24.68,0,0,1,1.79,9,66.88,66.88,0,0,1-.9,10.1q-.9,5.76-1.15,8.82-.26,2.82-.13,13.94t-1.15,13.94q-1.28,6.14-3.32,17.39t-4,20.59q-1.92,9.34-4.22,17.27-3.07,10-10.87,28.52t-8.82,21.1q-.52,1.28-1.79,5.12L974,238.78a81.43,81.43,0,0,1-8.7,23.53q-2.56,5.37-4.6,6.91-5.12,5.88-10.49,7.93-7.42,3.07-23.28-3.32v.26c-.86,0-1.28-.26-1.28-.77l-4.35-2q-1.54-.52-4-1.53a18.88,18.88,0,0,0-2.69-1,20.55,20.55,0,0,1-6.78-4.22A10.34,10.34,0,0,1,904.45,254a30.85,30.85,0,0,1,1.28-5.88q.77-2.18,2.56-6.78t2.56-6.91q2.81-7.93,8.82-24.68T930,180q4.35-13,7.42-25.07-38.63-8.18-25.07-35.55,1.79-3.58,6.91-12.28a152.74,152.74,0,0,0,7.42-13.81q.25-.51,4.35-9.85t8.06-17.14q4-7.8,5.76-8.06,9-1-7.16,38.62L933.86,106q-.52,1.53-3.2,8.7t-4.22,12.15q-1.54,5-.77,6.27,2,2.56,9.59,2.17t9.85-2.17q4.6-3.58,14.58-37.34t12.53-37.6q3.07-4.6,4.35-6.39a39.88,39.88,0,0,1,4.09-4.6q2.81-2.81,4.86-3.07a15.29,15.29,0,0,1,5.24.51,16.85,16.85,0,0,1,6.78,3.84Q1005.74,55.13,1010.34,67.66Z"/><path class="cls-2" d="M1038.73,277.92h-.51a8.82,8.82,0,0,1-3.07,1.28,1.06,1.06,0,0,1-.77.26q-1.28,1.28-3.84.77a15.85,15.85,0,0,1-3.58-1.79l-1.28-1.28a7.79,7.79,0,0,1-.51-1.53,8.1,8.1,0,0,0-.51-1.53,7.82,7.82,0,0,1-.64-.77,7.14,7.14,0,0,0-.64-.77l-.77-1.53c0-.51,0-1.2-.13-2s-.13-1.53-.13-2a21.18,21.18,0,0,1,.51-3.84,27.11,27.11,0,0,1,2.3-7.42,5.74,5.74,0,0,0,1-1.66,5.53,5.53,0,0,1,1-1.66,2.76,2.76,0,0,1,2-.77,1,1,0,0,0,1-.77q1-2.56,2.81-2.81h2a26.09,26.09,0,0,1,3.32,1,4.09,4.09,0,0,1,1.79.51,3.48,3.48,0,0,0,2.56,1c.68,0,1,.26,1,.77q.51.77,1.41,2.17a11.17,11.17,0,0,1,1.15,2.17,1.49,1.49,0,0,1,.26,1,9.53,9.53,0,0,1,.26,3.58c-.17.68-.38,1.66-.64,2.94a26.52,26.52,0,0,1-.64,2.69v.77a7.6,7.6,0,0,0-.51,1.53c-.17.68-.34,1.28-.51,1.79s-.34,1-.51,1.53a24.65,24.65,0,0,1-3.84,4.6c0,.17-.17.42-.51.77s-.51.59-.51.77Z"/></svg>