<svg id="Layer_2" data-name="Layer 2" xmlns="http://www.w3.org/2000/svg" viewBox="0 0 1920 325"><defs><style>.cls-1{fill:none;}.cls-2{fill:#fff;}</style></defs><title>seven</title><rect class="cls-1" width="1920" height="325"/><path class="cls-2" d="M938.94,264.07q-2,3.39-3.39,5.78t-3.64,5.65a22.78,22.78,0,0,1-4.15,4.77,46.73,46.73,0,0,1-4.77,3.27,8.78,8.78,0,0,1-5.78,1.38q-2.89-.38-7.16-1.38l-1.51.75a21.15,21.15,0,0,1-3.52-3,17.65,17.65,0,0,1-5-2.51,45.5,45.5,0,0,1-4-6q-2.51-4.27-3.27-5.28a22.12,22.12,0,0,1-3.9-12.82q-.13-7.54,1.13-11.56t4.77-13.57q4.27-11.81,9.68-24.63t12.82-29.15q7.41-16.33,10.68-24.13,4.77-11.31,10.81-23.5t13.95-26.77q7.92-14.57,11.94-22.62a61.48,61.48,0,0,1-8.42,0q-7.16-.25-8.42.75a78.75,78.75,0,0,0-7.67,3.14q-5.91,2.64-9.68,2.64Q924.86,85,915.56,81q-15.83-7-9.3-12.57A22.94,22.94,0,0,1,911.92,65a41.1,41.1,0,0,1,6-2.26l7.79-2q5.4-1.38,5.65-1.38,5.28-1.76,15.2-4.15l10.93-2.64q1.51-.5,10.3-2.14t12.57-3.64a8.56,8.56,0,0,0,3-2.76,8.54,8.54,0,0,1,3-2.76,11.49,11.49,0,0,1,3.14-.38q.62.13,1.88,1.76A9.33,9.33,0,0,0,994,45a13.13,13.13,0,0,0,4.52,1.63,14.3,14.3,0,0,1,4.78,1.76,5.77,5.77,0,0,1,2.26,4.15,9.83,9.83,0,0,1-1,4.65,14.21,14.21,0,0,0-1.26,4.65,19.92,19.92,0,0,0,2,5.65,35.38,35.38,0,0,1,2,4.65,42.1,42.1,0,0,1,1.76,10.93,93.18,93.18,0,0,1,0,9.68q-.25,3.52-1.63,11.69t-1.63,10.18A100.53,100.53,0,0,1,1002.9,127q-1.88,6.29-4.65,13.82t-4,11.81q-1,4-2.76,8.92t-3.14,8q-1.38,3.15-4,8.92t-3.64,8q-4,8.8-18.1,33.43-.25.51-4.9,11.69t-8.92,19.23q-4.28,8-6.53,7.79Q940.94,260.68,938.94,264.07Z"/><path class="cls-2" d="M1035.45,278.53h-.5a8.71,8.71,0,0,1-3,1.26,1,1,0,0,1-.75.25,4,4,0,0,1-3.77.75,15.51,15.51,0,0,1-3.52-1.76l-1.26-1.26a7.62,7.62,0,0,1-.5-1.51,7.94,7.94,0,0,0-.5-1.51,7.73,7.73,0,0,1-.63-.76,7.14,7.14,0,0,0-.63-.75l-.75-1.51c0-.5,0-1.18-.13-2s-.13-1.51-.13-2a20.81,20.81,0,0,1,.5-3.77,26.61,26.61,0,0,1,2.26-7.29,5.66,5.66,0,0,0,1-1.63,5.42,5.42,0,0,1,1-1.63,2.71,2.71,0,0,1,2-.76,1,1,0,0,0,1-.75q1-2.51,2.76-2.76h2a25.86,25.86,0,0,1,3.27,1,4,4,0,0,1,1.76.5,3.42,3.42,0,0,0,2.51,1c.67,0,1,.25,1,.75.33.5.79,1.21,1.38,2.14a11,11,0,0,1,1.13,2.14,1.46,1.46,0,0,1,.25,1,9.37,9.37,0,0,1,.25,3.52c-.17.67-.38,1.63-.63,2.89a26.14,26.14,0,0,1-.63,2.64v.75a7.5,7.5,0,0,0-.5,1.51c-.17.67-.34,1.26-.5,1.76l-.5,1.51a24.26,24.26,0,0,1-3.77,4.52c0,.16-.17.41-.5.75s-.5.58-.5.75Z"/></svg>