<svg id="Layer_2" data-name="Layer 2" xmlns="http://www.w3.org/2000/svg" viewBox="0 0 1920 325"><defs><style>.cls-1{fill:none;}.cls-2{fill:#fff;}</style></defs><title>six</title><rect class="cls-1" width="1920" height="325"/><path class="cls-2" d="M1037.32,146.22q21.24,33.27-23.8,100.06-.77,1.28-4,6.27t-5.5,8.06a37.47,37.47,0,0,1-4.86,5.37,43,43,0,0,1-25,11.39,45.42,45.42,0,0,1-26.74-4.73q-2.3-1.29-10.36-5.12t-11.39-5.89q-3.33-2.05-8.7-6a35,35,0,0,1-8.57-8.83,40.37,40.37,0,0,1-5-11q-8.7-28.66.77-73.45a152.56,152.56,0,0,1,11-33.14q7.42-16,19.19-36.47,2.56-4.86,7.29-12.92T953.64,61q7.16-10.75,13.44-15.87t8.83-.51a43.27,43.27,0,0,1,1.41,5.76,11.29,11.29,0,0,1-1.15,6q-1.54,3.59-2.82,5.89t-3.2,5.5q-1.92,3.2-2.69,4.73Q964.13,79.18,957,98.88q-3.07,8.7-9.47,36.85Q1013.26,108.61,1037.32,146.22Zm-65,58.09a37.8,37.8,0,0,1,2-7.42q.51-2,1.66-5.89t1.66-5.63q.51-1.28,1.66-4.61t1.79-5.89a20.19,20.19,0,0,0,.64-4.86,14.27,14.27,0,0,0-.64-4.48,23.59,23.59,0,0,0-2.18-4.48,30,30,0,0,1-2-3.84q-3.84-7.42-7.42-10-8.7-5.37-12.8-4.61-9.21,1.79-12.28,6.4-4.35,6.4-8.7,32.24-3.59,22.26.51,35.57A28.06,28.06,0,0,0,944,230.16q5.5,5.12,12.16,1,4.86-3.32,10-12.28T972.32,204.31Z"/><path class="cls-2" d="M1074.42,279.55h-.51a8.87,8.87,0,0,1-3.07,1.28,1.06,1.06,0,0,1-.77.25q-1.28,1.28-3.84.77a15.8,15.8,0,0,1-3.58-1.79l-1.28-1.28a7.76,7.76,0,0,1-.51-1.53,8.09,8.09,0,0,0-.51-1.53,7.87,7.87,0,0,1-.64-.77,7.27,7.27,0,0,0-.64-.77l-.77-1.53c0-.51,0-1.2-.13-2s-.13-1.54-.13-2a21.19,21.19,0,0,1,.51-3.84,27.1,27.1,0,0,1,2.3-7.42,5.77,5.77,0,0,0,1-1.66,5.52,5.52,0,0,1,1-1.66,2.76,2.76,0,0,1,2-.77,1,1,0,0,0,1-.77q1-2.56,2.82-2.81h2a26.33,26.33,0,0,1,3.33,1,4.11,4.11,0,0,1,1.79.51,3.48,3.48,0,0,0,2.56,1c.68,0,1,.25,1,.77.34.51.81,1.23,1.41,2.17a11.17,11.17,0,0,1,1.15,2.18,1.49,1.49,0,0,1,.26,1,9.54,9.54,0,0,1,.26,3.58c-.17.68-.38,1.66-.64,2.94a26.62,26.62,0,0,1-.64,2.69v.77a7.64,7.64,0,0,0-.51,1.53c-.17.68-.34,1.28-.51,1.79l-.51,1.54a24.71,24.71,0,0,1-3.84,4.61c0,.17-.17.42-.51.77s-.51.59-.51.77Z"/></svg>