<svg id="Layer_2" data-name="Layer 2" xmlns="http://www.w3.org/2000/svg" viewBox="0 0 1920 325"><defs><style>.cls-1{fill:none;}.cls-2{fill:#fff;}</style></defs><title>three</title><rect class="cls-1" width="1920" height="325"/><path class="cls-2" d="M1032.09,145.23q19.68,25.54,1.86,54.8-14.1,22.61-41.5,40.44a255.11,255.11,0,0,1-57.19,27.93,4.28,4.28,0,0,1-2.39,1.33,13.12,13.12,0,0,1-3.59.53c-1.16,0-2.53,0-4.12-.13s-2.49-.13-2.66-.13a6.56,6.56,0,0,1-.67,1.73,1.6,1.6,0,0,1-1.06.8,6.32,6.32,0,0,1-1.2.13c-.36,0-.93,0-1.73-.13a20,20,0,0,0-2.26-.13q-6.92-.54-22.35-12.77t-14.1-16a9.13,9.13,0,0,1-1.73-7q.66-3.59,4.52-7.58a72.26,72.26,0,0,1,8.65-7.58,116,116,0,0,1,10.91-7.18q6.12-3.59,11.17-6.25T922.1,203a60.52,60.52,0,0,0,5.45-3.19q.53-.26,8.25-5.45t10.91-7.45q3.19-2.26,10-7.71a79.46,79.46,0,0,0,10.11-9.31,59.22,59.22,0,0,0,6.38-9.18,22.77,22.77,0,0,0,3.33-9.84q-5.06.54-25.67,7.58T922,162.79q-9-2.92-19.82-17.56t-7-22.08q1.6-3.19,20.35-17.16t34.32-27Q965.32,66,961.6,63.3q-3.19-2.13-12.37.27a168.3,168.3,0,0,0-20.88,7.18q-11.71,4.79-13,5.05-20,5.85-20,2.13.26-2.39,7.71-8.78,15.69-13,39.5-19.55t42.7.13a31.54,31.54,0,0,1,9,5.59,14.13,14.13,0,0,1,4.39,7.45,58.52,58.52,0,0,1,1.2,7.45q.26,3.19-1.86,8.78t-3.19,8.25q-1.07,2.66-4.39,8.91t-4.12,7.58a12,12,0,0,1-1.86,2.79,14.37,14.37,0,0,0-2.26,3.72,2.77,2.77,0,0,0,.13,2.79q.53.8,10.91,3.46t11.71,3.72A101.51,101.51,0,0,1,1032.09,145.23Z"/><path class="cls-2" d="M1070.4,276.11h-.53a9.17,9.17,0,0,1-3.19,1.33,1.1,1.1,0,0,1-.8.27q-1.33,1.33-4,.8a16.48,16.48,0,0,1-3.73-1.86l-1.33-1.33a8.1,8.1,0,0,1-.53-1.6,8.42,8.42,0,0,0-.53-1.6,8.13,8.13,0,0,1-.67-.8,7.43,7.43,0,0,0-.67-.8l-.8-1.6c0-.53,0-1.24-.13-2.13s-.13-1.6-.13-2.13a22,22,0,0,1,.53-4,28.19,28.19,0,0,1,2.39-7.71,6,6,0,0,0,1.06-1.73,5.75,5.75,0,0,1,1.06-1.73,2.87,2.87,0,0,1,2.13-.8,1,1,0,0,0,1.06-.8q1.06-2.66,2.93-2.93h2.13a27.14,27.14,0,0,1,3.46,1.06,4.26,4.26,0,0,1,1.86.53,3.62,3.62,0,0,0,2.66,1.06c.71,0,1.06.27,1.06.8q.53.8,1.46,2.26a11.61,11.61,0,0,1,1.2,2.26,1.55,1.55,0,0,1,.27,1.06,9.92,9.92,0,0,1,.27,3.73c-.18.71-.4,1.73-.67,3.06a27.58,27.58,0,0,1-.67,2.79v.8a7.91,7.91,0,0,0-.53,1.6c-.18.71-.36,1.33-.53,1.86s-.36,1.06-.53,1.6a25.64,25.64,0,0,1-4,4.79c0,.18-.18.44-.53.8s-.53.62-.53.8Z"/></svg>