<svg xmlns="http://www.w3.org/2000/svg" viewBox="0 0 1434.23 799.36"><defs><style>.cls-1{fill:#fff;}</style></defs><title>TitleCard</title><g id="Layer_1" data-name="Layer 1"><path class="cls-1" d="M474.91,460.6a49.33,49.33,0,0,0,.87,11c.14.56,0,4.1-.43,10.48-1.15,19-2.13,38.23-4.56,57.24q-.65,5.72-4.56,16.59a12.82,12.82,0,0,1-7.82,7.8,4.28,4.28,0,0,0-2.39.9,18.25,18.25,0,0,1-9,4.5,33.87,33.87,0,0,1-9.67.6,6.5,6.5,0,0,1-5.65-4.05,41.3,41.3,0,0,1-2.61-10.85c-1.85-15.42-3.9-31.05-4.13-46.36,0-1.71-.14-4.19-.43-7.35s-.43-5.25-.43-6.27a4,4,0,0,0-.76-2.76c-.51-.53-1.56-.74-3.15-.61a59.67,59.67,0,0,0-7.06,1.21,55.22,55.22,0,0,1-7.06,1.17,39.67,39.67,0,0,1-7.17-.16c-1.26-.14-2.39.59-3.26,2.38A57.13,57.13,0,0,0,391,506.75c-3.67,11.25-7.11,22.92-11.3,33.67a17.64,17.64,0,0,1-4.56,7c-1.26,1.08-2.39,1.27-3.26.59a2.56,2.56,0,0,1-1.09-2.56c.06-.53.33-1.46.54-2.63s.4-2,.54-2.63c5.18-16.25,10.25-32.68,16.73-48.47a5.66,5.66,0,0,1,.87-2.22,17,17,0,0,0,2.39-2.64q1.08-1.48,1.74-2.5a22.42,22.42,0,0,0,1.52-3q.87-2,1.2-2.79t1.09-3.22q.76-2.44.87-2.88t.76-3.2q.65-2.76.65-3a128.77,128.77,0,0,1,7.61-22.69c2.77-5.95,6.74-15,12-27l1.09-2.26c6.57-9.87,8.43-22.38,8.47-34a16.29,16.29,0,0,1,.22-2.41c.38-2.6.54-4.65,1.2-5.21s2.5-.68,5.11-.78a27.19,27.19,0,0,1,3-.06c6.66.68,11.33,1.95,14,3.85s4.5,5.9,5.76,11.57c2.29,10.34,6.29,20.71,10,30.86A68.41,68.41,0,0,1,473,440.84C473,442.39,473.61,449,474.91,460.6Zm-54.54,21c2.46-.63,3.43-2.13,3-4.38a74,74,0,0,1-.87-8.84q-.22-4.54,0-11.41t.22-9V435.59a2.9,2.9,0,0,1-1.3-.11q-3.91,9.88-11.08,27.92l-9.13,22.92A140.82,140.82,0,0,0,420.37,481.63Z" transform="translate(-280.77 -148.68)"/><path class="cls-1" d="M645.91,537.62c-5.19-3.15-8.12-9.33-8.26-18.12a162.55,162.55,0,0,1,.43-17.9c.55-4.73,1.34-12.58,2.28-23.49s1.85-19.35,2.72-25.32c5.68-36.79,12.38-73.54,23-109.26q2.17-7.41,3-11.07,1.09-4.57,4.56-4.66,8-.19,17.38,6.13a28,28,0,0,1,12,17.23c.43,1.93-.19,8.59.22,17.77a89.9,89.9,0,0,1-1.63,18.4q-2.28,12.89-2.5,15.33c-1.18,10.63-.74,21.41-.43,32,.52,18.09,1,36.28-.22,54.37-.3,4.55-.29,8-.22,10.26s.29,3.74.87,4.26,1.74.37,3.48-.45q6.08-2.88,18-7.45c8-3.06,13.9-5.45,17.6-7.23,6-2.91,11.8-4.16,17.17-3.42q2.82.41,3.26,1.39a3.7,3.7,0,0,1,.22,1.25c0,1.88-1.19,3.34-3.26,4.48-2.43,1.33-3.84,2.22-4.13,2.29q-2.61.83-8.91,3.31t-10.86,3.85c-3,.93-6,1.76-8.91,2.39-6.58,1.44-14.85,5-24.55,10.76a8.28,8.28,0,0,0-3.69,3.21,23.76,23.76,0,0,1-12.17,9.83q-2.61,1-2.82,1.7a17,17,0,0,1-3.59,3.92,16.65,16.65,0,0,1-3.59,2.29q-1.52.65-4.24,1.77l-3.8,1.56C658.3,541.89,652.13,541.39,645.91,537.62Z" transform="translate(-280.77 -148.68)"/><path class="cls-1" d="M830.61,486.78a43.47,43.47,0,0,1-21.51,2.65,123.69,123.69,0,0,0-17.82-1.19,17.46,17.46,0,0,1-7.39-1.43c-13.5-8.46-25.81-17.21-30-33.57a47.86,47.86,0,0,1-1.52-11.59,103.09,103.09,0,0,1,5-27.27c3.52-11.26,11.93-20,20-28.32a151.25,151.25,0,0,1,16.3-12.94,30.36,30.36,0,0,1,11.3-4.35c9.25-1.8,22,.32,29.77,5.9q5.22,3.44,3,9.21c-2.51,9.14-8.88,19.3-15.64,25.74-8,7.59-14.42,13.07-19.34,15.76a13.24,13.24,0,0,1-1.74,1,13.49,13.49,0,0,0-1.74,1q-4.78,2.29-5.54,3.34t-.33,5.08l1.3,12.71c.58,3.48,3.14,7.63,7.61,12.44,3.48,3.75,8.42,6.55,14.56,8.49a78.14,78.14,0,0,1,17.6,7.89q3.47,2.15,2.17,4A10.81,10.81,0,0,1,830.61,486.78Zm-36.29-79.69q-.22.49-1.2,2.9t-1.3,3.48a9.79,9.79,0,0,0-.33,2.8,7.07,7.07,0,0,0,.65,3.1c3.62-1.91,9.2-5.87,16.73-11.8a46.09,46.09,0,0,0,15.21-21.24,5.32,5.32,0,0,0-.54-4.75,5.55,5.55,0,0,0-4-2.78q-3.91-1-8.47,4.1Q798,396.41,794.32,407.09Z" transform="translate(-280.77 -148.68)"/><path class="cls-1" d="M931.86,443.35a98,98,0,0,1-15.21,17.77c-9,9.25-20.89,16.52-34.11,16.68-1.3-.09-5.81.77-12.82,1.64-2.36.29-4.13-.22-5-1.3a12.45,12.45,0,0,0-3.59-2.54,14.06,14.06,0,0,1-3.8-2.7q-1.74-2.37-5.21.49-2.39,1.71-3.26-1.11a17.47,17.47,0,0,1-.22-14.5c4.49-10.29,11.2-17.65,19.77-21.24a91.21,91.21,0,0,1,13.91-4.32c6.64-1.58,12.39-6.18,17.17-13.68a31.12,31.12,0,0,0,4.13-7.62c.72-1.79.94-2.93.65-3.43s-1.39-.65-3-.28c-1.13.25-2.36.63-3.59,1l-4,1.07-3.26.87c-7.82,2.37-13.83,3-17.6,2.48-3.46-.48-6.08-1.23-7.39-2.62q-7.17-6.38-7.61-13.87c-.29-5,1.47-11.32,5.22-19A43,43,0,0,1,873.84,363a35.65,35.65,0,0,0,6.08-5.52,28.75,28.75,0,0,1,18.69-10c5.65-.63,11.08,1.32,15.86,6.41q2.39,2.19,0,5.43-1.52,2.15-4.56,1.22a.77.77,0,0,0-.65,0c-5.94-3-13.19-1.37-21.73,4.91-9,6.59-13.91,14.54-14.78,23.89-.15,1.34,0,2.2.54,2.57s1.41.25,2.72-.39c9-3.93,20.35-5.76,29.55-7a26.24,26.24,0,0,1,18.25,4c6.22,4.1,9.41,6.24,9.56,6.34q10.64,6.92,9.34,21.39Q941.64,428.34,931.86,443.35Z" transform="translate(-280.77 -148.68)"/><path class="cls-1" d="M1036.37,415.16a98.42,98.42,0,0,1-15.21,17.78c-9,9.26-20.88,16.57-34.11,16.81-1.3-.08-5.81.8-12.82,1.73-2.36.31-4.13-.19-5-1.26a12.3,12.3,0,0,0-3.59-2.51,13.89,13.89,0,0,1-3.8-2.67q-1.74-2.36-5.21.54-2.39,1.73-3.26-1.08a17.46,17.46,0,0,1-.22-14.5c4.49-10.34,11.19-17.76,19.77-21.42a90.85,90.85,0,0,1,13.91-4.41c6.64-1.62,12.39-6.24,17.17-13.76a31.27,31.27,0,0,0,4.13-7.63q1.09-2.68.65-3.44c-.29-.5-1.39-.64-3-.27-1.13.26-2.36.64-3.59,1l-4,1.09-3.26.88c-7.82,2.41-13.83,3.08-17.6,2.58-3.46-.45-6.08-1.18-7.39-2.57q-7.17-6.32-7.61-13.81c-.29-5,1.47-11.33,5.22-19A43.43,43.43,0,0,1,978.36,335a36.12,36.12,0,0,0,6.09-5.56,28.86,28.86,0,0,1,18.69-10c5.65-.65,11.08,1.28,15.86,6.37q2.39,2.18,0,5.43-1.52,2.15-4.56,1.23a.77.77,0,0,0-.65,0c-5.94-3-13.19-1.33-21.73,5-9,6.64-13.91,14.62-14.78,24q-.22,2,.54,2.57c.51.37,1.41.24,2.72-.41,8.95-4,20.35-5.87,29.55-7.11a26.14,26.14,0,0,1,18.25,4c6.22,4.1,9.42,6.24,9.56,6.34q10.64,6.92,9.34,21.4Q1046.15,400.15,1036.37,415.16Z" transform="translate(-280.77 -148.68)"/><path class="cls-1" d="M1164.79,359.7a19.54,19.54,0,0,1-.22,4c-2.61,11.34-6.85,22.6-13.91,32-8.62,11.14-21.07,18.83-34.33,22.71a50.81,50.81,0,0,1-25.86.89q-1.52-.25-4.35-.48t-5.11-.61a14.56,14.56,0,0,1-4-1.22,30.22,30.22,0,0,1-17.17-17.17c-6.67-17-2.78-34.16,2.39-50.18,4.28-13.27,13.09-25.75,23.25-35.93a47.05,47.05,0,0,1,4.35-4q2.39-1.93,5.43-4.14t4.56-3.48a3.71,3.71,0,0,1,1.09-.72,3.7,3.7,0,0,0,1.09-.72,17.84,17.84,0,0,1,7.61-5.35,18.67,18.67,0,0,1,6.84-1.24,46.44,46.44,0,0,1,7.71,1.26,74.85,74.85,0,0,0,13.69,1.91,48,48,0,0,1,9.56,1.91q6.08,1.71,7.17,1.88,3.26.92-.65,2.55c-1.16.29-1.38.86-.65,1.69.14.26.47,1,1,2.25a4.66,4.66,0,0,0,1.85,2.47,5.9,5.9,0,0,1,2.82,4.07,61.88,61.88,0,0,0,2.5,9.26q2.28,6.92,1,11.81v1.09a18.5,18.5,0,0,1,2.17,7.39,42.79,42.79,0,0,1,.11,8A62.61,62.61,0,0,0,1164.79,359.7Zm-43.24-5.07c1.59-5,2.16-12.07,1.09-20.27-.46-3.53-2.61-6.71-6.08-9.29q-9.13-7.19-10.21-8.64-1.74-2.15-3.26-2.08t-3.91,2.65q-1.3,1.43-4.45,4.32t-4.89,4.65q-1.74,1.76-4.13,4.46a42.21,42.21,0,0,0-3.91,5.05q-8,12.12-9.34,18.12c-2,10.68-2.83,17.64-3,20.15-.74,8.74,3.65,22.6,13.47,25.76q4.13,1.52,6.74.94t7-3.89a40.32,40.32,0,0,0,4.35-4C1110.65,381.77,1117.33,368.5,1121.55,354.63Z" transform="translate(-280.77 -148.68)"/><path class="cls-1" d="M1262.13,267.89a21.35,21.35,0,0,1,6.3,13.38,129.81,129.81,0,0,1,.43,21.42,101.42,101.42,0,0,1-2.17,14.17c-.75,3.45-1.88,9.62-3.48,18.37s-3,15.58-4.13,20.48a8.89,8.89,0,0,0-.11,3.83q.33,2.64-.76,3.76-.44.75,1.3,1c1.45,1.41,1.46,2.89.22,3.65-1.56.95-2.17,1.79-.87,2.8q3.69,2.86-.87,8a5.17,5.17,0,0,0-.54,1.53,1.56,1.56,0,0,1-1.63,1.13,3.31,3.31,0,0,1-3-1.49,12.57,12.57,0,0,1-1.74-3.73c-.88-3.29-1.6-6.45-3-8s-1.45-4,0-7.39a6.23,6.23,0,0,0,.44-3.47,8.08,8.08,0,0,1,.22-3.42q-2.83-.88-1.3-6.22a54.73,54.73,0,0,0,.76-9.3,75.91,75.91,0,0,1,.33-8.11,5.91,5.91,0,0,0,.22-2.22,6.08,6.08,0,0,1-1.52-3.56,22.87,22.87,0,0,1,.11-4.91,39.61,39.61,0,0,0,.33-4.09q0-1.52-.11-4.54t-.11-5.3a33.75,33.75,0,0,1,.22-4.07q-1.09-14.31-2.39-22.27A6.79,6.79,0,0,0,1245,278c-.14-.62-.25-1.1-.33-1.45a1.63,1.63,0,0,0-.65-.94,2.45,2.45,0,0,0-1.63-.39,8.23,8.23,0,0,0-3.8,1.74,9.61,9.61,0,0,0-3.15,3.34,19.84,19.84,0,0,0-2.39,9.46,54.49,54.49,0,0,1-.33,8.22q-.54,4.36-1.63,10.16t-1.52,8.5c0,.43-.16,1.86-.43,4.23A49.32,49.32,0,0,1,1226.5,333a19.26,19.26,0,0,0-1.19,4.3A39.79,39.79,0,0,0,1225,343v4.45c-.73,8-2,17.28-3.69,27.81-.88,5.41-4.78,9.92-11.52,12.95-9,4.06-17.53,6-24.77,6q-3.7.26-4.67-.37c-.65-.42-.83-1.73-.76-3.72.32-9.22.27-16.76.87-21.51a156.46,156.46,0,0,0,1.3-22.27c-.18-10.43,1.22-21.13,2-31.34a181.92,181.92,0,0,1,5-31.43q1.09-5.91.87-7.6a2.89,2.89,0,0,1,.65-2.55,10.58,10.58,0,0,1,3-1.83,14.37,14.37,0,0,0,2.61-1.07l2.61-1.28q11.08-5.07,17.17-1.51a47.26,47.26,0,0,0,6.08,2c3,.88,5.4,1.72,6.52,2.6.86.67,2.33.7,4.35-.36a86.39,86.39,0,0,1,16.73-6.24C1254.4,264.4,1259.26,265.25,1262.13,267.89Z" transform="translate(-280.77 -148.68)"/><path class="cls-1" d="M1454.43,154.15c5.49,3.93,8.8,7.31,10,9.53a39.52,39.52,0,0,0,6,7.49q4.24,4.46,5.54,6a22.72,22.72,0,0,1,3.91,6.91,15.83,15.83,0,0,0,.54,2,17.33,17.33,0,0,0,.76,2.19c.14.27.4.9.76,1.86a6.78,6.78,0,0,0,1,1.95,15.85,15.85,0,0,0,1.3,1.26,10.69,10.69,0,0,0,1.74,1.32c.66.37,1.45,1.93,2.17,4.74,3.59,10.6,4.6,24.1,4.56,34.67-.05,15.51-4.48,32.37-10.65,47.31q-5,11.47-8.47,16.47-8.26,12.55-14.56,23.4a11.32,11.32,0,0,1-6.74,5.48c-2.18.68-6.3,2.75-12,6.47-14.43,7.64-28.79,14.86-45.41,14.93A36.33,36.33,0,0,1,1362.3,328c-7.61-14.83-7.94-30.7-6.52-46.38.64-7.07,2-14.34,3.26-21.25q.43-2.47,1-4.85t1.3-5c.51-1.76,1-3.29,1.41-4.61s1.05-3,1.85-5l1.74-4.44q.54-1.4,2-4.81c.94-2.27,1.59-3.76,2-4.48s1.09-2.37,2.17-5,1.77-4.12,2.06-4.61c4.78-11.28,9.48-19.62,14.12-24.85,5-5.64,9.47-9.34,12.6-11.24a12.77,12.77,0,0,0,5.65-7.66,82,82,0,0,1,9.13-22.1q3-4.39,6.52-2.54a19.35,19.35,0,0,0,2.93.64,13.49,13.49,0,0,1,3.48,1,5.3,5.3,0,0,1,2.28,2q1.52,2.17,4.56.84c.58-.23,1.3-.48,2.17-.75s1.59-.52,2.17-.75A14.64,14.64,0,0,1,1454.43,154.15Zm-26.73,131q.87-2.3,3.59-8.8t3.8-9.8q1.09-3.3,2.72-8.65a45.3,45.3,0,0,0,2-10.06c.22-3.14-.11-6.57-.11-9.44a31.13,31.13,0,0,0-1.74-10.61,61,61,0,0,0-5.87-12.28q-3.26-5.06-5.21-6.5l-2-1.44a23.49,23.49,0,0,1-3.69-4.43,96.58,96.58,0,0,0-9.56-12.84q-2.83-3-5.65,0c-7.71,9.12-15,18.16-19.56,29.35a149.49,149.49,0,0,0-6.19,19.11q-3.37,12.54-4.24,15.09A207.53,207.53,0,0,0,1368.6,291c-.71,6.32.14,13.52,2.17,21.12q1.3,5.2,9.13,16c2.46,4.2,5.78,5.55,9.78,4.39,10-2.89,19.73-9,24.55-18.6C1418.95,304.51,1423.8,295,1427.7,285.11Z" transform="translate(-280.77 -148.68)"/><path class="cls-1" d="M1591.76,219.7a25.67,25.67,0,0,1,6.3,14.49,131.54,131.54,0,0,1,.43,21.49,93.75,93.75,0,0,1-2.17,13.78c-.75,3.32-1.88,9.29-3.48,17.76s-3,15.06-4.13,19.75a8.7,8.7,0,0,0-.11,3.81q.33,2.7-.76,3.62-.44.67,1.3,1.24c1.45,1.67,1.43,3.16.22,3.68-1.55.67-2.17,1.41-.87,2.65q3.69,3.51-.87,7.87a4.35,4.35,0,0,0-.54,1.44c-.22.81-.88.93-1.63.84a4.07,4.07,0,0,1-3-2,14.87,14.87,0,0,1-1.74-4c-.87-3.42-1.6-6.72-3-8.52s-1.45-4.26,0-7.39a5.82,5.82,0,0,0,.44-3.39,7.78,7.78,0,0,1,.22-3.38q-2.83-1.36-1.3-6.44a52.39,52.39,0,0,0,.76-9.17,73.52,73.52,0,0,1,.33-8.06,5.68,5.68,0,0,0,.22-2.19,7.24,7.24,0,0,1-1.52-3.82,22.64,22.64,0,0,1,.11-4.9,38.1,38.1,0,0,0,.33-4q0-1.52-.11-4.56t-.11-5.32a32.82,32.82,0,0,1,.22-4q-1.09-14.49-2.39-22.67a7.32,7.32,0,0,0-.22-1.4c-.14-.64-.25-1.15-.33-1.5a2,2,0,0,0-.65-1,2.82,2.82,0,0,0-1.63-.66,7,7,0,0,0-3.8,1.11,7.53,7.53,0,0,0-3.15,2.81,17.71,17.71,0,0,0-2.39,9.07,53.4,53.4,0,0,1-.33,8.17q-.54,4.27-1.63,9.89t-1.52,8.25c0,.43-.16,1.83-.43,4.16a44.46,44.46,0,0,1-2.61,11.7,17,17,0,0,0-1.19,4.11,38.65,38.65,0,0,0-.33,5.67V293c-.73,7.88-2,17-3.69,27.22-.88,5.27-4.81,9.16-11.52,11.14a59.48,59.48,0,0,1-24.77,2.28q-3.7-.28-4.67-1c-.65-.51-.83-1.86-.76-3.83.33-9.22.27-16.72.87-21.38a152.41,152.41,0,0,0,1.3-22.08c-.18-10.34,1.22-20.94,2-31.05a170.19,170.19,0,0,1,5-30.7q1.09-5.75.87-7.47a2.6,2.6,0,0,1,.65-2.45,8.78,8.78,0,0,1,3-1.38,12.65,12.65,0,0,0,2.61-.68l2.61-.89c7.39-2.27,13.11-1.87,17.17,1.13a56.9,56.9,0,0,0,6.08,3,26.63,26.63,0,0,1,6.52,3.65c.87.82,2.33,1.08,4.35.35a74,74,0,0,1,16.73-3.44C1584,214.86,1588.86,216.53,1591.76,219.7Z" transform="translate(-280.77 -148.68)"/><path class="cls-1" d="M408,719.65a53.45,53.45,0,0,1,17.6,21.43q3.47,7.75-.65,20.26-1.09,2.27-3.26,7.22t-3.48,7.67a15.25,15.25,0,0,1-2.82,3.7c-.73.63-3.19,2.75-7.39,6.31s-7.47,6.35-9.78,8.17a42.2,42.2,0,0,0-8.26,8.34,11,11,0,0,1-5.43,4.23c-1.28.46-3.44,1.28-6.41,2.3s-5.25,1.85-6.84,2.51q-5.43,2.42-12.39,6.17c-2.75,1.55-6.74,4-12,7.35q-.87.46-2.61,1.59-5.22,4-8.91,1.72-.87-.63-2.82.49c-5.07,1.83-9,.85-11.73-2.89q-.65-.87-4.13-7.8A6.56,6.56,0,0,1,316,817a5.87,5.87,0,0,0-1-1.63,15,15,0,0,1-3.69-7.82c-1.3-8.11.79-15,6.08-20.66a80.61,80.61,0,0,1,25.21-17.55c10.37-4.53,21-9.3,30.42-15.67,6.71-4.54,11.22-8.33,13.25-11.34a6.91,6.91,0,0,0,.54-.68,6.86,6.86,0,0,1,.54-.68q2.17-3.82-2-4.67A63.13,63.13,0,0,0,363.23,735c-13.81,1.57-25.79-7.26-30.2-20.2-4.66-13.64-3.29-28.6,2.39-41.55,5.15-11.74,12.61-23.17,22.38-31.7,8-6.94,16.51-10.09,25.64-9q3.91,1.09,5.65,1.63a60,60,0,0,1,11.52,8,10.59,10.59,0,0,1,1.3,2.3c.32.92.36,1.57.22,1.72q-2.83,7.36-8.91,4.93a14.1,14.1,0,0,0-5.43-2.5l-.44,0a10.11,10.11,0,0,0-2.82-.49c-6.67-.93-12.44-.54-17.17,1.29-4.9,1.89-8.69,5.66-11.52,10.23-3.53,5.7-7.75,11.59-11.08,17.29-3.52,6-5.22,13.31-5.22,21.42a14.72,14.72,0,0,0,1.52,5.18,5.79,5.79,0,0,0,4.78,3.79c.68.07,1.92.24,3.59.33s2.93.2,3.8.31c10.28.1,16.59.22,18.9.55C384.68,709.24,397.71,712.51,408,719.65Z" transform="translate(-280.77 -148.68)"/><path class="cls-1" d="M506.2,814.34a41.89,41.89,0,0,1-21.51-.07,136.85,136.85,0,0,0-17.82-3.57,19.23,19.23,0,0,1-7.39-2.46c-13.8-8.65-25.75-22-30-37.95A50.65,50.65,0,0,1,428,758.48,96,96,0,0,1,433,732c3.44-10.56,11.89-18.17,20-25.38a127.62,127.62,0,0,1,16.3-10.66,26.93,26.93,0,0,1,11.3-2.83c9.76-.57,22.24,3.31,29.77,9.66q5.22,4.07,3,9.58a51.16,51.16,0,0,1-15.64,23.83q-12,10.23-19.34,13.26a11.3,11.3,0,0,1-1.74.75,11.53,11.53,0,0,0-1.74.75c-3.19,1.1-5,2-5.54,2.59s-.62,2.32-.33,5l1.3,12.89c.58,3.56,3.13,8.05,7.61,13.46,3.48,4.21,8.42,7.67,14.56,10.39a92.77,92.77,0,0,1,17.6,10.07q3.47,2.57,2.17,4.26Q509.89,813.62,506.2,814.34ZM469.92,730q-.22.46-1.2,2.74t-1.3,3.3a9.32,9.32,0,0,0-.33,2.75,7.67,7.67,0,0,0,.65,3.19c3.62-1.42,9.2-4.62,16.73-9.56a38.44,38.44,0,0,0,15.21-19.3,5.52,5.52,0,0,0-.54-4.82,6.59,6.59,0,0,0-4-3.28q-3.91-1.46-8.47,3C478,715.88,472.38,723.16,469.92,730Z" transform="translate(-280.77 -148.68)"/><path class="cls-1" d="M592,607.88c11.5,3.62,18,14.34,18.9,25.87.36,4.5-.21,11.13-2.17,19.31a171.47,171.47,0,0,1-13.47,37q-1.74,3.57-6.19,11.43t-6.41,12.32q-5.43,11.82-10.86,16.86a9.82,9.82,0,0,0-2.39,6.05c-.8,10.42,2.18,21.62,4.35,32.08a27.8,27.8,0,0,0,7.61,13.68,12.79,12.79,0,0,0,6.74,4.68c.58.19,3.62,1.75,9.13,4.67a3.93,3.93,0,0,1,2,4.86q-1.74,4.88-4.78,4.56c-.87,0-3.44,1.13-7.39,2.62-3.55,1.34-7.22,2-9.56,1.67a63.21,63.21,0,0,0-13-.19c-6.65.5-12-1.53-15.86-6.13-12-15-21.78-30.23-23.9-49.84-.29-3.14,0-11.47.87-24.9,1.06-16.93,3-33.28,8.91-49.34a130.26,130.26,0,0,1,6.74-14.71Q549,646.22,552.7,639.1c6-11.11,14.92-20.44,24.77-28.23Q584.2,604.93,592,607.88Zm-5.87,87.31c3.22-7.5,5.87-13.43,7.61-17.65a105.2,105.2,0,0,0,4.89-16.42,68.22,68.22,0,0,0,1.85-18.48v-2.39a26.11,26.11,0,0,0,.54-3.9,26.78,26.78,0,0,0-.11-4.11c-.14-1.49-.25-2.63-.33-3.42s-.29-2-.65-3.79-.62-2.89-.76-3.45q-1.3-5.84-6.74-6.82-4.13.31-8.47,5.41a55.19,55.19,0,0,0-7.82,14,73.7,73.7,0,0,1-3.26,8.38,53.11,53.11,0,0,0-3,8.12q-.22,1.34-1.3,6.63t-1.41,7.52q-.33,2.23-.65,6.19a58.28,58.28,0,0,0-.11,7c0,1,0,2.75.11,5.2a28.22,28.22,0,0,1-.11,4.8,82,82,0,0,0,.22,15.61c.58,6.57.18,12.16.65,14.23.15.64.79,1.75,1.09,2.86A82.48,82.48,0,0,0,586.16,695.18Z" transform="translate(-280.77 -148.68)"/><path class="cls-1" d="M617.89,808.44q-4.13-.52-5.21-4a68.06,68.06,0,0,1,.22-25.9A48.88,48.88,0,0,0,614,764.85a22.29,22.29,0,0,1,.43-7.25,26,26,0,0,0,.43-7.36,59.82,59.82,0,0,1,0-7.28c.72-10.71,1-20.47,1.09-28.89.22-14.45-.29-30.69,1.74-44,.17-1.13.29-2,0-2.39a46.4,46.4,0,0,1-.87-10q.22-3.73,1.3-10.57a72.18,72.18,0,0,0,1.09-10.53,45.41,45.41,0,0,1,.33-5.49,32.81,32.81,0,0,1,1.3-5.79q1-3.12,1.52-5.18a37,37,0,0,1,2.28-5.76q1.74-3.7,2.28-5.11t2.72-5.64q2.17-4.22,2.61-5.18a8.36,8.36,0,0,1,4.56-4.38c10-4.3,19.84-5.43,29.12-3.13a21.39,21.39,0,0,1,15.86,14.87,43,43,0,0,1,2.28,10.59q.54,7.49.76,9.18c1.95,10.14.3,20.74-.87,30.83q-.44,5.1-5.22,24.81-2.39,9.86-10.21,24.12c-3.19,6.32-4.73,11.85-4.78,16.43-.07,7.2-.58,14.68-1.3,22.22a45.36,45.36,0,0,1-1.52,7.49q0,.21-.65,8.39,0,1.09-1.09,8.81t0,8.58a2.2,2.2,0,0,1-.87,1.92,8.73,8.73,0,0,0-2.72,3.06,23.81,23.81,0,0,0-1.74,4.38q-.76,2.54-1.2,3.72a15.34,15.34,0,0,1-4.56,5.5,52.76,52.76,0,0,1-7.39,4.86q-5,2.85-6.52,3.8A24,24,0,0,1,617.89,808.44Zm36.29-160.6q0,6.74.87,8.51c4.57,11.17,7.24,23.15,9.56,35a156.67,156.67,0,0,0,5.54-15.84q3.15-10.33,4.24-13.4a9.37,9.37,0,0,1,.11-1.22,9.75,9.75,0,0,0,.11-1v-11.3a86,86,0,0,0-.43-11.21c-.4-1.8-.76-4.58-1.41-7.85s-1.19-6.26-1.63-9a76.82,76.82,0,0,1-.87-8,9.26,9.26,0,0,0-3.69-7l-6.08-4.81c-2-1.75-3.64-2.22-4.78-1.62-1.5.79-2.27,2.79-2.39,5.71-.07,1.7-.25,3.64-.33,5.61s-.14,4.09-.22,6.35-.05,4.1-.11,5.35a88.26,88.26,0,0,0,.54,13.58Q654.17,644.36,654.17,647.83Z" transform="translate(-280.77 -148.68)"/><path class="cls-1" d="M856.68,747.52c-2-1.35-3.34-4-3.48-7.57a20.24,20.24,0,0,1,2.17-9.91c2.46-4.41,4-10.91,4.56-19.44,1.38-21.07,3.63-42.33,6.74-63,3.47-23.2,7.46-47,12.17-70.13,2.66-13.07,5-22.11,7.17-26.88q1.74-3.93,2.5-4.57c.51-.42,1.89-.67,4-.63,1.42,0,3.18-.7,5.21-2.25,4.63-3.55,10.89-6.08,18.25-7.91,5.57-1.38,11.59-.5,17.82,3q6.3,3.09,4.78,9.8-.65,3-3.26,17.17A162.94,162.94,0,0,1,930.12,587a20,20,0,0,1-1.09,2.46,13.76,13.76,0,0,0-1.09,2.68c-1.16,2.63-.43,3.81,2,3.39A84.91,84.91,0,0,1,940.55,594q16.95.44,27.16,9c8.25,6.9,13.81,14.91,16.73,23.94,3,9.3,3.92,18.15,2.61,26.46-2,13-9.34,24.61-18.47,33.89q-.87.89-2.28,2.46c-.94,1-1.81,2-2.61,2.88L961.41,695c-6.63,8.12-17.79,15.38-27.81,18.36l-1.74.47q-2.17.15-4.35.52a22,22,0,0,0-4.56,1.33l-4,1.62a34.93,34.93,0,0,0-4.35,2.25q-2.72,1.59-3.69,2.29t-4.13,2.84c-2.1,1.43-3.4,2.27-3.8,2.54s-2.06,1.67-5.32,4.35-5.9,4.36-7.93,5l-2,1.82q-7,9.23-18.9,8.46-.44-.1-2.17-.3t-2.39-.24a6,6,0,0,0-2.06.43,9.12,9.12,0,0,0-2.5,1.41C859.07,748.73,858,748.48,856.68,747.52Zm86.26-141.57a37.56,37.56,0,0,0-27.38,8.22q-1.74,1.34-7.82,7.31t-10,8.1c-1.59.86-2.27,3-2.39,6.07-.35,9-.95,15.4-.87,18A180.28,180.28,0,0,1,892.75,687q2-1.17,9.78-8c10-8.37,19.91-17.6,26.94-28.51,5.67-8.79,9-14.37,10-16.38q7-14,7.82-21.45c.29-2.53.11-4.27-.54-5.18S944.82,606,942.94,605.95Zm-39.76-57.57a13.62,13.62,0,0,0-3.8,3.84,10.63,10.63,0,0,0-.54,4.71,121.28,121.28,0,0,1-.43,14.89c-.17,2-.58,5.52-.87,10.23a1.78,1.78,0,0,1,.87,0l.87.2c6.07-8.73,13.15-16.79,20-24.89a29.67,29.67,0,0,0,5.43-9.06c1.35-3.57.44-5.55-2.61-5.6Q909.26,543.94,903.18,548.38Z" transform="translate(-280.77 -148.68)"/><path class="cls-1" d="M1068.75,574.69v5.21a56,56,0,0,0-9.13,5.69,68.52,68.52,0,0,0-6.52,6.52c-7.39,7.48-11.36,14.88-11.73,22-.17,3.2-.65,7.82-1.52,13.77s-1.32,10.25-1.52,12.68a36.43,36.43,0,0,0,.22,6.24,25.83,25.83,0,0,1,0,6.74q.21,1.68.33,11.32a77.72,77.72,0,0,0,1.2,14.35,6.13,6.13,0,0,1-.87,5.23c-1,1.28-3,2.49-6.08,3.59-11,4-20.21,6.52-27.38,7.38-5.29.63-8.4-.92-9.13-4.49a8.55,8.55,0,0,1-.22-3.2q.87-6.1,1.52-18.77a195.57,195.57,0,0,1,1.74-19.48c1.87-14.19,3.17-28.05,3.91-42.34.14-1.05.64-4.59,1.74-10.25,1.56-8,2.84-14.1,3.26-17.83.3-2.67,1-4.51,2.17-5.48s3.48-1.78,7-2.42c11.4-2.09,18.83,1.67,22.16,11.21.14.83.4,2,.76,3.6s.73,2.77,1,3.54c.49,1.53,1.74,1.63,3.91,0q1.08-.94,3.37-2.86t2.93-2.52A51.8,51.8,0,0,1,1068.75,574.69Z" transform="translate(-280.77 -148.68)"/><path class="cls-1" d="M1114.6,670.41c-10.33,4.55-21.68,8.5-32.16,1.69a29,29,0,0,1-13.69-24.4,127.53,127.53,0,0,1,7-44.22c3.65-11,10.69-20.8,17.6-29.42a213.82,213.82,0,0,1,22.6-24.37,20.91,20.91,0,0,1,10-5c2.79-.53,8.69-.79,17.38-1q5,.47,6.74,2.42a1.62,1.62,0,0,0,1.3.65,3.83,3.83,0,0,0,1.74-.87,5.64,5.64,0,0,1,1.52-.93c-.58,3.62,1,6.72,4.78,9.23,3.16,2.1,4.32,5.46,3.26,9.83a49.07,49.07,0,0,0-.87,15.65,34.88,34.88,0,0,1-1,8.72,50,50,0,0,0-1.2,8.34c-.58,6.23-.82,10.88-.43,13.58.44,3.09,1.19,8,1.85,14.42s1.23,11.28,1.85,14.42c.4,2,1.23,9.83,2.39,23.3q0,2.39-2,2.88l-1.85.46a4.73,4.73,0,0,0-2.17,1.09,5.92,5.92,0,0,0-1.19,2.15c-.24.63-1.31,1.23-3,1.74a5.58,5.58,0,0,0-3.48,2.29,4.31,4.31,0,0,1-1.63,1.06c-.8.35-1.34.34-1.63,0a4.33,4.33,0,0,0-2.72-1.48,15.54,15.54,0,0,0-3.91,0,14.68,14.68,0,0,1-3.37.1q-9.56-1-10.43-8.4a2.89,2.89,0,0,0-2.17-2.48A49.53,49.53,0,0,1,1114.6,670.41Zm-35-19.72a19.57,19.57,0,0,0,7,13.37,7.55,7.55,0,0,0,8.15,1.77q4.45-1.6,6.63-7.6a189.66,189.66,0,0,0,8.47-23.73c5.35-19.95,8.42-40.66,11.73-61.06a15.09,15.09,0,0,0-1.52-11.12q-2-3-2.83-3.07t-4.13,2.7a143.25,143.25,0,0,0-19.45,19.86,50.52,50.52,0,0,0-9.89,20.86q0,.22-1.09,4.2C1078.54,621,1078,636.11,1079.62,650.69Z" transform="translate(-280.77 -148.68)"/><path class="cls-1" d="M1262.57,528.54a21.35,21.35,0,0,1,6.3,13.38,129.81,129.81,0,0,1,.43,21.42,101.39,101.39,0,0,1-2.17,14.17c-.75,3.45-1.88,9.62-3.48,18.37s-3,15.58-4.13,20.48a8.89,8.89,0,0,0-.11,3.83q.33,2.64-.76,3.76-.44.75,1.3,1c1.45,1.42,1.46,2.89.22,3.65-1.56.95-2.17,1.79-.87,2.8q3.69,2.86-.87,8a5.19,5.19,0,0,0-.54,1.54,1.56,1.56,0,0,1-1.63,1.13,3.31,3.31,0,0,1-3-1.49,12.55,12.55,0,0,1-1.74-3.73c-.88-3.29-1.6-6.45-3-8s-1.45-4,0-7.39a6.23,6.23,0,0,0,.44-3.47,8.08,8.08,0,0,1,.22-3.42q-2.83-.88-1.3-6.22a54.73,54.73,0,0,0,.76-9.3,75.91,75.91,0,0,1,.33-8.11,5.9,5.9,0,0,0,.22-2.22,6.08,6.08,0,0,1-1.52-3.56,22.87,22.87,0,0,1,.11-4.91,39.63,39.63,0,0,0,.33-4.09q0-1.52-.11-4.54t-.11-5.3a33.73,33.73,0,0,1,.22-4.07q-1.09-14.31-2.39-22.27a6.79,6.79,0,0,0-.22-1.36c-.14-.62-.25-1.1-.33-1.45a1.63,1.63,0,0,0-.65-.94,2.45,2.45,0,0,0-1.63-.39,8.22,8.22,0,0,0-3.8,1.74,9.61,9.61,0,0,0-3.15,3.34,19.84,19.84,0,0,0-2.39,9.46,54.47,54.47,0,0,1-.33,8.22q-.54,4.36-1.63,10.16t-1.52,8.5c0,.43-.16,1.86-.43,4.23a49.3,49.3,0,0,1-2.61,12.13,19.25,19.25,0,0,0-1.19,4.3,39.79,39.79,0,0,0-.33,5.73v4.45c-.73,8-2,17.28-3.69,27.81-.88,5.41-4.78,9.92-11.52,12.95-9,4.05-17.53,6-24.77,6q-3.7.26-4.67-.37c-.65-.42-.83-1.73-.76-3.72.32-9.22.27-16.76.87-21.51a156.45,156.45,0,0,0,1.3-22.27c-.18-10.43,1.22-21.13,2-31.34a181.93,181.93,0,0,1,5-31.43q1.09-5.91.87-7.6a2.89,2.89,0,0,1,.65-2.55,10.57,10.57,0,0,1,3-1.83,14.36,14.36,0,0,0,2.61-1.07l2.61-1.28q11.08-5.07,17.17-1.51a47.24,47.24,0,0,0,6.08,2c3,.88,5.4,1.72,6.52,2.6.86.67,2.33.7,4.35-.36a86.37,86.37,0,0,1,16.73-6.24C1254.84,525.05,1259.7,525.9,1262.57,528.54Z" transform="translate(-280.77 -148.68)"/><path class="cls-1" d="M1288.43,625q-7.17-12.15-7.82-14.39c-1.74-5.27-2.21-11.93-1.52-19.88.89-10.21,1.79-20.54,3.26-30.69a123.48,123.48,0,0,1,5.65-21.86,34.43,34.43,0,0,1,5-9.76,61.25,61.25,0,0,1,6.08-7.48q2.61-2.61,8.26-7.7,9.56-8.28,16.73-8.4a2.46,2.46,0,0,1,1.41-.28c.36.07.65-.16.87-.72s.36-.9.43-1.06a8.43,8.43,0,0,0,.33-1.26,9.52,9.52,0,0,0,.22-1.24q.43-3.35,1.52-9.86t1.52-9.64c2.77-12.44,4.07-25.21,5.65-37.83q.65-3.6,5.21-15.68c3-8,5.16-12.39,6.3-13a8.27,8.27,0,0,0,2.39-2.63,8.34,8.34,0,0,1,2.39-2.62q7.17-4.39,13.47-1a17.15,17.15,0,0,0,5.21,1.23c4.35.52,6.93,1.66,7.82,3.17,1.06,1.8,3.1,2.51,4.56,2.9a3.56,3.56,0,0,1,2.17,3.1c.58,3.09,1.82,4.8,3.48,5.27,1.13.32,1.24,1.77.87,3.76-2.71,14.39-3.53,31.62-5.32,47.41-1.81,16-2.73,33.1-5.54,47.9a55.53,55.53,0,0,0-1.09,7.36q-.22,3.95-.22,6.56t.22,7.46q.22,4.85.22,6.59,0,4.13.11,18.45t-.33,18.31q0,1.3.43,11.66t-.22,11.56q-.65,5.76-2.06,6.88c-.94.74-3.08.54-6.41-.59q-5.43-1.85-5.21-8.18a9.27,9.27,0,0,1,.11-1.22,9.77,9.77,0,0,0,.11-1.32,4.49,4.49,0,0,0-.22-1.26,1.61,1.61,0,0,0-.87-1q-1.52.71-1.74,1.62a17.63,17.63,0,0,1-1.85,3.71q-1.19,1.85-2,3.08a19.37,19.37,0,0,1-2.82,3.24q-2.07,2-2.61,2.45t-3.15,2.88a25.41,25.41,0,0,1-2.83,2.49,24.16,24.16,0,0,1-6.84,4.36,32.42,32.42,0,0,1-7.28,2.18q-3.47.57-7.39,1.36a39.81,39.81,0,0,1-6.74.7q-3.7.1-6.08,0t-6.84-.33q-4.45-.27-6.19-.34Q1292.33,631.34,1288.43,625Zm5.65-62.26c-.4,9.36.43,16.06,2.17,19.75q7.6,17.51,10,20.72a5,5,0,0,0,2.82,1.81,106.73,106.73,0,0,0,6.52-24.15c2-14,3.53-28.74,6.74-42.86q1.08-5,3-21.9c.14-1.62-.08-2.63-.65-3s-1.67-.28-3.26.33a40.62,40.62,0,0,0-22.6,24.86A97,97,0,0,0,1294.08,562.75Z" transform="translate(-280.77 -148.68)"/><path class="cls-1" d="M1402.94,595.82c-.24-.8-.69-2.06-1.19-3.71s-.91-2.89-1.2-3.71c-1.3-5.43-2-14.21-1.52-25.82.82-21.2,3.21-43,9.34-63.67q1.3-4.12,2.17-5c.58-.6,2.14-1.15,4.56-1.49,7.37-1,13.25,1.5,17.17,7.15,2,3,3.23,7.32,3.48,12.74a89.14,89.14,0,0,1-1.52,20.87c-2.06,10.74-3,21.85-3.91,32.74-.31,3.78-.36,9.75-.87,17.08a39.71,39.71,0,0,0,.22,6.27c.31,3.11,1.09,4.76,2.39,4.86a4.9,4.9,0,0,0,1.09-.27,1.7,1.7,0,0,0,.76-.66,6.88,6.88,0,0,0,.54-.95L1435,591a4.37,4.37,0,0,1,.54-.95,66.52,66.52,0,0,0,5.65-14.95q.43-1.37,1.09-3.85c.44-1.66.72-2.93.87-3.82.72-2,1.55-3,2.17-3.13a1.39,1.39,0,0,1,1.52.44,9.22,9.22,0,0,1,1.3,2,6.54,6.54,0,0,1,.22,3.88,76,76,0,0,1-5.87,23.43,27.14,27.14,0,0,1-10.32,12.26,21,21,0,0,1-15,3.49q-7.93-1.15-12.06-9.37-.22-.4-.76-1.29a11.61,11.61,0,0,1-.87-1.7C1403.26,596.93,1403.1,596.35,1402.94,595.82ZM1429,478.51c-7.25-.65-10.87-4.77-11.08-12.21a99,99,0,0,1,1.52-16.75q.65-3.57,3.26-4a14.37,14.37,0,0,0,2-.52,14.19,14.19,0,0,1,2-.52q4.56-1.13,5.65-.52t2.83,5.56c.29.83.69,1.93,1.19,3.3s.83,2.27,1,2.68q1.74,10-5.22,21.19A3.07,3.07,0,0,1,1429,478.51Z" transform="translate(-280.77 -148.68)"/><path class="cls-1" d="M1539.39,483.9a24.72,24.72,0,0,1,6.3,14.26,131.2,131.2,0,0,1,.43,21.48A95.3,95.3,0,0,1,1544,533.5c-.75,3.35-1.88,9.36-3.48,17.89s-3,15.17-4.13,19.91a8.74,8.74,0,0,0-.11,3.81q.33,2.69-.76,3.65-.44.69,1.3,1.19c1.45,1.61,1.43,3.1.22,3.68-1.55.73-2.17,1.49-.87,2.68q3.69,3.37-.87,7.9a4.53,4.53,0,0,0-.54,1.46c-.22.81-.88,1-1.63.9a3.88,3.88,0,0,1-3-1.9,14.34,14.34,0,0,1-1.74-4c-.87-3.4-1.6-6.66-3-8.41s-1.45-4.21,0-7.39a5.9,5.9,0,0,0,.44-3.41,7.84,7.84,0,0,1,.22-3.39q-2.83-1.26-1.3-6.4a52.87,52.87,0,0,0,.76-9.2,74.07,74.07,0,0,1,.33-8.07,5.73,5.73,0,0,0,.22-2.19,7,7,0,0,1-1.52-3.77,22.69,22.69,0,0,1,.11-4.9,38.43,38.43,0,0,0,.33-4.05q0-1.52-.11-4.55t-.11-5.31a33,33,0,0,1,.22-4q-1.09-14.45-2.39-22.59a7.21,7.21,0,0,0-.22-1.39c-.14-.64-.25-1.14-.33-1.49a2,2,0,0,0-.65-1,2.73,2.73,0,0,0-1.63-.6,7.24,7.24,0,0,0-3.8,1.24,7.93,7.93,0,0,0-3.15,2.92,18.15,18.15,0,0,0-2.39,9.15A53.64,53.64,0,0,1,1510,510q-.54,4.29-1.63,9.95t-1.52,8.31c0,.43-.16,1.84-.43,4.17a45.45,45.45,0,0,1-2.61,11.79,17.43,17.43,0,0,0-1.19,4.15,38.89,38.89,0,0,0-.33,5.68v4.45c-.73,7.9-2,17-3.69,27.35-.88,5.3-4.8,9.32-11.52,11.52a59.89,59.89,0,0,1-24.77,3.09q-3.7-.16-4.67-.9c-.65-.49-.83-1.83-.76-3.81.33-9.22.27-16.73.87-21.41a153.3,153.3,0,0,0,1.3-22.12c-.18-10.36,1.22-21,2-31.12a172.71,172.71,0,0,1,5-30.86q1.09-5.79.87-7.5a2.67,2.67,0,0,1,.65-2.47,9.12,9.12,0,0,1,3-1.48,13,13,0,0,0,2.61-.76l2.61-1c7.39-2.51,13.11-2.3,17.17.56a54.56,54.56,0,0,0,6.08,2.8c3,1.26,5.39,2.39,6.52,3.42.87.79,2.33,1,4.35.2a76,76,0,0,1,16.73-4C1531.67,479.34,1536.5,480.84,1539.39,483.9Z" transform="translate(-280.77 -148.68)"/><path class="cls-1" d="M1653,503.3c.29,0,.6,1.27.44,3.26-.13,1.61-.69,4.42-1.2,8s-1.05,6.78-1.63,9.45-1.23,5.19-2,7.5-1.85,9.6-3.26,21.75c-1,9-2.54,16.31-4.56,22-.43,1.31-.28,2.13.44,2.39a2.47,2.47,0,0,1,1.63,1.29,4.61,4.61,0,0,1,.11,2.28,15.94,15.94,0,0,0-.22,1.85,3.65,3.65,0,0,1-.44,2.72c-.43.51-1.23.48-2.39-.09a.93.93,0,0,0-.76.55,3.52,3.52,0,0,0-.43,1.31,2.72,2.72,0,0,0,.33,1.63c1.3,3.32,1.18,5.95,0,7.82-1,1.65-1.77,4.48-2.28,8.18a49.84,49.84,0,0,1-1.41,7.52q-2.83,7.86-6.74,23.58t-6.08,22.51c-3,9.28-9.17,19-14.78,26.52s-8.77,12.43-9.78,13.64c-2.9,3-6.18,4.24-9.56,3.48a8,8,0,0,0-7.61,1.92c-3.33,3.08-7,4.05-10.65,2.8-4.44-1.51-8.08-2.95-10.76-4.06a63.12,63.12,0,0,1-9.34-5.07,49.46,49.46,0,0,1-9.45-7.61,9.88,9.88,0,0,1-2.39-8.92,107.31,107.31,0,0,1,2.61-11.3q1.74-5.8,4.13-13.27t3.48-10.81c5.74-15.54,12.46-29.65,23.69-42.07,9.27-10.25,14.81-16,16.51-17.43a11.53,11.53,0,0,0,3.69-7.13c.58-3.27.8-5.75.22-6.31a4.31,4.31,0,0,0-1.63-.9c-.22-.06-.76.18-1.63.73a6.8,6.8,0,0,1-1.52.84c-4.93,1.84-10.3.91-16.08-2.58-8.13-4.9-14.16-16.72-15.86-25.66q-.43-2.36-.87-6.67c-2.33-9.08-1.45-21.61,3-30,7.14-13.76,14.29-28,25.64-38.32,7.49-6.81,15.75-10.27,23.25-9.95a31.47,31.47,0,0,1,18,6.42q3.26,3.19,5.43,3.37c12,3.68,18,16.49,20.42,27.82q0,.44-.11,1.41c-.07.65-.15,1.23-.22,1.74a1.36,1.36,0,0,0,.54,1.3A3,3,0,0,0,1653,503.3Zm-85.61,176.47c4.78-4.51,9.1-13.08,12.39-25.41,2.95-11,5.65-22.38,6.74-33.93l1.52-15.29q-1.74,1.82-4.45,5.23t-9.89,12.4a153,153,0,0,0-12.17,17.52q-5,8.49-9.45,17.63t-3.8,15.72a9.89,9.89,0,0,0,7,8.93,11.05,11.05,0,0,0,9.56-1.1,1.22,1.22,0,0,0,.87.16l.87-.06Q1567,681.53,1567.42,679.76Zm41.94-196.34a12,12,0,0,0-.33-6c-.65-2.66-1.42-4.39-2.28-5s-3.12-.25-6.3,1.33a11.18,11.18,0,0,0-1.09.7l-.87.47c-8,5.41-14.2,10.74-18.69,15.91-9.67,13.63-16.86,27.25-14.34,44.34a100.23,100.23,0,0,0,6.74,24.56q1.74,4,3.48,4.46t4.78-2.12a14,14,0,0,0,3-3.43c5.79-8.28,9.05-13.13,9.78-14.61q.43-.89,2-3.46t2.17-3.9q.65-1.33,1.63-3.66a35.08,35.08,0,0,0,1.52-4.3,25.32,25.32,0,0,0,.76-4.16,192.33,192.33,0,0,1,3.91-24.49q.65-3.28,2.17-9.21C1608.41,486.93,1609.05,484.42,1609.36,483.42Z" transform="translate(-280.77 -148.68)"/><path class="cls-1" d="M1399.92,945.68a3.34,3.34,0,0,1-.94-2.28,4.9,4.9,0,0,1,.59-2.52,10.67,10.67,0,0,0,1.23-4.92q.47-7.68,1.82-16.52,2.17-13.06,3.28-18a31.08,31.08,0,0,1,1.93-6.74,3.22,3.22,0,0,1,.67-1.05,2,2,0,0,1,1.09.12,1.92,1.92,0,0,0,1.41-.23,10.16,10.16,0,0,1,4.92-.82,7.66,7.66,0,0,1,4.81,2.11,2.78,2.78,0,0,1,1.29,3q-.17.76-.88,4.39a36.32,36.32,0,0,1-1.41,5.51,4,4,0,0,1-.29.59,2.75,2.75,0,0,0-.29.64q-.47.94.53,1.05a17.39,17.39,0,0,1,2.87.35,15.57,15.57,0,0,1,7.32,4.39,19.87,19.87,0,0,1,4.51,7.68,16.39,16.39,0,0,1,.7,7.32,12.08,12.08,0,0,1-5,7.79l-.62.5-.7.59-.62.5a12.18,12.18,0,0,1-7.5,2.93h-.47a11.35,11.35,0,0,0-1.17-.18,5.15,5.15,0,0,0-1.23,0l-1.09.15a7.1,7.1,0,0,0-1.17.29c-.49.16-.82.27-1,.35l-1.11.47-1,.41-1.43.79a5.61,5.61,0,0,1-2.14.79l-.53.35q-1.88,2-5.1.94l-.59-.23-.64-.23a1.49,1.49,0,0,0-.56,0,1.52,1.52,0,0,0-.67.2Q1400.45,946.21,1399.92,945.68Zm23.26-32a8.94,8.94,0,0,0-7.38.23,22.65,22.65,0,0,0-2.11,1.41,9.34,9.34,0,0,1-2.7,1.46c-.43.12-.64.61-.64,1.46a47.56,47.56,0,0,0-.23,4.8,55.31,55.31,0,0,1-.47,8.85,19.86,19.86,0,0,0,2.64-1.46q5.21-3,7.26-5.74,2.29-3,2.7-3.69a15.3,15.3,0,0,0,2.11-5.21,2.36,2.36,0,0,0-.15-1.44A1.73,1.73,0,0,0,1423.18,913.69Zm-10.72-18.4a2.48,2.48,0,0,0-1,.76,2.31,2.31,0,0,0-.14,1.23q0,.65-.12,4-.12.82-.23,2.7a.53.53,0,0,1,.23.06l.23.12a58.75,58.75,0,0,1,5.39-5.27,5.89,5.89,0,0,0,1.46-2.05q.53-1.35-.7-1.7Q1414.1,894.53,1412.46,895.29Z" transform="translate(-280.77 -148.68)"/><path class="cls-1" d="M1462.91,887.67q4.39,2.46,3,8.09-.7,2.63-2.05,9a8.44,8.44,0,0,0-.23,2.05,32.13,32.13,0,0,1-3.22,14.88,57,57,0,0,0-3.46,8.38,23.59,23.59,0,0,1-1.17,2.9,23.18,23.18,0,0,0-1.17,2.9q-1.23,3.87-2.46,7.32-.88,2.64-2.87,1c-.39-.27-.64-.39-.76-.35a3.18,3.18,0,0,1-2-.06,3.4,3.4,0,0,0-1.93-.12h-.18q-.59-.35-2.67-1.29a10.37,10.37,0,0,1-3-1.87,4.09,4.09,0,0,1-.94-4.16,123.56,123.56,0,0,1,4.51-13.77q.94-2.29,2.58-6.56t2-5.1a4.64,4.64,0,0,0-.06-3.75,38.52,38.52,0,0,1-2.05-6.15q-.41-1.52-1.32-4.39t-1.26-4.22c-.16-.55-.41-1.62-.76-3.22a1.18,1.18,0,0,1,0-.76c.19-.19.47-.19.82,0a5,5,0,0,1,2.11,2.11,8.24,8.24,0,0,1,.88,2.46,28.38,28.38,0,0,0,2.81,7.56,11.46,11.46,0,0,1,.67,1.93,7.76,7.76,0,0,0,1,2.34q1.58-2.93,1.7-3.16a23.89,23.89,0,0,1,2.4-4.34,52.92,52.92,0,0,0,2.75-4.69q1.7-3.16,1.93-3.57,1.29-2.11,1.85-2.28T1462.91,887.67Z" transform="translate(-280.77 -148.68)"/><path class="cls-1" d="M1474.69,923.41h-.12a2,2,0,0,1-.7.29.23.23,0,0,1-.18.06.92.92,0,0,1-.88.18,3.55,3.55,0,0,1-.82-.41l-.29-.29a1.67,1.67,0,0,1-.12-.35,2,2,0,0,0-.12-.35l-.15-.18-.15-.18-.18-.35q0-.17,0-.47a4.54,4.54,0,0,1,0-.47,4.78,4.78,0,0,1,.12-.88,6.15,6.15,0,0,1,.53-1.7,4.09,4.09,0,0,1,.23-.38,4.27,4.27,0,0,0,.23-.38.63.63,0,0,1,.47-.18.23.23,0,0,0,.23-.18c.15-.39.37-.6.64-.64h.47a6.15,6.15,0,0,1,.76.23,1,1,0,0,1,.41.12.79.79,0,0,0,.59.23c.15,0,.23.06.23.18s.18.28.29.5.22.38.29.5a.34.34,0,0,1,.06.23,2.15,2.15,0,0,1,.06.82c0,.16-.09.38-.14.67a6.31,6.31,0,0,1-.15.62v.18a1.67,1.67,0,0,0-.12.35c0,.16-.08.29-.12.41l-.12.35A5.53,5.53,0,0,1,1475,923s0,.1-.12.18-.12.14-.12.18A.17.17,0,0,0,1474.69,923.41Zm0,16.41h-.12a2.05,2.05,0,0,1-.7.29.24.24,0,0,1-.18.06.92.92,0,0,1-.88.18,3.6,3.6,0,0,1-.82-.41l-.29-.29a1.72,1.72,0,0,1-.12-.35,1.93,1.93,0,0,0-.12-.35l-.15-.18-.15-.18-.18-.35q0-.18,0-.47a4.57,4.57,0,0,1,0-.47,4.77,4.77,0,0,1,.12-.88,6.17,6.17,0,0,1,.53-1.7,4.13,4.13,0,0,1,.23-.38c.12-.18.19-.3.23-.38a.63.63,0,0,1,.47-.18.23.23,0,0,0,.23-.18c.15-.39.37-.61.64-.64h.47a5.84,5.84,0,0,1,.76.23.94.94,0,0,1,.41.12.79.79,0,0,0,.59.23c.15,0,.23.06.23.18s.18.28.29.5.22.38.29.5a.35.35,0,0,1,.06.23,2.15,2.15,0,0,1,.06.82c0,.16-.09.38-.14.68a6.23,6.23,0,0,1-.15.61v.18a1.7,1.7,0,0,0-.12.35c0,.15-.08.29-.12.41l-.12.35a5.66,5.66,0,0,1-.88,1.05s0,.1-.12.18-.12.14-.12.18A.16.16,0,0,0,1474.69,939.82Z" transform="translate(-280.77 -148.68)"/><path class="cls-1" d="M1552.79,892.65a3.53,3.53,0,0,1,2.11,2.29,5.18,5.18,0,0,1-.06,3.52q-1.88,5.57-5.39,17.87-2.23,8.09-4,13.3a7,7,0,0,0-.41,1.64,14.53,14.53,0,0,1-.68,2.4q-.44,1.17-1.23,2.87c-.53,1.13-.87,1.87-1,2.23a6.17,6.17,0,0,1-1.7,2q-4.16,3.63-7.68,3.93a7.86,7.86,0,0,1-6.62-2.7,2.44,2.44,0,0,1-.64-1.52q-.53-5.86-.47-7.56.11-2.29.32-7t.32-7q.06-1.52-.12-4.45t-.18-4.22a48.16,48.16,0,0,1-1.46,5.66q-1.11,3.6-1.41,4.77t-1,3.4q-.68,2.17-1.17,4a28.79,28.79,0,0,0-.73,3.55,12.1,12.1,0,0,1-.47,1.46,12.33,12.33,0,0,0-.88,4.92,4.14,4.14,0,0,1-.44,2.23,4.53,4.53,0,0,1-1.9,1.29,27.71,27.71,0,0,1-4.51,1.52q-5.86.94-7-5.21a118.16,118.16,0,0,1-2.23-16.23q-.35-17.23-.35-17.29,0-1.23.18-3.87t.18-3.87q0-1.23-.23-3.87-.18-1.17.94-1.29a4.32,4.32,0,0,1,1.17.06,11,11,0,0,1,6.91,4.75,20,20,0,0,1,3.34,9.73q.17,2.05.56,6.15t.56,6.15q.18,1.11.18,1.17a26,26,0,0,1,1.11,6.44A3.89,3.89,0,0,0,1517,927q.17-.53.79-1.85a11.31,11.31,0,0,0,.79-2.08q.47-1.76,1.87-5.89a55,55,0,0,0,1.87-6.47,37,37,0,0,1,1.64-5.19,43.32,43.32,0,0,0,1.7-5.24q.29-1.46,2.17-1.52a1.78,1.78,0,0,1,1.2.23,2.85,2.85,0,0,1,.73,1.23,16.32,16.32,0,0,1,.53,4.16,37.75,37.75,0,0,1-.12,3.87q-.18,2.58-.18,3.87.06,2.23.23,13.42a1.14,1.14,0,0,0,.23.82c.35,0,.57-.39.64-1.05q.64-5.74,2-12.66a59.59,59.59,0,0,1,2.4-9.14q.53-1.64,1.41-4.69t1.17-3.93a4.39,4.39,0,0,1,1.11-2.17l.21-.21a.41.41,0,0,0,.15-.26,5.13,5.13,0,0,1,1.11-2.64,8,8,0,0,1,6.27.53,14.76,14.76,0,0,0,2.17.7,7.5,7.5,0,0,1,1,.41Q1552.2,892.42,1552.79,892.65Z" transform="translate(-280.77 -148.68)"/><path class="cls-1" d="M1553.31,940.47q-.12-.35-.32-1.05t-.32-1.05a30.73,30.73,0,0,1-.41-7,65.12,65.12,0,0,1,2.52-16.76,3.54,3.54,0,0,1,.59-1.26,2.24,2.24,0,0,1,1.23-.2,5.4,5.4,0,0,1,4.63,2.64,7.61,7.61,0,0,1,.94,3.57,23.22,23.22,0,0,1-.41,5.57,81.76,81.76,0,0,0-1.05,8.67q-.12,1.52-.23,4.57a8.74,8.74,0,0,0,.06,1.7q.11,1.29.64,1.41a1.26,1.26,0,0,0,.29,0,.38.38,0,0,0,.21-.15,1.56,1.56,0,0,0,.14-.23l.15-.29a.93.93,0,0,1,.15-.23,15.49,15.49,0,0,0,1.52-3.81q.12-.35.29-1t.23-1q.29-.76.59-.76a.38.38,0,0,1,.41.18,4,4,0,0,1,.35.59,1.92,1.92,0,0,1,.06,1.05,18.57,18.57,0,0,1-1.58,6.09,5.91,5.91,0,0,1-2.78,2.9,5.27,5.27,0,0,1-7.3-2.72l-.2-.38a3.7,3.7,0,0,1-.23-.5A4,4,0,0,1,1553.31,940.47Zm7-30.53a3.56,3.56,0,0,1-3-3.75,24.51,24.51,0,0,1,.41-4.45q.17-.94.88-.94a3.68,3.68,0,0,0,.53-.06,3.67,3.67,0,0,1,.53-.06,2.88,2.88,0,0,1,1.52.09,4.07,4.07,0,0,1,.76,1.61c.08.23.19.55.32.94l.26.76a7.38,7.38,0,0,1-1.41,5.51A.71.71,0,0,1,1560.35,909.94Z" transform="translate(-280.77 -148.68)"/><path class="cls-1" d="M1592.81,928.45a18.31,18.31,0,0,1,3.22,6.86,1.9,1.9,0,0,1-1.05,2.34c-.59.27-.94.43-1.05.47-.47,0-1.11.12-1.93.23s-1.56.21-2.23.26a12.92,12.92,0,0,1-1.93,0,5.31,5.31,0,0,1-4.45-3,31.46,31.46,0,0,1-1.7-4,7.77,7.77,0,0,0-1.29-2.17,3.08,3.08,0,0,0-.59,1.76,59.2,59.2,0,0,0-.76,9.37,4.19,4.19,0,0,1-.18,1.41,1.05,1.05,0,0,1-1.05,1.05q-.64.06-2.11.32a13.61,13.61,0,0,1-2.11.26,16.4,16.4,0,0,1-2.17-.23,1,1,0,0,0-.32-.09l-.32,0a7,7,0,0,1-2.52-1.52,4.14,4.14,0,0,1-.12-2.58q.82-6.09,1.17-11.42.58-7.5,1.58-13,2.46-14.06,3.22-17.23l1.76-7.21c.15-.55.32-.87.5-1a1.87,1.87,0,0,1,1.14.09,5.08,5.08,0,0,1,3,2.23,10.48,10.48,0,0,1,1.76,5,54.6,54.6,0,0,1,.12,7.09,5.07,5.07,0,0,0,.09,1.35,10.6,10.6,0,0,1,.15,1.05,47.61,47.61,0,0,1-.41,11,2.62,2.62,0,0,0,.12,1q.58-.53,2.08-1.7t2.49-2.05q1-.88,1.87-1.82t1.29-1.23c.47-.47.82-.62,1.05-.47s.43.62.23,1.17a9.37,9.37,0,0,1-2.7,4.16q-.88.88-2.52,2.43t-2,1.85a.54.54,0,0,0,.35.59Q1588.47,923.06,1592.81,928.45Z" transform="translate(-280.77 -148.68)"/><path class="cls-1" d="M1599.6,940.47q-.12-.35-.32-1.05t-.32-1.05a30.73,30.73,0,0,1-.41-7,65.12,65.12,0,0,1,2.52-16.76,3.54,3.54,0,0,1,.59-1.26,2.24,2.24,0,0,1,1.23-.2,5.4,5.4,0,0,1,4.63,2.64,7.61,7.61,0,0,1,.94,3.57,23.22,23.22,0,0,1-.41,5.57,81.76,81.76,0,0,0-1.05,8.67q-.12,1.52-.23,4.57a8.74,8.74,0,0,0,.06,1.7q.11,1.29.64,1.41a1.26,1.26,0,0,0,.29,0,.38.38,0,0,0,.21-.15,1.56,1.56,0,0,0,.14-.23l.15-.29a.93.93,0,0,1,.15-.23,15.49,15.49,0,0,0,1.52-3.81q.12-.35.29-1t.23-1q.29-.76.59-.76a.38.38,0,0,1,.41.18,4,4,0,0,1,.35.59,1.92,1.92,0,0,1,.06,1.05,18.57,18.57,0,0,1-1.58,6.09,5.91,5.91,0,0,1-2.78,2.9,5.27,5.27,0,0,1-7.3-2.72l-.2-.38a3.7,3.7,0,0,1-.23-.5A4,4,0,0,1,1599.6,940.47Zm7-30.53a3.56,3.56,0,0,1-3-3.75,24.51,24.51,0,0,1,.41-4.45q.17-.94.88-.94a3.68,3.68,0,0,0,.53-.06,3.67,3.67,0,0,1,.53-.06,2.88,2.88,0,0,1,1.52.09,4.07,4.07,0,0,1,.76,1.61c.08.23.19.55.32.94l.26.76a7.38,7.38,0,0,1-1.41,5.51A.71.71,0,0,1,1606.63,909.94Z" transform="translate(-280.77 -148.68)"/><path class="cls-1" d="M1641.44,907.6q.06.65.29,3t.29,3.63q.06,1.17.06,2.52t0,3c0,1.09,0,1.93,0,2.52a30.5,30.5,0,0,1-.53,5,133.26,133.26,0,0,0-2.05,17.23,5.4,5.4,0,0,1-.76,2.7,1.78,1.78,0,0,1-1.76.82,7.89,7.89,0,0,1-2.87-.64,1.24,1.24,0,0,0-.76-.18l-1.35.09a3.56,3.56,0,0,1-1.26-.23,12,12,0,0,1-1.23-.47l-1.23-.59-1.2-.56q-1.58-.64-1.46-2.93.88-16.7,1.93-22.62a.83.83,0,0,1,0-.18.73.73,0,0,0,0-.18,4.69,4.69,0,0,0,.09-2.11q-.21-.53-1.85-.59-3.63,0-4,.06a5.1,5.1,0,0,1-2.87-.23q-.82-.23-1,0a2.24,2.24,0,0,0-.26,1.2q0,3.16.06,4.69a66.46,66.46,0,0,1-.47,10.78c0,.39-.09,1-.15,1.82s-.14,1.54-.23,2.17a9.72,9.72,0,0,1-.44,1.76,1.75,1.75,0,0,0-.12.44,2.9,2.9,0,0,1-.12.47,1,1,0,0,1-.23.32.88.88,0,0,1-.41.23c-.27.08-.54-.08-.79-.47a2.81,2.81,0,0,1-.44-1.35q-.06-1.52-.06-4.69.18-5.92,1.7-20.51a12.71,12.71,0,0,0,.18-2.11q0-1.82.12-5.51t.06-5.51q0-1.29.14-2.75t.38-3.22q.23-1.76.35-2.75l.18-.53a1.43,1.43,0,0,1,.14-.38.2.2,0,0,1,.27-.09.53.53,0,0,1,.35.35,17.24,17.24,0,0,1,.53,7.32,9.74,9.74,0,0,0-.32,1.79c-.06.64-.09,1.19-.09,1.64s0,1.08,0,1.87,0,1.38,0,1.73q0,3.81-.12,4.86V912a1.75,1.75,0,0,0,.26,1.05.87.87,0,0,0,.85.29,30.16,30.16,0,0,1,4.42.12q2.84.23,3.6.23c.43,0,.71-.07.85-.32a3,3,0,0,0,.27-1.14,84.31,84.31,0,0,1,1.23-11.07q.47-2.7.76-4a26.25,26.25,0,0,0,1.05-6.74,7.06,7.06,0,0,0,3,.18,5.76,5.76,0,0,1,2.58.12,3.15,3.15,0,0,1,2,1.7,13.2,13.2,0,0,1,1.17,3.46,38.25,38.25,0,0,1,.64,3.78q.17,1.61.38,4.42T1641.44,907.6Z" transform="translate(-280.77 -148.68)"/><path class="cls-1" d="M1673.72,933.44a7.15,7.15,0,0,1-.06,1.05,17,17,0,0,1-3.75,7.68,12.69,12.69,0,0,1-9.26,3.75,14,14,0,0,1-7-1.58q-.41-.17-1.17-.44c-.51-.18-1-.35-1.38-.53a5.25,5.25,0,0,1-1.08-.62,11.87,11.87,0,0,1-4.63-5.86q-2.23-6,.64-13.36a18.32,18.32,0,0,1,6.27-8,8.61,8.61,0,0,1,1.17-.76q.64-.35,1.46-.73t1.23-.62a.75.75,0,0,1,.29-.12.69.69,0,0,0,.29-.12,3.5,3.5,0,0,1,2.05-.91,4.9,4.9,0,0,1,1.84.15,18.25,18.25,0,0,1,2.08.88,21.94,21.94,0,0,0,3.69,1.46,16.39,16.39,0,0,1,2.58,1.17q1.64.88,1.93,1,.88.47-.18.64c-.31,0-.37.14-.18.41,0,.08.13.3.26.68a1.76,1.76,0,0,0,.5.79,2.25,2.25,0,0,1,.76,1.29,17.19,17.19,0,0,0,.67,2.67,5.93,5.93,0,0,1,.26,3.25v.29a6.08,6.08,0,0,1,.59,2.14,11.75,11.75,0,0,1,0,2.17A11.9,11.9,0,0,0,1673.72,933.44Zm-11.66-4.34a13.3,13.3,0,0,0,.29-5.39,5.34,5.34,0,0,0-1.64-2.93,37.13,37.13,0,0,1-2.75-3,1.67,1.67,0,0,0-.88-.79,1.37,1.37,0,0,0-1.05.44,14.36,14.36,0,0,1-1.2.85c-.57.37-1,.67-1.32.91s-.68.54-1.11.91a7.81,7.81,0,0,0-1.05,1.08,12.26,12.26,0,0,0-2.52,4.22,36.82,36.82,0,0,0-.82,5.21q-.29,5.33,3.63,7.91a4,4,0,0,0,1.82.73,4.14,4.14,0,0,0,1.87-.56,7.51,7.51,0,0,0,1.17-.76A19.1,19.1,0,0,0,1662.06,929.1Z" transform="translate(-280.77 -148.68)"/><path class="cls-1" d="M1712.69,912.22a5.77,5.77,0,0,1,2.11,2.64q.64,1.23-.76,3.93-.47.88-1.35,2.93a30.74,30.74,0,0,1-1.52,3.16,49,49,0,0,0-4.69,13,7.55,7.55,0,0,1-4.63,5.39,17.19,17.19,0,0,1-7.79.82,2.44,2.44,0,0,1-.85-.26,8.9,8.9,0,0,1-.88-.56l-.73-.53q-.7-.47.23-1.52a2.08,2.08,0,0,0,.59-2.17,49.08,49.08,0,0,1-.29-7.09v-3.22q-.18.41-1.14,2.23a15.35,15.35,0,0,0-1.26,2.87,52.93,52.93,0,0,1-2.7,6.85,5.09,5.09,0,0,0-.47,2.34,1.72,1.72,0,0,1-.15,1.05,4,4,0,0,1-1.08.82,6.78,6.78,0,0,1-5,.82q-1.11-.23-1.29-1.87-.35-3.57-1.05-10.84t-1.05-10.84q-.12-1.64-.12-2.58a53.48,53.48,0,0,0-.64-6.62,3.13,3.13,0,0,1,0-1.7q.21-.29,1.5-.47a2.12,2.12,0,0,1,1.52.23,7.81,7.81,0,0,1,3.11,2.93,11.44,11.44,0,0,0,.79,1.14q.56.73.73,1a10.55,10.55,0,0,1,1.05,6q-.12,2.81.29,10.08,0,.12.21,1.2a6.08,6.08,0,0,1,.14,1.61.36.36,0,0,0,.41.41,17.83,17.83,0,0,0,1.58-2.64q.94-1.82,1.05-2,1.46-2.52,3.52-6.74a10.27,10.27,0,0,0,.88-2.34,3,3,0,0,1,1.32-1.55,2.05,2.05,0,0,1,1.73-.5q.59.23.47,1.23,0,1.29-.23,3.75a22.21,22.21,0,0,1-.2,2.23,14.09,14.09,0,0,0-.15,2.52q0,.88.29.88t.76-.82q1.29-2.87,3.16-7.79a27.36,27.36,0,0,1,1.35-3,7.85,7.85,0,0,0,.76-2,8.62,8.62,0,0,1,1.64-3.28q.7-.7.41-1.29-.23-.94.53-.94a3.47,3.47,0,0,0,2.23-.94c.66-.55,1.15-.53,1.46.06a2.9,2.9,0,0,0,2,1.11A12.18,12.18,0,0,1,1712.69,912.22Z" transform="translate(-280.77 -148.68)"/></g><g id="Layer_2" data-name="Layer 2"><path class="cls-1" d="M619,552a3.54,3.54,0,0,0,1.66,3.84,3,3,0,0,0,2.12.38,2.4,2.4,0,0,0,1.4-1.77,4.94,4.94,0,0,0-3.42-6.09c-1.88-.45-2.68,2.44-.8,2.89A1.86,1.86,0,0,1,621,554l1.3-.74c-.23,0-.55-.19-.49-.48.38-1.88-2.51-2.69-2.89-.8Z" transform="translate(-280.77 -148.68)"/><path class="cls-1" d="M651.09,511.57c-4.28-1.27-8.11.77-10.76,4.14a73.1,73.1,0,0,0-4.24,6.48c-1.25,2-2.8,4-3.48,6.3-1,3.41.42,7.27,4.33,7.67a6.48,6.48,0,0,0,4.78-1.82c1.78-1.61,2.18-4.72,4.14-6,3.25-2.07.24-7.26-3-5.18a10.07,10.07,0,0,0-3.6,4,7.48,7.48,0,0,0-.95,2.57c-.25,1.82.87-1.2,1.16-1.68,1.84-3,5.67-12.06,10-10.76,3.71,1.1,5.29-4.69,1.6-5.79Z" transform="translate(-280.77 -148.68)"/><path class="cls-1" d="M629.18,544.68l.26-.06-.8.11a2.21,2.21,0,0,1,.53,0l-.8-.11.26.06q-.75-.35-.34-.14l.23.14q-.6-.49-.35-.25c.47.42-.35-.57-.09-.13q.21.41-.14-.35a1.77,1.77,0,0,1,.06.26l-.11-.8a2.1,2.1,0,0,1,0,.54l4.51-2.59-2.58-1.61a3,3,0,0,0-4.1,1.08,3.06,3.06,0,0,0,1.08,4.1l2.58,1.61a3,3,0,0,0,3,0,3.16,3.16,0,0,0,1.49-2.59,4.75,4.75,0,0,0-1.64-3.89,5.06,5.06,0,0,0-4.69-1.16,3,3,0,0,0,1.6,5.79Z" transform="translate(-280.77 -148.68)"/><path class="cls-1" d="M645.9,547.9a4.77,4.77,0,0,0,1.12-4.31,4.49,4.49,0,0,0-7.46-2.26,4.51,4.51,0,0,0-1.17,1.69,4.88,4.88,0,0,0-.24,2.77,3,3,0,0,0,1.38,1.79,3,3,0,0,0,4.1-1.08,3.5,3.5,0,0,0,.3-2.31,2.73,2.73,0,0,1,0,1c.08-.38-.14.27-.16.32.19-.38-.23.27-.23.26a.93.93,0,0,1,.2-.2s-.64.42-.26.23c-.06,0-.7.23-.32.16,0,0-.79.05-.38.07l-.52-.06q-.74-.35-.43-.18c.27.18-.54-.48-.31-.25s-.42-.6-.24-.32c.07.11.2.4,0-.08s-.07-.19-.05-.06c.07.35-.09-.78-.06-.43,0,.13,0,.47,0-.09s-.14.18.11-.4q.18-.39.07-.19t.28-.36a3.19,3.19,0,0,0-.88,2.12,3,3,0,0,0,5.12,2.12Z" transform="translate(-280.77 -148.68)"/><path class="cls-1" d="M638.79,507c-2,1.28-7.46,5.07-10,4.14l2.1,2.1c-.2-.47,7.94-3.37,9.09-4a16,16,0,0,0,6.22-6.55c2.07-4.44-.88-7.58-5.43-7.49-6.51.12-11.17,5.51-16,9.14a58.08,58.08,0,0,1-9.7,5.91c-2.46,1.19-9.08,5-11.75,3.88l2.1,2.1c-.58-2.85,16.32-6,18.39-6.78,7.3-2.8,13.88-7.7,20.47-11.82l-4.1-4.1a44.27,44.27,0,0,1-10.68,10.2c-1.92,1.31-2,5,.72,5.48a51.57,51.57,0,0,0,18.21,0c3.8-.66,2.19-6.44-1.6-5.79a42.72,42.72,0,0,1-15,0l.72,5.48a53,53,0,0,0,12.83-12.35c1.83-2.46-1.69-5.61-4.1-4.1-6.56,4.1-13.21,9.25-20.59,11.77-5.45,1.87-11.52,2.1-16.45,5.36-2.9,1.91-7.48,7-3.2,10,3.87,2.73,12-1.82,15.62-3.49,6.26-2.86,11.42-6.86,16.76-11.12a19.67,19.67,0,0,1,5.27-3.36c3.5-1.22,1.45-.24.08,1-2.77,2.59-6.53,2.8-9.72,4.59s-6.57,6.5-2.56,9.4,12-2.38,15.32-4.45.26-7.23-3-5.18Z" transform="translate(-280.77 -148.68)"/><path class="cls-1" d="M369.9,540.69c-10.53,6.67-22.66,11.92-35.34,9.31l.72,5.48a83.23,83.23,0,0,1,39.65-13.82l-.8-5.89c-12.93,2.87-25.86,6-37.31,12.89-1.83,1.11-2.06,4.13,0,5.18,4.85,2.46,9.69,1.91,14.72.22,6.92-2.32,13.7-5.17,20.53-7.76l-3.39-4.41c-2.85,4.25-8.5,4.87-13.19,5.21a135.37,135.37,0,0,1-17.4.07l.8,5.89L358.94,547c5.56-1.68,11.11-3.11,15.23-7.46,2.42-2.55,4.31-6.6.78-9.16-1.4-1-3.25-1.05-4.9-1.06a70.92,70.92,0,0,1-11.08-.48l.72,5.48c5.85-4.48,16.79,1.87,20.12-7.49,2.34-6.58-4.78-10.14-10-11.15l.72,5.48,3-.53c3.78.67,5.4-5.11,1.6-5.79a10.68,10.68,0,0,0-7.64,1.13c-2.19,1.16-1.82,5,.72,5.48,1.36.26,4.95.66,5.58,2.1,1.71,3.88-5,3.2-6.78,3.2-3.84,0-7.15-.06-10.33,2.38-1.76,1.35-2.15,5,.72,5.48,3.45.54,7.69,0,11,.79,1.72.43,2.48-1,.44,1-1.86,1.86-4.52,2.66-7,3.44-8.15,2.59-16.37,5-24.55,7.44a3,3,0,0,0,.8,5.89c11.1.62,28.58,2.44,35.76-8.26,1.39-2.08-1-5.33-3.39-4.41l-15.59,5.93c-4.55,1.73-10.26,4.63-15,2.21v5.18c11-6.64,23.46-9.52,35.88-12.28,3.25-.72,2.6-6.16-.8-5.89a89.43,89.43,0,0,0-42.68,14.64c-2,1.32-2,4.93.72,5.48,14.32,2.94,28-2.32,40-9.92,3.25-2.06.25-7.26-3-5.18Z" transform="translate(-280.77 -148.68)"/><path class="cls-1" d="M319.51,566.08c.31.06.55.25-.11-.1.35.19-.16-.13-.22-.19.39.37-.32-.6-.06-.11s-.13-.55-.06-.2a1.66,1.66,0,0,0,.1.39q-.08-.76-.07-.4t0-.16c.11-.59-.05,0,0,.07q.31-.66.13-.36t.22-.29l.36-.26q-.31.18.08,0c.54-.15,0-.06-.09,0,.11-.08.79-.08.24-.08-.37,0,.74.14.24,0s.65.3.12,0,.39.37.17.13.38.66.13.17c.15.29.19.61.1.11a3,3,0,0,0-3.69-2.1,3.08,3.08,0,0,0-2.1,3.69c.74,3.81,6,5.2,8.68,2.53s1.25-8-2.57-8.66a3.07,3.07,0,0,0-3.69,2.1c-.33,1.47.44,3.39,2.1,3.69Z" transform="translate(-280.77 -148.68)"/><path class="cls-1" d="M322.3,551.87q.22-.39-.26.31-.7.48-.31.27l-.72.3a1.61,1.61,0,0,1,.35-.1l-.8.11h.24l-.8-.11a1,1,0,0,1,.23.06l-.72-.3.11.05-1.38-1.79a1.49,1.49,0,0,1,.09.34l-.11-.8a1.18,1.18,0,0,1,0,.24l.11-.8a1.89,1.89,0,0,1-.08.35l.3-.72c-.13.29-.3.35.22-.2-.32.34.66-.42.23-.18l.72-.3-.23.08a3,3,0,0,0,1.6,5.79,4.32,4.32,0,0,0,3-5.33c-.93-3.21-5.54-2.95-6.94-.29a3,3,0,1,0,5.18,3Z" transform="translate(-280.77 -148.68)"/><path class="cls-1" d="M431,550.28c-9.84,10.9-24.29,18.23-28.18,33.42a3,3,0,0,0,3.69,3.69c5.22-1.58,8-5.68,10.71-10.15a78.68,78.68,0,0,1,13.6-16.84l-5.12-2.12c-.28,7-11.37,11.47-10,18.33a5.18,5.18,0,0,0,5.57,3.88c3.22-.28,5.51-3.32,7.41-5.6,1.32-1.58,2.58-3.21,3.77-4.89s2.35-4.9,3.85-6.09q.58-2.34,2.78-.61a13.82,13.82,0,0,1-2,3.51c-1.11,1.69-2.44,3.26-3.67,4.86-4.7,6.12-8.78,12.11-9.67,19.94a3,3,0,0,0,1.49,2.59c6.51,4,12.32-7.38,15.23-11.58A157.71,157.71,0,0,0,454.73,557c1.56-3.5-3.61-6.55-5.18-3a159.78,159.78,0,0,1-9.47,18.11c-1.06,1.73-11.17,17.31-11.87,16.87l1.49,2.59c1-9,8.27-15.25,13-22.44,3-4.56,3.64-14-4.16-14.1-3,0-5.22,2.25-6.76,4.59-2.73,4.17-5.92,8.18-8.57,12.35-.06.1-2.16,2.5-.75,2.57.31,0,1.85-2.28,2.17-2.66,1.22-1.44,2.48-2.84,3.61-4.35a16,16,0,0,0,3.46-9.29c.11-2.7-3.3-3.83-5.12-2.12a82.86,82.86,0,0,0-11,12.55c-2.95,4.16-5.4,11.31-10.68,12.91l3.69,3.69c3.55-13.84,17.65-20.82,26.63-30.77,2.58-2.86-1.65-7.12-4.24-4.24Z" transform="translate(-280.77 -148.68)"/><path class="cls-1" d="M433,588.42A47.43,47.43,0,0,1,446.5,564.5c2.78-2.69-1.46-6.93-4.24-4.24a53.18,53.18,0,0,0-15,26.57c-.86,3.76,4.92,5.36,5.79,1.6Z" transform="translate(-280.77 -148.68)"/><path class="cls-1" d="M400.92,600.77q-.43-.39-.2-.16t0-.06c-.06-.18-.23-.74-.17-.28l0-.39q0,.41,0,0t0-.09q-.09.32.1-.24a1.39,1.39,0,0,1,.51-.48c-.56.34.42-.1.06,0s.64,0,.08,0c.19,0,1,.36.54.1v5.18c.16-.11,1-.48.38-.27.24-.08.48-.13.72-.19-.63.17,0,0,.19,0s.33,0-.06,0l.48.12a3,3,0,0,0,1.6-5.79,7.68,7.68,0,0,0-6.32.94,3,3,0,0,0,0,5.18,5.07,5.07,0,1,0,5.17-8.73,3,3,0,0,0-4.1,1.08,3.06,3.06,0,0,0,1.08,4.1Z" transform="translate(-280.77 -148.68)"/><path class="cls-1" d="M423.53,601.41a1.15,1.15,0,0,1,.68,0q.42.08.06,0l.39.17q-.31-.2,0,0t0,0l.26.32q.23.65.13.32t0,.37l-.06.45q-.31.62-.14.32c.19-.29-.48.47-.09.13q-.54.39-.25.21t-.32.13l.17,0a1.53,1.53,0,0,1-.9,0,3,3,0,0,0,1.6-5.79,4.86,4.86,0,0,0-4.1.87,4.68,4.68,0,0,0-1.9,3.69,4.78,4.78,0,0,0,1.57,3.47,5,5,0,0,0,4.39,1.14,3,3,0,0,0,2.1-3.69,3.08,3.08,0,0,0-3.69-2.1Z" transform="translate(-280.77 -148.68)"/><path class="cls-1" d="M318.74,788.69a85.62,85.62,0,0,0-16.29,16.19c-2.38,3.24-9.05,11.38-5.09,15.44s9.72-2.8,11.85-5.9c2-2.9,3.49-6.19,5.82-8.84,1.19-1.35,7.68-6.65,8.69-5.5,2.15,2.46-6.12,8.84-7.52,10.19-3.34,3.24-6.3,6.88-9.36,10.39L298,830.86c-1.91,2.19-5.32,5.1-4.1,8.46,2.37,6.49,10.33-.13,13.07-2.42,7.44-6.22,15-12.78,21.91-19.62,5.37-5.33-.3-8.64-6-8.41a21.33,21.33,0,0,0-17.45,10.65L311,821c-.07-4.53,2.46-8,5-11.47l-5.48-2.31c-1,3.69-4.4,10.13-2.16,13.85,2.45,4.08,6.56,1.69,10.07,1.32l-2.59-1.49c.86,1.42-3.8,5.69-3.69,7.9a4.4,4.4,0,0,0,3.66,4.05c5.59,1.17,12.09-5.42,15.4-9.05,2.59-2.85-1.64-7.11-4.24-4.24a33.72,33.72,0,0,1-6,5.33c-.24.16-3.67,2-3.65,2.06.32,2.16,2.39.17,2.85-.29a7.29,7.29,0,0,0,.85-8.77,3,3,0,0,0-2.59-1.49,13.23,13.23,0,0,0-2.19.25l-1.36.45q-1.72,1.9-.89,0c-.35-2,1.77-6.33,2.32-8.26,1-3.47-3.57-4.93-5.48-2.31-3.24,4.43-5.92,8.85-5.84,14.5a3,3,0,0,0,5.59,1.51,15.32,15.32,0,0,1,7.6-6.66c1.55-.61,6.81-2,7.93-.79l-.77-2.92c-.25,1.61-4.68,4.43-5.91,5.53L312,824.38c-1.31,1.17-12.41,12.36-13.7,11.55l1.49,2.59c-.08-2.24,5.49-6.9,6.89-8.52l7-8c3.93-4.51,8.61-8.36,12.46-12.88,2.58-3,4.38-7,3.35-11.1-.84-3.3-3.17-5.59-6.6-4.57a29,29,0,0,0-12.06,7.9c-3.3,3.69-5,8.63-8.42,12.18a7.47,7.47,0,0,1-1.78,1.54q-2.49,1.38,2.12.93c.7-.35,1.47-2.81,1.87-3.48a52.68,52.68,0,0,1,5.56-7.69A92,92,0,0,1,323,792.93c3-2.39-1.24-6.61-4.24-4.24Z" transform="translate(-280.77 -148.68)"/><path class="cls-1" d="M292.79,849.68v-.14l-.41,1.51.07-.1L291.39,852l-2.35,0L288,851l-.06-2-.13.22a4.74,4.74,0,0,0-.28.44c-.14.22-.18.26,0,0,0,.06-.54.55-.24.3s-.36.07,0,0a1.87,1.87,0,0,1,.73-.11c.13,0,.61.26.44.14s-.13,0,.25.28a1.44,1.44,0,0,1,.6,1.3l-.88,2.12a1.89,1.89,0,0,1-.52.26q-.27,0,0,0a1.78,1.78,0,0,1,.4,0,3,3,0,0,0,3-3,3.08,3.08,0,0,0-3-3,5.21,5.21,0,0,0-3.62,1.07,3.43,3.43,0,0,0-.84,4.59,4.76,4.76,0,0,0,6.53,1.44c1.92-1.2,3.72-3.9,3.17-6.21a3.5,3.5,0,0,0-3.43-2.58,3.42,3.42,0,0,0-3.34,3.33,3,3,0,0,0,3,3,3.08,3.08,0,0,0,3-3Z" transform="translate(-280.77 -148.68)"/><path class="cls-1" d="M283.67,862.67c3.86,0,3.87-6,0-6s-3.87,6,0,6Z" transform="translate(-280.77 -148.68)"/><path class="cls-1" d="M291.69,868.31l-.33-.42q.15.27-.05-.15c-.21-.5-.08-.17-.06,0l-.11-.8a2.19,2.19,0,0,1,0,.46l.11-.8a1.85,1.85,0,0,1,0,.23q-.13.43.18-.38c-.21.3-.27.19.22-.21-.25.2-.37.23.26-.16-.37.23.84-.22.18-.1l3.39,4.41.81-1.84a3.27,3.27,0,0,0,.3-2.31,3.06,3.06,0,0,0-1.38-1.79c-1.3-.69-3.43-.46-4.1,1.08l-.81,1.84a3,3,0,0,0,3.39,4.41,4.56,4.56,0,0,0,3.3-3.16,4.65,4.65,0,0,0-1-4.5,3,3,0,0,0-4.24,0,3.08,3.08,0,0,0,0,4.24Z" transform="translate(-280.77 -148.68)"/><path class="cls-1" d="M303.8,850.61q-.75.06-.26.06-.69-.12-.35,0t-.3-.12q-.53-.46-.18-.13l-.77-2.92c-.09.39.08-.16.13-.25q.45-.52.22-.28t.11-.07c.42-.32-.29,0,.23-.14.13,0,.92-.14.51-.15a1.81,1.81,0,0,1,.88.21c.09.05.49.44.22.15l.27.34q.24.67.13.33t0,.15a1.2,1.2,0,0,1,0,.7,3.3,3.3,0,0,0-.3-2.31,3.06,3.06,0,0,0-1.79-1.38c-1.42-.32-3.45.43-3.69,2.1a4.91,4.91,0,0,0,.13,2.57,4.71,4.71,0,0,0,1.3,2,4.55,4.55,0,0,0,5.29.55c1.85-1,3.1-3.65,1.66-5.51a4.91,4.91,0,0,0-5-1.62,3,3,0,0,0-2.1,3.69,3.08,3.08,0,0,0,3.69,2.1Z" transform="translate(-280.77 -148.68)"/><path class="cls-1" d="M313.39,826.39a22.83,22.83,0,0,1,11.76-9.11c3.63-1.24,2.07-7-1.6-5.79a29.5,29.5,0,0,0-15.34,11.87c-2.13,3.24,3.07,6.24,5.18,3Z" transform="translate(-280.77 -148.68)"/><path class="cls-1" d="M315,843.22a6.28,6.28,0,0,1,3.94-.61l-.72-5.48q-.68.39-.13.22a8.3,8.3,0,0,1-1,0,16.56,16.56,0,0,0-1.87,0,6.12,6.12,0,0,0-3.68,1.65,4.3,4.3,0,0,0,1.53,7.23c4,1.48,10.82.57,11.69-4.42a3.09,3.09,0,0,0-2.1-3.69,3,3,0,0,0-3.69,2.1c-.1.57.15.14-.07.28a2.67,2.67,0,0,1-.93.27,7.93,7.93,0,0,1-1.68,0l-.62-.06c-.54-.05-.58-.4-.28,0l.77,1.32c.73,1.76-1.42,1.14,0,1.3a10.64,10.64,0,0,0,1.45.06,6.17,6.17,0,0,0,3.63-1.05c1.82-1.36,2.1-5-.72-5.48a13.14,13.14,0,0,0-8.56,1.21c-3.45,1.73-.42,6.91,3,5.18Z" transform="translate(-280.77 -148.68)"/><path class="cls-1" d="M455.5,803.49c3.06,2,5,5,7.34,7.66a35.33,35.33,0,0,0,8.23,6.74,77.66,77.66,0,0,0,21.34,9c2.67.63,5.41-3,2.92-5L473,804l.77,2.92c-.41,1.27,21.62,11.32,24.06,12.46,7.59,3.54,15.31,6.23,23.67,7.18,2.91.33,4.16-4.39,1.51-5.59a229.34,229.34,0,0,1-31.31-17.21v5.18c3.51-2.63,13.77,2.45,17.25,3.72a54.12,54.12,0,0,0,15.34,3.67c3.86.24,3.84-5.76,0-6-7-.43-13.23-3.47-19.76-5.6-4.28-1.4-11.83-4-15.86-1a3,3,0,0,0,0,5.18A229.34,229.34,0,0,0,520,826.13l1.51-5.59c-11.81-1.35-22.3-7.12-32.74-12.4-4.43-2.24-18-11.48-20.78-2.83a2.92,2.92,0,0,0,.77,2.92l22.31,17.88,2.92-5a68.58,68.58,0,0,1-21.21-9.21c-5.62-3.73-8.64-9.91-14.26-13.58-3.24-2.12-6.25,3.08-3,5.18Z" transform="translate(-280.77 -148.68)"/><path class="cls-1" d="M517,838.5a1.85,1.85,0,0,1-2.5.65L513,836.56c0,.51.2-.74,0-.28,0-.1.35-.73.1-.31s.5-.59.17-.26.61-.45.18-.15.61-.22.29-.12c-.54.16.33-.07.34,0h-.2q-.37,0,.48.06c-.47-.11.68.36.24.09a3,3,0,0,0-3,5.18,5,5,0,0,0,7.39-4.2,3,3,0,0,0-1.49-2.59,4.24,4.24,0,0,0-5.71,1.5,3,3,0,0,0,1.08,4.1,3.08,3.08,0,0,0,4.1-1.08Z" transform="translate(-280.77 -148.68)"/><path class="cls-1" d="M654.16,720.56c4.68,1.91,8.72-.33,13.15-1.9,4.9-1.73,10.61-2.35,15.47-.18,2,.91,6.52,4.08,1.47,1.55-2.27-1.14-4.55-2.24-6.9-3.22a82.88,82.88,0,0,0-17.2-5c-3.77-.68-5.31,4.55-1.6,5.79q14.44,4.79,28.62,10.28c3,1.17,4.71-3,2.92-5-6.82-7.74-16.53-11.17-26.09-14.24-3.69-1.18-5.26,4.6-1.6,5.79a87.15,87.15,0,0,1,12.16,4.88q2.33,1.16,4.59,2.46c1.06.61,5.32,2.44,5.57,3.75l.77-2.92c-3,3.2-12-3.06-14.83-4.49l-13.33-6.71c-3.44-1.73-6.48,3.44-3,5.18,7.1,3.57,14.12,7.43,21.35,10.72,4,1.84,10.18,3.7,13.76-.12,7.11-7.58-20.75-17-25.43-18.54l-1.6,5.79c8.62,2.76,17.3,5.71,23.45,12.69l2.92-5q-14.19-5.49-28.62-10.28l-1.6,5.79a83.16,83.16,0,0,1,13.22,3.44c4.23,1.51,8,3.84,12.15,5.5,4.43,1.78,11.24-.53,9.07-6.52-1.95-5.38-9-8.14-14.18-8.74a29.26,29.26,0,0,0-10.44.77c-4,1-8.44,4.41-12.62,2.7-3.57-1.46-5.13,4.34-1.6,5.79Z" transform="translate(-280.77 -148.68)"/><path class="cls-1" d="M688.49,738l.26-.06-.8.11a2.32,2.32,0,0,1,.39,0l-.8-.11.26,0q.43.14-.35-.16l.23.13q-.61-.5-.35-.26c.46.43-.36-.58-.1-.14q.21.41-.15-.36a1.57,1.57,0,0,1,.05.26l-.11-.8a1.5,1.5,0,0,1,0,.26l.88-2.12c-.29.29.24-.13.26-.17s-.24.14-.32.2c-.25.17.59-.17.29-.13-.12,0-.25.06-.37.09l.8-.11a3.05,3.05,0,0,1-.76,0l.8.11-.15,0a3.23,3.23,0,0,0-2.31.3,3,3,0,0,0,.72,5.48,5.93,5.93,0,0,0,3.94-.5,5.29,5.29,0,0,0,1.34-1,3.45,3.45,0,0,0,.73-3.38,5,5,0,0,0-6-3.45,3,3,0,1,0,1.6,5.79Z" transform="translate(-280.77 -148.68)"/><path class="cls-1" d="M615.62,779.68l-1.75,27c-.31,4.74-3.14,14.74,1.72,18,11,7.48,12-24.15,12.45-28.71.35-3.34-5.3-4.13-5.89-.8a91.73,91.73,0,0,1-7.06,22.7l5.59,1.51-2.89-29.74c-.3-3.08-5.25-4.4-5.89-.8a129,129,0,0,0-2.11,24.91c.08,4.46-.81,13.21,5.05,14.76,4.89,1.29,8.28-4.09,9.64-7.92,3-8.4,5.23-17.17,7.82-25.7l-5.89-.8a64.82,64.82,0,0,0,2,19.5c.66,2.59,4.13,2.83,5.48.72a40.16,40.16,0,0,0,6-15.82l-5.89-.8a14.14,14.14,0,0,1-1.75,6.67c-1.76,3.42,3.19,6.36,5.18,3l5.09-8.52-5.59-1.51,1.21,13.93c.23,2.61,4.27,4.52,5.59,1.51a78.88,78.88,0,0,0,6.8-31.18c0-3.87-5.87-3.85-6,0a57.46,57.46,0,0,1-2.14,13.73c-1,3.73,4.72,5.31,5.79,1.6a42.68,42.68,0,0,1,4.49-10.31L647,785.17a71.17,71.17,0,0,0,1.73,17.72c.71,3.16,4.8,2.52,5.79,0,5.47-13.93.2-29.65,6.22-43.32l-5.59-1.51.23,38.77c0,3.87,5.9,3.86,6,0q1-38.91.53-77.83c0-3.86-6-3.87-6,0q.48,38.92-.53,77.83h6l-.23-38.77c0-2.76-4.34-4.36-5.59-1.51-6.32,14.35-1.16,30.35-6.83,44.75h5.79A64.47,64.47,0,0,1,653,785.17c.09-3-4.1-4-5.59-1.51a48.8,48.8,0,0,0-5.1,11.75l5.79,1.6a64.68,64.68,0,0,0,2.36-15.32h-6a71.32,71.32,0,0,1-6,28.15l5.59,1.51-1.21-13.93c-.25-2.86-4-4.22-5.59-1.51l-5.09,8.52,5.18,3a22.14,22.14,0,0,0,2.57-9.7c.13-3.31-5.38-4.18-5.89-.8a36.22,36.22,0,0,1-5.38,14.39l5.48.72a59.35,59.35,0,0,1-1.76-17.91c.18-3.46-4.93-4-5.89-.8L622,808c-.52,1.72-3.42,14.6-5.89,13.22-.66-.37-.35-6.57-.36-7.45q-.07-3.73.1-7.46a120.9,120.9,0,0,1,1.8-15.86l-5.89-.8,2.89,29.74c.26,2.63,4.21,4.5,5.59,1.51a97.5,97.5,0,0,0,7.67-24.14L622,796c-.57,5.48-1.25,11-2.1,16.4-.33,2.11-.64,4.27-.92,6.33-.25,1.82.16-1.22.17-1.45.08-1.61.21-3.22.31-4.82l2.12-32.79c.25-3.86-5.75-3.84-6,0Z" transform="translate(-280.77 -148.68)"/><path class="cls-1" d="M653.14,817.48c-1.61,1.65-3.24,3.62-3.28,6.05a5.71,5.71,0,0,0,3.4,5.45,4.91,4.91,0,0,0,5.91-1.94,9.36,9.36,0,0,0,1.31-5.3c0-3.86-6-3.87-6,0a4.34,4.34,0,0,1-.2,1.77c0,.13-.06.38-.2.38a.94.94,0,0,1,.74-.54.8.8,0,0,1,.53.07s.56.32.53.32v.12q-.11-.5,0-.3a10.4,10.4,0,0,1,1.49-1.85c2.7-2.76-1.54-7-4.24-4.24Z" transform="translate(-280.77 -148.68)"/><path class="cls-1" d="M630,827.84a5,5,0,0,0,7.26-5.42,5,5,0,0,0-8.3-2.14,3,3,0,0,0,4.24,4.24c.36-.38-.48.31-.23.16s-.73.25-.27.12-.68.07-.32,0c.51,0-.19,0-.31-.05.07.05.59.21,0,0s0,0,0,0l-.39-.3q.23.24,0-.1t-.11-.14q.18.3-.15-.41c.1.39,0-.32,0-.37,0,.57.16-.73,0-.19,0-.07.3-.66.09-.31q.46-.56.22-.31t.13-.08c.47-.32,0,0-.09,0,.19-.27.63-.22.2-.11s.77,0,.26-.06l.5.06q.7.34.29.12a3,3,0,0,0-3,5.18Z" transform="translate(-280.77 -148.68)"/><path class="cls-1" d="M864,707a56.53,56.53,0,0,0-23.35,15.68c-2.23,2.5.57,6.42,3.64,4.71a128.2,128.2,0,0,0,22.82-16.19L862,709c.55,4.81-5.26,8.22-8.41,11.08q-5,4.5-9.68,9.25A264.55,264.55,0,0,0,825.49,750c-.75.94-1.32,2.52-.47,3.64,5.73,7.46,15.58-3,19.41-7.7,6.38-7.84,10.83-17.63,19.44-23.39L859.36,720c-.11,10.35-8.15,18.62-10.64,28.43a3,3,0,0,0,5,2.92l17.58-16.53-4.71-3.64a211.32,211.32,0,0,0-20.38,39.58c-1.11,2.84,3.07,5,5,2.92,11.55-12.43,23-24.93,33.24-38.48,2.1-2.78-2.34-5.93-4.71-3.64a252.14,252.14,0,0,0-23.26,25.88l5,2.92,4.38-11c1.36-3.43-3.63-4.78-5.48-2.31a144.5,144.5,0,0,0-10.3,15.54c-2.08,3.67-3.49,6.82-1.73,10.86,1.11,2.56,4.74,1.47,5.48-.72a14.6,14.6,0,0,0,.08-9.73c-.53-1.66-2.77-3-4.41-1.79-3.64,2.72-7.78,6.79-5.61,11.79,2,4.68,7.7,4.75,11.32,1.93,2-1.57,3.33-3.85,4.74-5.95q3.86-5.72,7.68-11.45l14.27-21.27c2.17-3.24-3-6.14-5.18-3l-9.58,13.54c-2.66,3.76-5.9,7.4-7,12-.48,2,1.45,4.62,3.69,3.69a27.76,27.76,0,0,0,12.22-9.24c2.71-3.72,4.19-12.16,9-13.52,3.71-1,2.13-6.84-1.6-5.79-4.6,1.3-6.88,4.89-8.77,9-2.78,6.1-6,11-12.48,13.71l3.69,3.69c1.08-4.48,4.91-8.43,7.52-12.12l8.45-11.94-5.18-3-14.27,21.27-6.59,9.82c-1,1.45-1.86,3.06-3,4.41q-1.33,3.14-3.47.93a8.74,8.74,0,0,1,3.1-3.27l-4.41-1.79a10,10,0,0,1-.08,6.54l5.48-.72c-1-2.4,4-8.6,5.11-10.4,2.17-3.42,4.5-6.72,6.93-10l-5.48-2.31-4.38,11c-1.08,2.72,3.2,5.24,5,2.92A252.14,252.14,0,0,1,884,735.8l-4.71-3.64c-9.92,13.13-21.11,25.22-32.3,37.26l5,2.92a204.08,204.08,0,0,1,19.77-38.15c1.92-2.92-2.3-5.91-4.71-3.64l-17.58,16.53,5,2.92c2.67-10.5,10.74-18.79,10.86-30,0-2.18-2.6-3.87-4.51-2.59-6.2,4.15-10.55,9.94-14.72,16a113.2,113.2,0,0,1-6.8,9.35c-.65.76-8.65,8.5-9.13,7.87l-.47,3.64A263.16,263.16,0,0,1,852,729.86C857.48,724.54,869,718,868,709c-.3-2.59-3.06-4-5.12-2.12a120.9,120.9,0,0,1-21.6,15.25l3.64,4.71a50.22,50.22,0,0,1,20.71-14.14c3.6-1.3,2-7.1-1.6-5.79Z" transform="translate(-280.77 -148.68)"/><path class="cls-1" d="M865,692.54a42.91,42.91,0,0,1-14.29,12.84l4.41,1.79c-2.1-7.8,5.35-12.74,11-16.36l-3.64-4.71A67.26,67.26,0,0,0,851,699.57c-1.46,2.25.95,5,3.39,4.41,8.52-2.24,17.55-10.06,18.1-19.48.7-11.93-19.75,2.78-23.29,4.7l4.41,3.39a10,10,0,0,1,8.71-6.31c3.83-.29,3.86-6.3,0-6A16.33,16.33,0,0,0,847.84,691c-1,2.58,2.32,4.53,4.41,3.39l8.13-4.43c.91-.5,7.35-4.58,7.57-4.43l-1.49-2.59c.62,7.37-7.4,13.63-13.65,15.27l3.39,4.41a61.28,61.28,0,0,1,10.48-12.26c2.51-2.27-.76-6.56-3.64-4.71-8.1,5.22-16.62,12.4-13.73,23.14a3,3,0,0,0,4.41,1.79,49.68,49.68,0,0,0,16.44-15c2.23-3.17-3-6.17-5.18-3Z" transform="translate(-280.77 -148.68)"/><path class="cls-1" d="M999.35,652.34l0,33.77c0,7.54-2.12,18.37,3.76,24.3a3,3,0,0,0,5-1.32,60.11,60.11,0,0,0,3.24-23.24c-.21-3.83-6.13-3.88-6,0a56.22,56.22,0,0,1-.89,12.84c-.53,2.71-1.25,9.14-4.62,10l3.69,2.1a72.77,72.77,0,0,1-.47-27.85c.33-1.82.71-3.64,1.22-5.42.43-1.52.58-4.49,2.42-2.35,1,1.18.41,5.74.44,7.17l.11,5.75c.07,3.45-.67,12.53,5.6,10.84,5.52-1.49,5.1-12.91,5.75-17.09h-5.79l3.44,25.09c.49,3.58-.13,14.4,6.1,13.7,5.56-.62,4.9-9.28,5.11-12.93.52-8.72.69-17.44.6-26.17,0-3.27-5.23-4.22-5.89-.8q-1.69,8.75-4,17.35h5.79c-1.86-6.7-4.44-16.29,2.74-20.84l-4.41-1.79a117.21,117.21,0,0,0,8.74,30.74c1.08,2.48,4.83,1.55,5.48-.72,2.65-9.2,1.31-18.51-.29-27.77l-5.79,1.6a69,69,0,0,1,3.84,17.68c.21,2.65,4.24,4.48,5.59,1.51a19.37,19.37,0,0,0-.81-18.57c-1.23-2.09-5-1.9-5.48.72l-2.65,13.83,5.48-.72a72,72,0,0,1-7.77-18.2c-1-3.72-6.81-2.14-5.79,1.6a78,78,0,0,0,8.37,19.64c1.24,2.07,5,1.91,5.48-.72l2.65-13.83-5.48.72a13.1,13.1,0,0,1,.81,12.52l5.59,1.51a75.16,75.16,0,0,0-4.06-19.28,3,3,0,0,0-5.79,1.6c1.41,8.22,2.64,16.41.29,24.58l5.48-.72a112,112,0,0,1-8.14-29.31c-.27-1.92-2.93-2.73-4.41-1.79-9.81,6.21-8.19,17.93-5.5,27.61a3,3,0,0,0,5.79,0q2.33-8.6,4-17.35l-5.89-.8c.06,5.5,0,11-.16,16.48q-.14,4.36-.39,8.72a29.63,29.63,0,0,0-.24,3.87c.1,1.28,1.17,6.56,1.94,3.42.49-2-.78-5.66-1.06-7.72l-1.19-8.68-2.38-17.37c-.4-2.89-5.34-2.84-5.79,0-.18,1.15-2.18,12.61-1.69,12.67l2.59,1.49c-1.55-2.23-.52-9.22-.58-12.07-.06-3.27.27-7-1.18-10-1.9-4-7.09-6.07-10.6-2.68-4.06,3.93-4.42,12.77-5,18a79.72,79.72,0,0,0,1.38,24.74,3,3,0,0,0,3.69,2.1c10.14-2.48,10.19-20.62,9.92-28.59h-6a55.64,55.64,0,0,1-3,21.64l5-1.32c-2.81-2.83-2-7.71-2-11.38l0-14.47,0-28c0-3.86-6-3.87-6,0Z" transform="translate(-280.77 -148.68)"/><path class="cls-1" d="M1130.09,661l-.19,3,3.8-2.89-1.4-.76c-1.17-2.87-6.09-2.89-5.89.8a45.93,45.93,0,0,0,13.32,30.26c1.43,1.45,4.7,1,5-1.32,1.47-10.66-6.57-18.37-7.15-28.59l-2.2,2.89c.24,0,6.05,7.87,6.54,8.47l7.77,9.53c1.79,2.2,4.95.2,5.12-2.12.62-8.24-3.57-15.09-8.1-21.62-2.17-3.13-7.18-.35-5.18,3,3.93,6.64,8.78,19.88,18,20.4,11.19.64,2.18-15.7.09-20.15-1.08-2.3-5-1.73-5.48.72a43.3,43.3,0,0,0-.81,11.78l3.8-2.89a9,9,0,0,1-5-6.19q-1.32-2.21,1.65-3.19a33.46,33.46,0,0,1,2.66,2.28c3.62,3.24,7.13,6.6,10.7,9.9,2,1.87,6.15.06,5-2.92-2.79-7.31-10.66-13.12-11.41-21.07-.36-3.81-6.36-3.85-6,0,.87,9.25,8.48,14.43,11.62,22.66l5-2.92c-4.49-4.15-8.86-9.17-13.91-12.62-3.05-2.09-7.51-2.91-10.3.17-5.72,6.3,2.25,17.22,8.32,19.68,1.75.71,3.92-1.1,3.8-2.89a37.44,37.44,0,0,1,.6-10.18l-5.48.72c1.36,2.89,2.61,5.83,3.71,8.83.4,1.11.3,2.51,1.21,2.26-1.15.33-3.32-2.33-3.9-3.05-3.46-4.28-6-9.61-8.75-14.34l-5.18,3c3.92,5.64,7.82,11.43,7.28,18.59l5.12-2.12-11.36-13.93c-2.48-3-4.46-6.5-8.79-5.61a3,3,0,0,0-2.2,2.89c.53,9.31,8.64,17.71,7.37,27l5-1.32a39.6,39.6,0,0,1-11.56-26l-5.89.8c1.1,2.69,2.63,4.39,5.59,5a3.05,3.05,0,0,0,3.8-2.89l.19-3c.25-3.86-5.75-3.84-6,0Z" transform="translate(-280.77 -148.68)"/><path class="cls-1" d="M1187.44,638.2a29.39,29.39,0,0,1-4.07,10.91l5.59,1.51c-.34-5.36-.42-10.71-.24-16.08h-6c-.13,8.73-1.85,17.2-3.7,25.7l5.79,1.6,4.62-21.38-5.79-1.6-4.28,22.62a3,3,0,0,0,3.69,3.69c9.5-1.64,9.54-17.34,10.95-24.5l-5.89-.8,1.24,34.26a3,3,0,0,0,3.8,2.89c4.74-1.2,6.45-5.47,7.08-9.94,1.06-7.46,1.14-15.17,1.68-22.69h-6c-.08,7.88-7.37,13.52-5.06,21.82.88,3.17,6.11,2.66,5.89-.8-.55-8.67,1-17.41,7.5-23.65l-5.12-2.12,1.48,15.66c.25,2.65,4.18,4.47,5.59,1.51a54.11,54.11,0,0,0,4.79-15.46h-5.79a116.3,116.3,0,0,0,4.28,18.52,3,3,0,0,0,5,1.32c3.06-3.16,3.66-7.1,4.47-11.28l3.59-18.49c.73-3.75-4.74-5.36-5.79-1.6q-3.12,11.21-7.31,22h5.79a68,68,0,0,1-.58-12.89c.17-3.86-5.83-3.85-6,0a76.33,76.33,0,0,0,.79,14.49c.47,3.26,4.86,2.39,5.79,0q4.2-10.85,7.31-22l-5.79-1.6-2.83,14.6c-.74,3.83-.82,9.57-3.68,12.53l5,1.32a116.3,116.3,0,0,1-4.28-18.52c-.42-2.87-5.36-2.86-5.79,0a48.94,48.94,0,0,1-4.19,14l5.59,1.51-1.48-15.66a3,3,0,0,0-5.12-2.12c-7.56,7.3-9.91,17.69-9.26,27.9l5.89-.8c-1.12-4,1.36-7.57,3-11.11a22.19,22.19,0,0,0,2.32-9.11c0-3.9-5.73-3.81-6,0l-1,14.35c-.21,2.93.59,11.51-3.33,12.5l3.8,2.89-1.24-34.26c-.12-3.23-5.21-4.26-5.89-.8L1186,650.56c-.57,2.9-.89,8.21-4.5,8.83l3.69,3.69,4.28-22.62c.71-3.75-5-5.4-5.79-1.6L1179,660.25c-.81,3.76,5,5.37,5.79,1.6,2-9,3.77-18,3.91-27.29.06-3.87-5.87-3.85-6,0-.18,5.37-.1,10.72.24,16.08a3,3,0,0,0,5.59,1.51,34,34,0,0,0,4.67-12.34c.64-3.78-5.14-5.4-5.79-1.6Z" transform="translate(-280.77 -148.68)"/><path class="cls-1" d="M1340.46,449a75.37,75.37,0,0,1,4.71-29.17c3.17-8.38,8.51-20.12,16.89-24.36l-4.51-2.59c-.07,4.46-4.94,8.65-6.92,12.48a43.43,43.43,0,0,0-4.06,11.48c-.5,2.55-1,5.46,1.38,7.26s5.13.94,7.3-.55c6-4.12,10.32-11.69,14.23-17.65,4.75-7.25,9.45-14.44,16.28-19.93l-4.71-3.64A238.71,238.71,0,0,1,1359,414.83l5,2.92a8.44,8.44,0,0,0-.3-6.1,8.08,8.08,0,0,0-1.55-2.21c-.58-.6-2.2-1.19-2.53-1.73q-.55-.42-.31.21l1.27-1.6a46.61,46.61,0,0,1,3.32-3.45,53.68,53.68,0,0,1,8.22-6.34l-4.1-4.1a68.84,68.84,0,0,1-10.81,17.21l4.24,4.24a52.19,52.19,0,0,1,20.36-15.55l-4.41-3.39a25.38,25.38,0,0,1-5.58,12.93l4.71,3.64a35.83,35.83,0,0,1,10.39-9.45l-4.51-2.59a104.27,104.27,0,0,1-5.84,23.19l5.89.8q-.53-8.57-.78-17.15a3,3,0,0,0-5.59-1.51c-2.91,4.83-7.14,18.31,1.26,20.53,3.09.82,6.1-1,7.85-3.42,3.5-4.86,5.57-11.35,8.1-16.76l-5.48-2.31-8.91,31.89c-1,3.72,4.75,5.31,5.79,1.6l8.91-31.89c.89-3.18-4-5.46-5.48-2.31-2.1,4.48-3.81,9.85-6.55,14a4.33,4.33,0,0,1-2.81,3,14.84,14.84,0,0,1-.15-3.67,17.17,17.17,0,0,1,2.66-7.54l-5.59-1.51q.25,8.58.78,17.15a3,3,0,0,0,5.89.8,110.72,110.72,0,0,0,6.06-24.78c.3-2.31-2.75-3.67-4.51-2.59a43.45,43.45,0,0,0-12.54,11.6c-2,2.72,2.54,6.26,4.71,3.64a30.88,30.88,0,0,0,7.13-15.57,3,3,0,0,0-4.41-3.39,55.8,55.8,0,0,0-21.57,16.49c-2.36,3,1.69,7.21,4.24,4.24a74.08,74.08,0,0,0,11.75-18.42c1.11-2.51-1.33-5.88-4.1-4.1-5.18,3.31-10.73,7.44-14.26,12.55-1.09,1.57-2.09,3.52-1.6,5.51.61,2.5,5.69,4.23,5,6.75-.76,2.71,3.06,5.34,5,2.92a247.91,247.91,0,0,0,23-33.7c1.78-3.14-2.16-5.68-4.71-3.64-9.9,7.95-15.36,19.41-22.86,29.36-.52.68-6.42,8-6.91,7.64,0,0,2.91-7.92,3.35-8.88,2.66-5.77,8.35-10.33,8.46-17a3,3,0,0,0-4.51-2.59c-9.11,4.61-14.87,16.28-18.59,25.28a80.66,80.66,0,0,0-6,33.44c.12,3.85,6.12,3.87,6,0Z" transform="translate(-280.77 -148.68)"/><path class="cls-1" d="M1462.82,565.67l-.66,44c-.05,3.49,4.84,3.93,5.89.8a62.86,62.86,0,0,0,3.1-25c-.17-2.16-2.45-3.88-4.51-2.59-9.68,6.05-11.56,17.06-12.7,27.6-.37,3.42,5,4,5.89.8a181.58,181.58,0,0,1,8.92-25.19l-5.48-.72,7.11,26.32a3,3,0,0,0,4.41,1.79c4.18-2.7,4.34-7.72,5.21-12.23l3.94-20.47-5.79-1.6-4,26.8c-.57,3.76,5.14,5.42,5.79,1.6a253.48,253.48,0,0,1,6-27c.92-3.26-3.79-5.28-5.48-2.31a83.84,83.84,0,0,0-10.27,29.61c-.47,3.18,3.6,5.44,5.48,2.31a186.9,186.9,0,0,1,12.24-17.93l-5-1.32a14.91,14.91,0,0,1-.34,7.55c-1,3.36,3.66,5.11,5.48,2.31a54.14,54.14,0,0,0,6.14-13l-5.89-.8.84,21.47c.13,3.24,5.16,4.24,5.89.8a257.46,257.46,0,0,0,5.68-55.66c0-3.86-6-3.87-6,0a249.85,249.85,0,0,1-5.47,54.06l5.89.8-.84-21.47a3,3,0,0,0-5.89-.8,47.87,47.87,0,0,1-5.54,11.52l5.48,2.31a21.68,21.68,0,0,0,.34-10.74c-.42-2.05-3.64-3.09-5-1.32a199.89,199.89,0,0,0-13.17,19.14l5.48,2.31a79.47,79.47,0,0,1,9.67-28.18l-5.48-2.31a253.48,253.48,0,0,0-6,27l5.79,1.6,4-26.8c.56-3.73-5-5.44-5.79-1.6l-2.87,14.89-1.43,7.44c-.32,1.66-.43,5.71-2.09,6.78l4.41,1.79-7.11-26.32c-.62-2.29-4.4-3.17-5.48-.72a192.05,192.05,0,0,0-9.52,26.62l5.89.8c.89-8.23,2.06-17.63,9.72-22.42l-4.51-2.59a58.52,58.52,0,0,1-2.88,23.45l5.89.8.66-44c.06-3.86-5.94-3.86-6,0Z" transform="translate(-280.77 -148.68)"/><path class="cls-1" d="M1617.33,475v-7.59c0-2.27.55-5.39,0-7.59q.91-2.24-1.15-2.21-2.15-1.16-.86,1.54c-.22,2.59.74,5.91.94,8.56.31,4.08-1.86,16,4.7,16.18,6.17.15,7.42-10.24,8.43-14.52,2-8.51,3.34-17.2,7.38-25.07l-4.1,1.08c1.57,1.05,1.18,7.16,1.3,8.91.21,3,.32,6,.23,9-.2,6.52-1.54,12.69-5,18.3l5.59,1.51-.19-28.09c0-3.25-5.39-4.24-5.89-.8-1.07,7.25-1.9,14.52-2.37,21.83-.27,4.14-2.26,12.16,2.05,14.92,2.91,1.86,9.71,3.36,12.48.62,1.67-1.65,2.25-4.59,3-6.68l3.49-10.06h-5.79a59.82,59.82,0,0,1,1,16.75c-.29,3.85,5.71,3.83,6,0a65.56,65.56,0,0,0-1.23-18.35c-.64-3.11-4.89-2.59-5.79,0-1.25,3.62-2.13,8.41-4.07,11.73-1.17,2-1.2,2.1-3.78,1.38s-1.8-1.06-1.7-3.6a249.1,249.1,0,0,1,2.5-27l-5.89-.8.19,28.09a3,3,0,0,0,5.59,1.51c4.4-7.22,5.84-15.42,5.81-23.79,0-6,1.09-16.91-4.53-20.68a3,3,0,0,0-4.1,1.08c-4,7.85-5.67,16.32-7.61,24.85-.5,2.2-1,4.41-1.64,6.58-.12.41-1.61,5.69.29,4.42.63-.42-.19-6.65-.25-7.53q-.23-3.76-.68-7.5c-.42-3.53-1.54-14.24-7.85-9.79-2.45,1.73-2.47,4.84-2.53,7.52-.12,5.05,0,10.12,0,15.18,0,3.86,6,3.87,6,0Z" transform="translate(-280.77 -148.68)"/></g></svg>