<svg id="Layer_2" data-name="Layer 2" xmlns="http://www.w3.org/2000/svg" viewBox="0 0 290.32 281.02"><defs><style>.cls-1{fill:#f5ea14;}.cls-2{fill:#b8529e;}</style></defs><title>Trump</title><path class="cls-1" d="M137.68,41.47l-2.29-4.17c-.39-.71-1.47,0-.92.71l2.93,3.67c.13.16.37,0,.28-.21Z" transform="translate(-29.06 -17.2)"/><path class="cls-1" d="M127.68,35.26c5.83,10.07,13.18,18.26,21.43,26.51,4.07,4.07,8.44,7.88,12.72,11.73s8.79,8.69,14.06,11.48c7.17,3.79,13.3-4.89,8.36-10.84-3.61-4.35-8.93-7.57-13.37-11s-8.87-7.17-13.41-10.6c-4.29-3.25-8.61-6.51-13-9.64a101.34,101.34,0,0,0-15.6-8.8.88.88,0,0,0-1.2,1.2Z" transform="translate(-29.06 -17.2)"/><path class="cls-1" d="M157.53,58.25a170.07,170.07,0,0,0,20.09,24.62c7.84,7.87,16.11,15.23,24.6,22.39s17.42,14,26.14,20.94c4.64,3.7,9.24,7.45,13.94,11.07,4.85,3.74,9.76,8.17,15.12,11.14,7.15,4,14.42-5.34,8.72-11.3-4-4.2-9.25-7.61-13.86-11.18-4.43-3.42-9-6.72-13.44-10.06C229.59,109,220.42,102,211.1,95.26c-17.53-12.72-35.23-25.18-52.85-37.73-.43-.3-1,.3-.72.72Z" transform="translate(-29.06 -17.2)"/><path class="cls-1" d="M281.9,153.75c-.06-4.12-7.53-6.92-10.41-9-5.45-3.92-10.17-9-15-13.69-3.17-3.11-9,1-6.34,4.89,4.68,6.9,10.89,11.75,18.27,15.6,1.34.7,13.5,6.5,13.44,2.19Z" transform="translate(-29.06 -17.2)"/><path class="cls-1" d="M289.1,155.23C273,139.42,254.61,126,237.92,110.7c-8.31-7.59-16.36-15.49-24.15-23.62q-6-6.26-11.74-12.76c-3.83-4.33-7.19-9.09-12.21-12.1-4.47-2.69-11.55,1.87-9.45,7.26,2.17,5.58,6.05,9.63,10,14s8.27,8.88,12.54,13.18q12.53,12.63,26.19,24c17.56,14.7,36.84,29.11,58.47,37.07,1.46.54,2.51-1.53,1.48-2.54Z" transform="translate(-29.06 -17.2)"/><path class="cls-1" d="M146.61,32.68c2.83,6.53,8.21,12.54,12.79,17.93,4.73,5.56,9.82,10.85,15,16s10.6,10,16.19,14.71c5.13,4.3,11.45,11.21,18.44,11.52,4.56.2,6.19-4.67,4.7-8.18-2.41-5.66-10.88-9.41-15.69-13-5.93-4.41-11.64-9.1-17.17-14-5.26-4.66-10.26-9.56-15.23-14.52s-9.44-10.43-15-14.52c-2.7-2-5.11,1.72-4.08,4.08Z" transform="translate(-29.06 -17.2)"/><path class="cls-1" d="M129.09,34.82c3.85,6.24,10.31,11.06,15.73,15.9,6.12,5.46,12.34,10.79,18.74,15.92,12.3,9.85,25,20.39,38.77,28.09,6.53,3.65,11.76-5.72,5.78-9.9-12.7-8.88-26.32-16.42-39-25.36-6.2-4.36-12.36-8.8-18.41-13.37s-12-10.66-19-13.92c-1.64-.77-3.73.87-2.64,2.64Z" transform="translate(-29.06 -17.2)"/><path class="cls-1" d="M146.51,33.42c-2.07,9.6,4.81,22.12,12.22,27.85,3.23,2.49,9.36-.84,6.34-4.89-2.77-3.72-5.89-7.25-8.23-11.27s-3.67-8.48-6.27-12.22c-1-1.44-3.62-1.48-4.05.53Z" transform="translate(-29.06 -17.2)"/><path class="cls-1" d="M154.85,31.95l-.3-.31.54,2-.47.63h-2.56c2.45,1.19,4.87,5,6.93,6.9,2.68,2.42,5.47,4.75,8.21,7.1,5.51,4.71,11.24,9.2,16.87,13.77L201,75.81c5.47,4.44,10.82,9.75,17.3,12.63,6.08,2.7,11.25-3.85,7-9.09C219,71.49,208.75,66,200.61,60.1s-16-11.67-24.06-17.42c-4.27-3-8.6-6.13-13.05-8.92-2.55-1.6-6.17-4.54-9.29-4.46-3.9.1-4.88,5.86-.72,5.93a2,2,0,0,0,1.36-3.29Z" transform="translate(-29.06 -17.2)"/><path class="cls-1" d="M157.75,36.49q7.77,5.28,15.63,10.41c4.84,3.16,9.64,7.5,15,9.51,3.6,1.34,6.79-4.09,3.81-6.55-4.46-3.68-10.58-5.65-15.75-8.27q-8.39-4.24-16.85-8.33a1.87,1.87,0,0,0-1.89,3.23Z" transform="translate(-29.06 -17.2)"/><path class="cls-1" d="M160.59,35.85c17.78,16.64,37.06,31.69,55.14,48A547.62,547.62,0,0,1,267,136.24c3.67,4.34,10.88,3.14,14-1,3.74-4.84,1.81-10.4-2.64-13.82a50.54,50.54,0,0,0-4.94-3.27c-5.45-3.25-12.67,2.14-10.82,8.32a70.85,70.85,0,0,0,2.9,7.82l14.77-11.4C263,105.1,244.07,89.18,224.4,74.11c-19.5-14.94-39.67-29.6-60.77-42.2-2.42-1.45-5.16,2-3,3.95Z" transform="translate(-29.06 -17.2)"/><path class="cls-1" d="M197.22,84.83c11.5,10.82,23.22,21.42,35.52,31.32q9.09,7.31,18.37,14.38c6.35,4.85,12.71,10.27,19.68,14.2,7.67,4.32,17.14-6.72,9.78-12.67-12.27-9.92-26.39-17.85-39.23-27.06s-25.61-18.37-38.1-28c-4.5-3.46-10.07,4-6,7.81Z" transform="translate(-29.06 -17.2)"/><path class="cls-1" d="M207.8,79.4c11.38,10.84,22.78,21.68,34.06,32.62q8.3,8.05,16.46,16.26c5.43,5.46,10.78,12.73,17.49,16.59,6.39,3.67,14.41-3.8,10.32-10.32S274.57,123,268.7,117.91q-9.16-7.89-18.47-15.61C238,92.16,225.53,82.42,212.69,73.06c-3.73-2.72-8.16,3.22-4.89,6.34Z" transform="translate(-29.06 -17.2)"/><path class="cls-1" d="M300,155.19c-6.25-4.59-13.45-7.37-19.5-12.43a79.09,79.09,0,0,1-15.22-17c-4.85-7.31-15.38.51-9.64,7.44a88.79,88.79,0,0,0,19.66,17.59c6.69,4.39,15.08,9.33,23.2,10,3.25.25,3.64-4,1.51-5.56Z" transform="translate(-29.06 -17.2)"/><path class="cls-1" d="M293.39,154.12c-11.63-6-21.83-13.67-29.75-24.26-3.9-5.22-12.66-.54-9,5.25,8,12.68,21.25,22.49,36.3,24.77,3.25.49,5.89-4,2.43-5.77Z" transform="translate(-29.06 -17.2)"/><path class="cls-1" d="M309.57,163.11c.82-6.7-8.47-13.48-12.48-17.82C291.32,139,285.4,133,279.81,126.56s-11.07-12.95-16.3-19.66c-5.41-6.93-10.3-14.21-16.16-20.78-6.17-6.92-17,1.94-12.58,9.71,8.64,15.3,22.16,28.91,34.82,41A236.24,236.24,0,0,0,289.3,154c4.79,3.64,13.16,12.09,19.83,9.71a.62.62,0,0,0,.43-.56Z" transform="translate(-29.06 -17.2)"/><path class="cls-1" d="M313.75,159.91c-.7-2.58-.68-4.94-2-7.37a67.67,67.67,0,0,0-4.16-6.51c-3.12-4.52-6.54-8.87-9.83-13.27-6.79-9.1-13.83-18-20.73-27.05S263.17,88,256.2,79.14L245.88,66c-3.69-4.71-7.25-11-13.67-11.89-5.95-.84-10.94,2.27-11.32,8.63-.4,6.56,4.41,11.1,8.41,15.71L240.19,91c7.48,8.61,14.9,17.29,22.57,25.73,7.45,8.19,14.83,16.47,22.44,24.5,3.8,4,7.54,8.12,11.47,12,1.84,1.82,3.76,3.65,5.74,5.31,2.62,2.21,4.85,2.58,7.91,4a2.37,2.37,0,0,0,3.44-2.64Z" transform="translate(-29.06 -17.2)"/><path class="cls-1" d="M319.1,159.86c-2.77-10.45-10.19-20.17-15.92-29.2-6.13-9.67-13-19.07-19.9-28.18s-14-18-21.26-26.89c-3.76-4.62-7.55-9.21-11.42-13.74-4-4.71-8.56-10.83-15.45-10.25-3.47.29-7.48,2.4-8.18,6.22-1.32,7.25,2.5,11.48,7.12,16.56,4,4.39,8.08,8.7,12.1,13.07,7.82,8.5,15.46,17.16,23.07,25.85,7.37,8.42,14.73,16.91,22.3,25.16s14.73,18.11,24,24.11c1.8,1.16,4-.76,3.52-2.71Z" transform="translate(-29.06 -17.2)"/><path class="cls-1" d="M315.6,157.31c13-1.37-11.44-36.76-14.43-41.42-5.2-8.13-10.25-16.39-15.85-24.24-5.24-7.35-11.62-16.94-19.9-21.09-8.65-4.34-15.85,5.72-10,12.95,4.63,5.71,10.76,10.23,15.47,16s9.06,12.19,13.44,18.37c4.88,6.88,9.89,13.65,15,20.36,2.27,3,4.61,5.9,7,8.76a49.92,49.92,0,0,0,3.91,4.16c1.06,1,3.3,3.56,3.92,2.86-1,1.12-.43,3.48,1.36,3.29Z" transform="translate(-29.06 -17.2)"/><path class="cls-1" d="M191.54,29.28c12.91,6.31,25.07,13.2,35.47,23.3a101,101,0,0,1,13.3,15.24c4.14,6,7.14,15.88,14.47,18.32,4.08,1.36,7.86-1.6,9.21-5.23,2.89-7.76-5.82-17.66-10.33-23.39a93,93,0,0,0-17.3-17.05C224,31.21,208.63,24.34,193,23.72c-2.87-.11-4.18,4.25-1.51,5.56Z" transform="translate(-29.06 -17.2)"/><path class="cls-1" d="M209,33.89c5.29,3,11.39,3.63,16.51,7.23,5.8,4.08,9.5,10.28,13.41,16.05,4.33,6.41,8.61,12.85,13.07,19.17s8.58,14,15.14,18.57c5.09,3.54,11.82-2.31,10.22-7.86-2.37-8.26-9.55-15.76-14.61-22.57-5.39-7.24-10.71-14.7-16.52-21.61-4.89-5.81-11-11-18.3-13.51-6-2.06-14-2.93-19.32,1.31a2.06,2.06,0,0,0,.41,3.21Z" transform="translate(-29.06 -17.2)"/><path class="cls-1" d="M162.4,20.66c9.47,11.82,21.67,21.85,32.76,32.08,5.6,5.17,11.08,10.47,16.71,15.61,5.27,4.81,10.77,11.88,18.22,12.39,4,.27,7.55-4.36,6.2-8.14-2.5-7-10.67-10.41-16.59-14.39-6.3-4.23-12.64-8.46-18.75-13-12.18-8.94-23.49-19.45-36.13-27.71-2-1.33-3.72,1.48-2.41,3.12Z" transform="translate(-29.06 -17.2)"/><path class="cls-1" d="M161,22.65c5.49,8,13.11,14.91,20,21.67q5.35,5.22,10.88,10.24c3.64,3.31,7.35,7.4,11.85,9.47a4.47,4.47,0,0,0,5.39-7c-3-3.63-7.41-6.09-11.13-8.88q-6.32-4.73-12.44-9.71c-7.37-6-14.19-13-21.93-18.45-1.56-1.11-3.71,1.08-2.64,2.64Z" transform="translate(-29.06 -17.2)"/><path class="cls-1" d="M163.18,32.51c5.76,5.38,13,10.84,20.86,12.68,3.39.8,6.65-3.69,3.64-6.25-6.17-5.27-14.83-8.08-22.68-9.56-1.72-.32-3.29,1.76-1.82,3.13Z" transform="translate(-29.06 -17.2)"/><path class="cls-1" d="M164.7,28c3.9,2.9,7.76,5.85,11.74,8.63,3.61,2.52,7.34,5.83,11.77,6.6a3.19,3.19,0,0,0,3.07-5.28c-3.1-3.59-8.28-5.2-12.52-7.09s-8.65-3.63-13-5.42c-1.59-.66-2.24,1.7-1.08,2.56Z" transform="translate(-29.06 -17.2)"/><path class="cls-1" d="M170.65,24.33c8.86,9.94,20,18.78,30.28,27.23q7.68,6.32,15.47,12.5c5.36,4.25,10.63,10,17.68,10.59,5.78.45,8.1-6.18,6.06-10.56-2.65-5.68-10.53-8.83-15.63-12.1q-8.4-5.38-16.69-10.93c-10.91-7.28-21.77-15.51-33.21-21.89-3.32-1.85-6.42,2.39-4,5.14Z" transform="translate(-29.06 -17.2)"/><path class="cls-1" d="M221.07,54.29a34,34,0,0,1-.06-10.8l-8.21,2.17a116.49,116.49,0,0,1,9.64,9c3.12,3.26,5.75,7,9.66,9.4,5.52,3.34,11.06-3.14,8.4-8.4-2.19-4.33-6.46-7.21-10.24-10.06a118.48,118.48,0,0,0-11.5-7.61c-5.1-3-9.31,3.57-6,7.71A34.18,34.18,0,0,1,218,55.13a1.58,1.58,0,0,0,3-.84Z" transform="translate(-29.06 -17.2)"/><path class="cls-1" d="M103.6,120.45c13,7.37,29.64,4.12,41.25-4.59a58.27,58.27,0,0,0,14.86-17c4.1-6.81,8.48-15.18,10.28-22.92,2.76-11.88-14.09-20-20.31-8.56-3,5.52-4.48,11.8-7.07,17.53a77.12,77.12,0,0,1-8.68,14.76c-2.77,3.68-6.37,7.46-10.5,9.63-5.23,2.75-11.7,2.81-17.45,2.35-4.79-.39-6.3,6.62-2.39,8.83Z" transform="translate(-29.06 -17.2)"/><path class="cls-1" d="M102.42,114.66c10.56,0,21.43-5.29,30.29-10.62a113,113,0,0,0,13.37-9.47c4.47-3.66,9.51-7.59,11.23-13.29,2.05-6.8-5.41-11-11-8.45-4.37,2-7.41,6.74-10.8,10a101.85,101.85,0,0,1-10.71,9.24c-7.74,5.69-16.69,9.56-24.38,15.21-3,2.2-2.21,7.31,2,7.33Z" transform="translate(-29.06 -17.2)"/><path class="cls-1" d="M114.3,109.62c6.14,2.94,14.16-.48,19.84-3.16,6.74-3.18,14-8.7,16.22-16.09,1.22-4.1-3.93-8.74-7.73-5.94-5.07,3.73-8.65,9-13.57,13-4.56,3.7-11.09,5.27-15.13,9.43a1.77,1.77,0,0,0,.36,2.76Z" transform="translate(-29.06 -17.2)"/><path class="cls-1" d="M114.53,115.68c11-2.43,21.66-12.13,28-21.06,4.2-5.95-5.7-11.77-9.8-5.73A85.58,85.58,0,0,1,123.11,101c-3.56,3.63-7.85,6.19-11.59,9.55-2.44,2.19.18,5.8,3,5.18Z" transform="translate(-29.06 -17.2)"/><path class="cls-1" d="M101.42,108.22c5.3-1.14,10.47-5.13,15.07-7.91,4.95-3,10-5.67,15.19-8.21a123.67,123.67,0,0,1,15.45-6.36c6.28-2.09,13.4-2.6,17.18-8.65,2.22-3.55,1-9.3-2.94-11.2-7.32-3.58-14.3.44-21.13,3.51a129.26,129.26,0,0,0-16.62,8.92A115.46,115.46,0,0,0,108.51,90c-4.18,3.78-9.37,8.91-10.89,14.46a3.12,3.12,0,0,0,3.8,3.8Z" transform="translate(-29.06 -17.2)"/><path class="cls-1" d="M97.6,105.82c7.17-8.17,13.63-16.52,23.4-21.75a80.27,80.27,0,0,1,17.49-6.94c6.72-1.79,15-1.67,18.65-8.57,1.49-2.78,1.34-6.77-1.16-9-6.78-6-15.62-2.67-23.29-.13s-15.32,5.77-21.77,10.62C100.66,77.76,90,89.54,91.57,103.33c.31,2.74,3.8,5,6,2.5Z" transform="translate(-29.06 -17.2)"/><path class="cls-1" d="M92,102.36c-1.62-12.83,16.71-23.12,26.26-28.14A76.47,76.47,0,0,1,135,67.61C141.46,66,147.85,66,154.35,65c3-.45,5.79-3.61,6.42-6.42a10.63,10.63,0,0,0,0-4.89c-.56-2.77-3.53-6-6.42-6.42-16.69-2.26-34.86,5.29-47.63,15.69C100.31,68.17,96,74.52,91.85,81.55c-3.74,6.31-7,14.16-4.13,21.38.82,2,4.58,2.07,4.25-.58Z" transform="translate(-29.06 -17.2)"/><path class="cls-1" d="M86.14,105.15c1,.84,1.45,1.76,2.59,2.48s2.46,1.3,3.68,1.94a31.41,31.41,0,0,0,7.52,3.29c3.74.85,6.12-4.27,2.66-6.31a31.25,31.25,0,0,0-7.73-2.79c-1.33-.37-2.67-.85-4-1.11s-2.36.08-3.65,0a1.48,1.48,0,0,0-1,2.5Z" transform="translate(-29.06 -17.2)"/><path class="cls-1" d="M95,104.89c.17,4,1.57,10.85,6,12.21a3,3,0,0,0,3.6-3.6c-.59-1.93-2.22-3-3.49-4.46a15.11,15.11,0,0,1-2.68-4.62c-.65-1.74-3.53-1.64-3.45.47Z" transform="translate(-29.06 -17.2)"/><path class="cls-1" d="M90.58,104.49C89.92,99.91,93.92,97,97,94.57c2.6-2.1,5-4.43,7.45-6.67,4.91-4.43,9.67-8.86,15.3-12.38a60.37,60.37,0,0,1,18.63-8.11c6.86-1.57,14.37,0,20.05-4.65,3.17-2.59,2.32-7.46,0-10.17-6.2-7.25-20.29-3.58-28-.86a72.37,72.37,0,0,0-23.58,13.84c-6.41,5.57-12.49,12.21-16.66,19.66-3.37,6-7,14.29-3.32,20.85,1.23,2.18,4.05.57,3.74-1.58Z" transform="translate(-29.06 -17.2)"/><path class="cls-1" d="M118.11,64.4c5.37-.89,10.37-3.66,15.89-4.48s11.2.23,16.82-.19c6.44-.49,7.15-8.45,1.46-10.8-6.75-2.78-14.4-1.26-21.07,1.26-5.48,2.07-12.71,5.74-15.35,11.28a2,2,0,0,0,2.25,2.92Z" transform="translate(-29.06 -17.2)"/><path class="cls-1" d="M41.27,153.49c-1.81-.66-4.27-.71-5.4,1.08-1.85,2.94,1.86,8.29,3.5,10.58,4.86,6.8,13.72,16.31,22.79,16.19,3.9-.05,6.52-5.28,3.35-8.09-4.41-3.9-10.8-5.46-15.64-9-3.88-2.85-7.66-9.51-12.4-10.57l.78,1.91L41,154.28a.41.41,0,0,0,.22-.79Z" transform="translate(-29.06 -17.2)"/><path class="cls-1" d="M41,160.51a20.5,20.5,0,0,0,5.72,13.4c3.36,3.5,9.58,8.29,14.15,4.49a3.6,3.6,0,0,0,.56-4.32c-1.86-3.44-6.78-3.06-9.83-5.11a18.62,18.62,0,0,1-7-8.95c-.65-1.81-3.67-1.69-3.56.48Z" transform="translate(-29.06 -17.2)"/><path class="cls-1" d="M38.23,156.77c-2.91,6-1.54,12.39,2.56,17.51,3.66,4.57,12.3,10,17.63,5.22,1.62-1.45,1.27-3.88,0-5.38-1.48-1.74-3.41-2-5.44-2.71a16.05,16.05,0,0,1-5.25-3.34,21.67,21.67,0,0,1-6.18-10.88,1.83,1.83,0,0,0-3.31-.43Z" transform="translate(-29.06 -17.2)"/><path class="cls-1" d="M44.07,159.65A20,20,0,0,0,54,169.58c4.18,2,10,3.88,14.25,1.1a3.8,3.8,0,0,0-.89-6.84c-3.47-1.33-7.47-.29-11.12-1.13a31.85,31.85,0,0,1-10.38-4.82c-1.17-.8-2.25.71-1.76,1.76Z" transform="translate(-29.06 -17.2)"/><path class="cls-1" d="M46.49,154.83c1.72,7.46,12.68,12.25,19.61,9.67,4.55-1.7,4.17-8.86-1.2-8.84-2.9,0-5.57.49-8.45-.18-2.65-.62-5-2.08-7.52-3.09-1.5-.6-2.75,1.12-2.45,2.45Z" transform="translate(-29.06 -17.2)"/><path class="cls-1" d="M48.8,156.86c5.83,4.75,18.78,8.16,23.83.62,1.64-2.45-.5-6.29-3.48-6.07-3.28.24-5.52,2.42-8.69,3.12a17.19,17.19,0,0,1-9.78-.89c-1.77-.66-3.35,2-1.88,3.23Z" transform="translate(-29.06 -17.2)"/><path class="cls-1" d="M60.13,155.19c4.3,2.91,12.58,1.25,14-4.33a4,4,0,0,0-5.84-4.49c-1.65.94-2.52,2.55-4,3.71a14.32,14.32,0,0,1-3.72,2,1.72,1.72,0,0,0-.41,3.1Z" transform="translate(-29.06 -17.2)"/><path class="cls-1" d="M59.16,153.65a41.88,41.88,0,0,0,14.87.42c2.28-.35,3.54-3.21,3-5.25-.67-2.43-3-3.34-5.25-3a39.58,39.58,0,0,0-13,4.71,1.71,1.71,0,0,0,.41,3.1Z" transform="translate(-29.06 -17.2)"/><path class="cls-1" d="M41.39,153.09c-.27,3,3,5.35,5.05,7a66.33,66.33,0,0,0,8.63,6.24c4.14,2.44,9-3.47,5.24-6.8a60.12,60.12,0,0,0-13.88-9.36,3.41,3.41,0,0,0-5,2.9Z" transform="translate(-29.06 -17.2)"/><path class="cls-1" d="M39,154.19l-1.49,1.15a1.46,1.46,0,0,0,2.07,2.07l1.15-1.49A1.23,1.23,0,0,0,39,154.19Z" transform="translate(-29.06 -17.2)"/><path class="cls-1" d="M40.08,154.27c-1.22-.38-3.51-.77-4.29-1.9-1.47-2.14-5.37-2.18-6,.78-2.38,11.4,9.94,22.58,20.74,22.43,3.74-.05,5.52-5.44,2-7.3s-7.29-4-10.1-6.83-4.64-6.56-7.15-9.74v4.63c1-.76,3.43-.46,4.58-.46a.82.82,0,0,0,.22-1.61Z" transform="translate(-29.06 -17.2)"/><path class="cls-2" d="M189.5,228.49c.55,4.09,3.09,6.89,6.16,9.49,3.65,3.1,9.58,7.19,13.92,2.8a6.23,6.23,0,0,0,.87-7.48c-1.24-2.12-3.51-2.94-5.61-3.89-3.28-1.49-6.71-4.25-10.3-4.75-2.2-.31-5.42,1-5,3.83Z" transform="translate(-29.06 -17.2)"/><path class="cls-2" d="M198.88,233.38a10.15,10.15,0,0,1,3.47,1c1.59.88,2.65,2,4.84,2.12a4.06,4.06,0,0,0,3.89-5.11c-1.51-4.28-7.15-5.45-11.24-5.18a3.65,3.65,0,0,0-3.56,3.14c-.19,1.6.79,3.72,2.6,4Z" transform="translate(-29.06 -17.2)"/><path class="cls-2" d="M189.51,228.83a44.83,44.83,0,0,0,3.28,3.12c1.53,1.08,3.08,2.11,4.58,3.24,2.72,2.06,5.64,4.59,9.12,4.82,3.21.21,4.41-3.37,3.33-5.81-1.41-3.18-5.73-5-8.79-6.31-1.51-.63-3-1.24-4.58-1.79-1.91-.67-3.5-.53-5.49-.78-1.75-.21-2.72,2.39-1.45,3.49Z" transform="translate(-29.06 -17.2)"/><path d="M75.8,151.56c-7.19,3.7-10.22,13.51-12.4,20.79-2.72,9.08-4.68,18-4.69,27.55,0,9.06,1.24,17.9,4.8,26.27,2.72,6.41,6.64,14.54,13.71,17,2,.68,2.7-2,1.31-3.1-7.32-5.62-10.68-12.16-13-21.06a69.37,69.37,0,0,1-2.31-23.09c.67-7.88,2-15.71,4.93-23.06,2.7-6.69,7.79-13.66,8.12-21a.35.35,0,0,0-.53-.3Z" transform="translate(-29.06 -17.2)"/><path d="M79.91,183.29C76.63,191,78,200.93,77.24,209.14c-.77,8.7-2.31,17.48-2.15,26.24.24,13.08,6.89,26.38,21,28.19,2.14.27,2.66-3.46.51-3.79C81,257.36,80.06,238.41,80.86,226.11c.45-6.91.89-13.89,1.74-20.77s3.13-14.72,1.58-21.49c-.42-1.82-3.47-2.44-4.27-.56Z" transform="translate(-29.06 -17.2)"/><path d="M107.13,207.7c-3.57,9.84-6,20.36-8.6,30.5-2.23,8.77-3.49,17.64-1.3,26.54,3.6,14.65,15.66,28.18,31,30.5,1.13.17,2.09-1.43.86-2-13.1-6.38-23.85-17.39-26.82-32.08-1.72-8.48.32-16.83,2.29-25.08,2.16-9,4.83-18.15,6.26-27.33a1.93,1.93,0,0,0-3.72-1Z" transform="translate(-29.06 -17.2)"/><path d="M142.87,298.13c12.74.58,23.28-2,33.79-9.47,11-7.77,20.43-17.73,30.35-26.75,9.56-8.7,20.29-16,28.55-26.09,3.81-4.64,7.2-10.07,8.81-15.9S244.2,208,242,202.52a2.4,2.4,0,0,0-4.62,1.27c1.06,5.5-1.09,11.52-2.66,16.78a39.43,39.43,0,0,1-8.66,15c-7.59,8.39-17.08,14.79-25.11,22.73-8.38,8.28-15.71,17.46-25,24.79-9,7.08-21.31,14.72-33,14.66a.18.18,0,0,0,0,.35Z" transform="translate(-29.06 -17.2)"/><path d="M78.61,147.61c-6.46-.69-9.26-5.24-10.67-11.19-1.55-6.55-.81-12.21,5.43-15.78a14.33,14.33,0,0,1,14.39-.14c4.54,2.67,6.44,6.92,8.44,11.5,1.17,2.69,5,1.07,5.12-1.39.4-7.76-5.88-14.78-12.81-17.4a21.53,21.53,0,0,0-22.43,5c-6.48,6.47-6.45,15.66-3.48,23.88,2.5,6.95,9.53,13.32,17.2,9.93,2.38-1.05.83-4.18-1.19-4.39Z" transform="translate(-29.06 -17.2)"/><path d="M73.07,129c1.32.51,2.87.3,4.26.65a16.52,16.52,0,0,1,4.74,2.18c2.91,1.84,4.17,4.9,6.85,6.79,1.61,1.13,3.77-.39,3.78-2.17,0-4.31-5-8.36-8.64-10-2.87-1.29-9.25-3-11.78-.43a1.8,1.8,0,0,0,.78,3Z" transform="translate(-29.06 -17.2)"/><path d="M83.7,130.45c-.06-.05-.77-.61-.47-.34s-.3-.39-.37-.47a2.66,2.66,0,0,0-2.62-.69,6.07,6.07,0,0,0-4.56,4.39A8.79,8.79,0,0,0,77.33,141c1.64,1.8,5.48,1.08,5.86-1.55a7.45,7.45,0,0,0-.13-3.24,5.36,5.36,0,0,1-.3-2c.08-1.06,1.16-2,.77-3.47V132l.06-.36-.73.95.3-.08a1.24,1.24,0,0,0,.54-2.05Z" transform="translate(-29.06 -17.2)"/><path d="M242.64,211.06c7.8-3,11.05-12.6,14.5-19.48,2.45-4.91,5.3-9.55,8.11-14.25s6.41-8.32,9.88-12.53a2.7,2.7,0,0,0-3.26-4.22c-7.95,3.89-11.89,15.86-15.2,23.35-4,9.05-7,19.52-14.54,26.26-.38.34,0,1.07.51.88Z" transform="translate(-29.06 -17.2)"/><path d="M197.6,184.16c-4.78,1.61-9.29,8.5-7.8,13.64,1.78,6.17,8.69,3.88,12.09.77l-3.63-2.11c-.74,2.73-1.24,6.46,1.26,8.49,2.74,2.23,6.14.47,8.08-1.85l-3.16-1.31c.28,3,1.19,8.88,5.42,7.33,2-.72,3.57-3.36,4.84-5a28,28,0,0,0,4.76-8.9c.92-2.86-3.59-4.85-4.92-2.07-1.11,2.33-2.07,4.74-3.07,7.12a23.57,23.57,0,0,1-1.81,4.33q-.59,2.72-1.14.87a4.4,4.4,0,0,1-.37-3.72,1.86,1.86,0,0,0-2.79-1.6c-2.94,1.93-3.69.13-2.91-2.57.64-2.19-2.07-3.48-3.63-2.11q-6.49,1.27-3.58-3a17.71,17.71,0,0,1,1.15-2A45.44,45.44,0,0,0,199,186c.39-.89-.27-2.18-1.39-1.8Z" transform="translate(-29.06 -17.2)"/><path d="M123,34.65c-1.46,13.46,11.19,23.66,19.64,32.28,11.17,11.39,22.69,22.41,34.26,33.4,21.22,20.14,43.9,38.76,69.34,53.38,14.23,8.18,29.53,14.24,45,19.75,4.23,1.51,6.29-5.69,1.87-6.77-34.41-8.33-63.78-31.73-90.85-53.46-13.89-11.14-27-23.67-40.15-35.71-7.37-6.75-14.91-13.3-22.39-19.92-6.87-6.08-14.87-13-14.57-23,0-1.38-2-1.32-2.11,0Z" transform="translate(-29.06 -17.2)"/><path d="M253.07,135c2.82,4.57,7,8,11,11.53q6.48,5.79,13,11.57c6.32,5.61,14.16,15.28,23.08,16.61,3.47.52,6.82-1,9.9-2.46a14.66,14.66,0,0,0,7.15-7.24c3.62-7.72.63-17.56-2.81-24.77-4.6-9.65-11.49-18.12-17.68-26.77-6.76-9.43-13.43-18.91-20.17-28.35-11.63-16.32-23.11-34.32-38.87-47.06-14.53-11.75-40.19-19.65-57.16-8.62-2.26,1.47-.88,5.31,1.89,4.49,8.09-2.4,15.81-3.82,24.24-2.32a56.36,56.36,0,0,1,22.34,9.49c14.28,10,24.58,23.06,34.9,36.92,11.49,15.43,23.44,30.56,34.66,46.18,4.9,6.83,9.7,13.91,12.37,22,2.33,7,6.28,26.1-6.85,22.43-9.84-2.75-16.5-9.62-24-16.25s-15.24-15.64-24.4-19.91c-1.59-.74-3.62.84-2.56,2.56Z" transform="translate(-29.06 -17.2)"/><path d="M163.54,33.56c-.8-1.22-4.68-5.75-4.45-7.05l3.54-3.63a24.55,24.55,0,0,1,3.16,1.62c1.3.72,2.57,1.52,3.85,2.29,4.86,3,9.49,6.25,14.28,9.33,9.89,6.37,18.61,14,28,21,3.49,2.64,7.62-3,4.61-6C204.1,39.05,187.89,29.43,172.1,22.57c-4.61-2-12.39-6.7-16.66-1.57-4.08,4.91,3.21,10.69,6,14.19.95,1.19,2.95-.36,2.11-1.63Z" transform="translate(-29.06 -17.2)"/><path d="M145.34,42.82a10.85,10.85,0,0,0-.87-4c-.83-1.87-3.64-5.72.57-5.67,2,0,4.34,1.58,6.17,2.37l6.39,2.75c3,1.31,4.9-3.18,1.76-4.17-3.43-1.08-6.85-2.19-10.29-3.25-2.13-.65-4.6-1.36-6.73-.32A5.55,5.55,0,0,0,139.54,35c-.35,3.17,2.39,5.42,3.39,8.16.45,1.22,2.48,1.15,2.41-.33Z" transform="translate(-29.06 -17.2)"/><path d="M129.89,39.33a.06.06,0,0,0,0-.12.06.06,0,0,0,0,.12Z" transform="translate(-29.06 -17.2)"/><path d="M125.24,40c-2.32-5.08,1.1-2.56,2.79-1.06,1.24,1.1,2.35,2.63,3.49,3.84a82,82,0,0,0,7.57,7c4.57,3.77,10.07,8.66,15.87,10.2a3.06,3.06,0,0,0,3-5.08c-3.67-3.78-9.14-6.26-13.5-9.21-5.06-3.42-9.89-7.16-14.78-10.82-5.74-4.3-10,.44-6,6.06a.94.94,0,0,0,1.62-.94Z" transform="translate(-29.06 -17.2)"/><path d="M161.28,64.91C174.22,76,186.61,87.83,199,99.56a5.45,5.45,0,0,0,5.31,1.4l1.13-.39a4,4,0,0,0,2.79-3.66l.08-1.21a5.43,5.43,0,0,0-2.7-4.71C191,82.08,176.42,73.17,162.35,63.54c-.81-.56-1.82.73-1.06,1.38Z" transform="translate(-29.06 -17.2)"/><path d="M171,45.94c5.13,6.26,11.16,11.57,17,17.17,5.49,5.29,10.56,12,17.4,15.6,5.75,3,9.86-4.73,5-8.48-6.11-4.68-13.91-6.92-20.39-11.11s-12.23-9.32-18.31-14c-.51-.39-1,.4-.64.83Z" transform="translate(-29.06 -17.2)"/><path d="M217.58,65.47a197.47,197.47,0,0,0,15.48,15.46c5.27,4.93,10.42,10.33,16.12,14.74,4.46,3.46,10.8-2.77,6.28-6.28-5.76-4.48-12.1-8.3-18-12.55-6.17-4.4-12.09-9.07-18.49-13.12-1.12-.71-2.13.83-1.35,1.74Z" transform="translate(-29.06 -17.2)"/><path d="M82.09,112.32a.64.64,0,0,0,0-1.29.64.64,0,0,0,0,1.29Z" transform="translate(-29.06 -17.2)"/><path d="M83,111.44c-2.8-6.92,1.55-16.18,4.88-22.29A75.51,75.51,0,0,1,99.13,73.42a71.19,71.19,0,0,1,14.94-12.23c6-3.61,12.07-7,19-8.41,1.76-.35,1-3.12-.75-2.71-7.45,1.74-14.65,3.47-21.25,7.43A66.76,66.76,0,0,0,93.44,72.77,61.52,61.52,0,0,0,82.93,91.65c-2.17,6.35-4.78,14.13-1.72,20.55.48,1,2.24.28,1.82-.77Z" transform="translate(-29.06 -17.2)"/><path d="M99.86,126.75l0,.56L98,127.08q-.4-1.56-.12,0,.42,1.06.87,2.1a11.93,11.93,0,0,0,4.11,4A23.73,23.73,0,0,0,116,136.67c8.59.07,15.9-3.73,22.43-9,6-4.92,11.17-12,15.57-18.38,2.71-4,5.22-8,7.6-12.21,2.14-3.75,5-7.88,5.67-12.2.34-2.35-2.25-4.35-4.2-2.45-3.14,3.07-4.93,7.54-7.3,11.23a132.68,132.68,0,0,1-7.81,11c-5.34,6.73-11.21,12.59-19.34,15.83a45.89,45.89,0,0,1-11.14,2.86c-4.51.56-8.92-.73-13.41-.6-1.68.05-9.36,2.07-5.64,5a.9.9,0,0,0,1,.13l.32-.14a.59.59,0,0,0,.12-.92Z" transform="translate(-29.06 -17.2)"/><path d="M162.68,89.52c.45,4.24,4.28,8,7.45,10.58,3.44,2.75,8.73,6.23,13.23,5.51,2.53-.4,2.57-3.51,1.34-5.08s-3-2.09-4.86-3c-2.05-1-4-2.21-6-3.32-3.23-1.81-6.78-4.61-10.47-5.28-.33-.06-.78.15-.74.56Z" transform="translate(-29.06 -17.2)"/><path d="M164.69,90.24c2.53,2.56,5,5.21,7.63,7.68,2.21,2.08,4.7,4.79,7.8,5.35,1,.18,2.3-.68,1.87-1.87-1.1-3-3.92-4.88-6.41-6.78-3-2.28-6.17-4.34-9.26-6.49-1.28-.89-2.68,1.05-1.63,2.11Z" transform="translate(-29.06 -17.2)"/><path d="M162.45,94.32c3.71,5.58,10.07,9.43,15.78,12.68,5.45,3.1,12.93,7.36,19.34,7.18a1.77,1.77,0,0,0,.89-3.27c-2.73-2.06-6.08-2.9-9.19-4.26s-6.21-2.86-9.23-4.45c-5.56-2.92-10.7-6.93-16.53-9.26-.76-.3-1.49.73-1.06,1.37Z" transform="translate(-29.06 -17.2)"/><path d="M75.89,150.79c2,7.28,16.91,4.18,21.66,2.15l-4.09-4.09c-3.94,6.05-10.65,8-16,12.53A33.15,33.15,0,0,0,67,176.5c-.45,1.31,1.31,2.82,2.49,1.91,5.19-4,9.8-8.33,14.61-12.76,4.6-4.23,10.08-8.37,14-13.18,1.69-2.05.18-6.14-2.91-5-3.81,1.41-7.42,2.48-11.55,2.32-2.59-.1-5.35-1.07-7.59.46a.48.48,0,0,0-.21.53Z" transform="translate(-29.06 -17.2)"/><path d="M61.72,192.59c2.54-6.87,8.95-14.09,13.9-19.41,4.4-4.73,10.54-8.15,14.22-13.44,1.06-1.52-.68-3.27-2.25-2.92-7.3,1.62-13.54,9.26-18,14.83-4.92,6.14-9.18,12.74-8.44,20.86a.29.29,0,0,0,.57.08Z" transform="translate(-29.06 -17.2)"/><path d="M67.8,178.09a76.43,76.43,0,0,1,8.68-10.7c3.11-3.19,6.68-5.54,10.08-8.36,3-2.5-.83-7-4-5.23C73.95,158.42,68,168.07,66,177.33a1,1,0,0,0,1.82.77Z" transform="translate(-29.06 -17.2)"/><path d="M76.87,164a10.45,10.45,0,0,1,2.07-5.09c1.17-1.52,2.77-2.3,3-4.35.12-1.1-1-1.84-1.93-1.93-2.45-.22-4.06,2.74-4.8,4.71a13.07,13.07,0,0,0-.58,6.65c.17,1.11,2.1,1.13,2.26,0Z" transform="translate(-29.06 -17.2)"/><path d="M76.24,162.6a15.76,15.76,0,0,1,1.66-2.52,23.08,23.08,0,0,1,1.46-2.43c1.27-1.74,2.7-2.95,2.76-5.27a3,3,0,0,0-3.7-2.82c-2.75.7-3.8,3.3-4.48,5.8a18.14,18.14,0,0,0-.59,3.17c-.12,1.4.47,2.41.6,3.76a1.18,1.18,0,0,0,2.3.31Z" transform="translate(-29.06 -17.2)"/><path d="M74.67,154.88c-3.61,3.07-6,8.4-4.48,13.08a2.76,2.76,0,0,0,5.4-.73c.07-3.29.37-6.19,2.8-8.63s-1.17-5.89-3.72-3.72Z" transform="translate(-29.06 -17.2)"/><path d="M148.92,198.89c7-4.7,14.41-6.88,22.74-5,1.42.33,2.46-1.75,1-2.46-8.63-4.32-19.66-3.08-26.26,4.2-1.48,1.64.46,4.57,2.48,3.21Z" transform="translate(-29.06 -17.2)"/><path d="M134.65,260.67c-1.12,7.25,2.19,13.7,8.36,17.64,6.37,4.07,16.31,3.15,22.83-.13.74-.37.43-1.75-.44-1.63-6.47.83-11.85,1.4-17.89-1.74-5.17-2.69-8.63-7.59-8.49-13.54.06-2.44-4-3.11-4.36-.59Z" transform="translate(-29.06 -17.2)"/><path d="M167.17,272.53a9.75,9.75,0,0,0,4.38-.66,6.67,6.67,0,0,0,3.38-3.28,1.59,1.59,0,0,0-2.48-1.91c-.92.84-1.78,1.69-2.68,2.57a15.81,15.81,0,0,1-2.83,2.41.47.47,0,0,0,.24.87Z" transform="translate(-29.06 -17.2)"/><path d="M153.76,232.24c5.61,0,11,.81,15.48,4.49,3.79,3.13,5,7.64,7.29,11.75a1,1,0,0,0,1.71-.22c3.63-12.74-14.58-22.26-24.72-16.89a.47.47,0,0,0,.24.87Z" transform="translate(-29.06 -17.2)"/><path d="M59.29,185.85c-4,2.08-8.28-.81-11.88-2.49a43.75,43.75,0,0,1-10.47-6.83c-.66-.58-1.84.18-1.29,1,4.18,6.12,19.14,21.88,26.36,11.05,1.17-1.75-1.07-3.59-2.72-2.72Z" transform="translate(-29.06 -17.2)"/><path d="M33.81,171.28a21,21,0,0,1-1.9-11.3c.13-1.47.13-3.6,1.83-2.31,1.45,1.1,2.67,3.7,3.75,5.21a.94.94,0,0,0,1.62-.94c-1.16-2.25-5.19-12-8.89-6.6-3.08,4.49.66,12.34,3.28,16.12a.18.18,0,0,0,.3-.18Z" transform="translate(-29.06 -17.2)"/><path d="M41.17,164.07A12.8,12.8,0,0,1,39,156c0-.61-.88-.59-.94,0a13.82,13.82,0,0,0,2,8.76c.44.71,1.57,0,1.11-.65Z" transform="translate(-29.06 -17.2)"/><path d="M44.09,160.22l1.41,1.41a.06.06,0,0,0,.08-.08l-1.41-1.41a.06.06,0,0,0-.08.08Z" transform="translate(-29.06 -17.2)"/><path d="M44.23,160.11a22.52,22.52,0,0,0,7.59,5.71c1.15.55,2.42-.85,1.42-1.84a37.2,37.2,0,0,1-3.6-4.14c-.81-1.08-1.67-2.85-2.92-3.41a.6.6,0,0,0-.88.5c-.2,1.52,1.25,3.37,2.11,4.53a36.41,36.41,0,0,0,3.64,4.17l.83-2a10.79,10.79,0,0,1-7.93-3.78c-.16-.17-.39.08-.25.25Z" transform="translate(-29.06 -17.2)"/><path d="M48.94,156.88a19.16,19.16,0,0,0,9.38,2.88,1,1,0,0,0,1-1c-.23-2-1.16-2.39-2.16-4-1.81-2.88-.07-.65.51-.48.92.26,1.72.83,2.69,1.06,3.57.84,8-.3,9.94-3.59,1.17-2-1.33-5-3.44-3.44-2.72,2-4.48,3.39-8,2-1.4-.57-2.79-1.44-4.23-.38-4.19,3.07,2.07,6.56,2.6,9.11l1-1.31a23.94,23.94,0,0,1-9.33-.92.06.06,0,0,0,0,.11Z" transform="translate(-29.06 -17.2)"/><path d="M31.3,153.81a37,37,0,0,1,7.26,10.79c.81,1.85,4.12,1,3.88-1.05-.19-1.55-1.26-3.28-1.3-4.72q-1.13-1.35.48-1.22,1-.63,1.23.38c.58.35,1.35,2.34,1.68,2.84a13.79,13.79,0,0,0,7.18,5.93c3,1,4.45-3.27,2.07-4.91q-3.23-1.89-2-5.68l-3,.8c2.59,2.16,4.65,3.67,8.07,4,2.84.27,2.87-3.7.62-4.59s-4.43-1.2-6.5-2.23a1.83,1.83,0,0,0-2.65,1.08,11.92,11.92,0,0,0,2.25,10.86l2.62-4.49c-4.84-1.55-6.89-11.05-12.95-9.92-6.32,1.19-2.3,8.4-1.92,11.9l3.88-1.05a17.26,17.26,0,0,0-10.12-10c-.74-.3-1.23.77-.74,1.27Z" transform="translate(-29.06 -17.2)"/><path d="M39.29,166.15c-3,1.75,1.09,6.73,2.53,8.06,2.94,2.72,7.63,5.36,11.73,4.36,3.61-.89,3.4-6.11,0-7.1-1.47-.43-2.94-.22-4.42-.53a11.48,11.48,0,0,1-4.27-1.87c-1.26-.88-3.75-4-5.57-2.92Z" transform="translate(-29.06 -17.2)"/><path d="M142.23,89.64A41,41,0,0,0,131.61,96c-3.74,3.17-8.29,4.15-12.18,7-2.24,1.62-2.81,5.27,0,6.77,6.11,3.26,12.12-.06,16.9-4.19,4.51-3.89,6.66-9.15,7-15a.88.88,0,0,0-1.11-.85Z" transform="translate(-29.06 -17.2)"/><path d="M91.35,107.34a50,50,0,0,1,7-14c2.85-3.84,7.14-6.31,9.84-10.14,1.64-2.34-1.08-5.65-3.7-4.81-5.27,1.7-9.22,7.35-12,11.92a35.57,35.57,0,0,0-5.18,16.47c-.17,2.4,3.33,2.64,4,.54Z" transform="translate(-29.06 -17.2)"/><path d="M96.91,109a18.79,18.79,0,0,1,3.51-3.66c1.33-1.05,2.75-1.85,4-3s-.09-3.45-1.76-3c-3.84,1-6.83,4.62-8.8,7.9-1.18,2,1.73,3.56,3,1.77Z" transform="translate(-29.06 -17.2)"/><path d="M119.33,88.94c5.74.44,10.72-.1,15.36-3.72,3.71-2.89,8.38-5.43,10.75-9.61a.89.89,0,0,0-1-1.29c-4.36,1-7.84,3.19-12.49,2.86-4.3-.31-8.33.21-12.63.3-7.45.16-7.29,10.9,0,11.46Z" transform="translate(-29.06 -17.2)"/><path d="M158,210.57c.6,4.9,4.47,11.43,8.78,13.93a93.91,93.91,0,0,1,8.95,5.66c2.38,1.75,4.91,2.32,7.79,3.1a1.52,1.52,0,0,0,.81-2.93c-2.3-.69-4.4-1.89-6.63-2.75-4.66-1.79-5.64-2.88-8.14-6.76-1.25-1.93-3-3.49-4.33-5.39s-2.45-4.27-4-6.19c-1-1.19-3.39-.26-3.19,1.32Z" transform="translate(-29.06 -17.2)"/><path d="M182.43,230.55l.15.4a2.1,2.1,0,0,0,2,1.5c4.07-.36,7.77-1,11.86-.22a20.38,20.38,0,0,1,6.21,2.13c1.61.91,2.39,1.77,4.23,2,1.06.16,2.27-.65,1.87-1.87-1.64-5-9.69-7.39-14.47-7.76-1.54-.12-13.21.13-11.81,3.78Z" transform="translate(-29.06 -17.2)"/><path d="M183.19,231.83c1.57,4.6,6.61,9.2,9.95,12.69,2.92,3,7.74,7.07,12.32,5.71,7.61-2.27,8.22-13.82,2.26-18-2.19-1.53-4,1.64-2.62,3.4s2,2.16,2.46,4.89q2,3.31-1.5,3.41a2.18,2.18,0,0,1-3,.22c-2.43-.71-4.91-3.43-7-4.77-4-2.53-7.76-6.59-12.19-8.19a.53.53,0,0,0-.65.65Z" transform="translate(-29.06 -17.2)"/><path d="M190.3,231.06c1.32,1.25,2.36,2.71,3.61,4s2.27,3.22,4.3,3.13a1.75,1.75,0,0,0,1.64-1.24c.69-2.32-1.5-3.93-3.1-5.17a14.28,14.28,0,0,0-5.53-2.29.94.94,0,0,0-.91,1.56Z" transform="translate(-29.06 -17.2)"/><path d="M159.37,210.19c2.92,6.38,15.55,3.64,21,5.44,3.69,1.21,7,2.5,10.82,3.36,2.62.59,3.16,1.12,5.11,3.16,1.16,1.22,1.72,1.88,3.43,2.12l-1.6-1.6c.62,2,1.17,3.37,2.86,4.63a1.06,1.06,0,0,0,1.44-.38c1-1.71.46-2.42.52-4.25s.43-3.28-.47-5.3c-1.86-4.17-6-9.13-10.4-10.58-6.15-2-11.51,1.12-17.66,1.29-4.46.12-11.31-2.46-14.9,1a1,1,0,0,0-.15,1.13Z" transform="translate(-29.06 -17.2)"/><path d="M201.56,230.5c1.81-1.45,1.3-3.94.51-5.78a1.71,1.71,0,0,0-2.93,0c-.15.27-.31.53-.49.78a8.19,8.19,0,0,0-.5.69,4.5,4.5,0,0,0-.82,2.56,2.49,2.49,0,0,0,1.52,2.26,2.56,2.56,0,0,0,2.71-.51Z" transform="translate(-29.06 -17.2)"/><path d="M163,147.51a.35.35,0,0,0,0-.7.35.35,0,0,0,0,.7Z" transform="translate(-29.06 -17.2)"/><path d="M162.29,147.59c1.89,4.31,5.52,6.36,9.24,9,1,.69,2,1.28,3,2,1.87,1.28,2.61,2.54,4,4.21a20.41,20.41,0,0,0,4.81,4.14c1.21.8,2.37-.72,1.84-1.84-2.07-4.34-5.48-6.58-9.15-9.55-4.1-3.32-9.5-3.84-12.73-8.45a.59.59,0,0,0-1,.59Z" transform="translate(-29.06 -17.2)"/><path d="M172.28,155.88l.08,0a1.53,1.53,0,0,0,1.7-.69c1.26-1.87,2.18-3.95,3.7-5.65,1.34-1.5,3.87-2.94,4.22-5a1.81,1.81,0,0,0-.81-2c-3.48-1.73-7,2.24-8.61,4.92-.91,1.54-3.09,7.53-.28,8.41Z" transform="translate(-29.06 -17.2)"/><path d="M193,161.43l.57-.23a.7.7,0,1,0-.89-.68l-.06.62a.29.29,0,0,0,.37.28Z" transform="translate(-29.06 -17.2)"/><path d="M192,164c2.28-1.63,5.47-4.57,4.89-7.66a1.71,1.71,0,0,0-2.83-.75c-.93,1.06-1.07,2.37-1.52,3.66a12.47,12.47,0,0,1-1.89,3.39c-.6.79.57,1.92,1.36,1.36Z" transform="translate(-29.06 -17.2)"/><path d="M199.33,154.37c-.79-5.62-3.86-10.55-7.17-15C189,135,184,130,178.22,131.08a4.28,4.28,0,0,0-3.1,3.1c-.74,5.44,3.5,10,7.29,13.58s7.71,7.53,12.46,10c2.54,1.34,4.82-.86,4.46-3.43Z" transform="translate(-29.06 -17.2)"/><path d="M227.56,172.43c3.19,2.24,7,2.22,10.53,3.68a50.27,50.27,0,0,0,11.36,3.56,6.76,6.76,0,0,0,7.29-3l.5-.77a4.81,4.81,0,0,0,0-4.84l-.5-.91a6.32,6.32,0,0,0-5.57-3.2,65.25,65.25,0,0,0-11.86,2.09c-3.79,1-7.75,0-11.5,1.42a1.07,1.07,0,0,0-.25,1.92Z" transform="translate(-29.06 -17.2)"/><path d="M228.71,180.11a3.25,3.25,0,0,1,1.34-1.46c.61-.4,1-1,1.59-1.45,1.28-1,2.71-1.29,3.79-2.55s.92-3.92-1.14-4.3c-2.89-.54-4.84,1-6.38,3.32a6.27,6.27,0,0,0-1.25,3,20.31,20.31,0,0,0,.3,2.93c.11.81,1.28,1.41,1.74.47Z" transform="translate(-29.06 -17.2)"/><path d="M244.44,190.14a10.28,10.28,0,0,0,5.78-11.79c-.47-1.9-3.53-1.53-3.45.47.16,3.65-2.44,6.55-4,9.65a1.24,1.24,0,0,0,1.68,1.68Z" transform="translate(-29.06 -17.2)"/><path d="M228.42,184.44a72.7,72.7,0,0,0,9.82,5.54,24.51,24.51,0,0,1,4.38,2.64c1.36,1.12,1.89,2,3.64,2.41,1,.22,2.43-.5,2.29-1.75-.76-7-14.7-8.67-20.1-8.95-.06,0-.07.08,0,.11Z" transform="translate(-29.06 -17.2)"/><path d="M224.95,164c1.55.17,3-.39,4.51-.6a16.65,16.65,0,0,1,4.2.21,5,5,0,0,0,4.47-2.56c.77-1.75,1.15-3.51,0-5.23s-3.63-3.2-5.85-2.38c-3.37,1.24-8.59,4.11-9.31,8a2.09,2.09,0,0,0,2,2.59Z" transform="translate(-29.06 -17.2)"/><path d="M232.4,163.63c1.22.24,2.07,1.27,3.13,1.83a8.18,8.18,0,0,0,3.26.72,32.23,32.23,0,0,0,7.33-.31c3-.42,4.59-4.19,3.87-6.81a5.63,5.63,0,0,0-6.81-3.87c-2.07.51-4.09,1.15-6.1,1.86a7.48,7.48,0,0,0-2.73,1.58c-.62.55-1.11,1.28-1.94,1.51-1.64.45-1.81,3.15,0,3.5Z" transform="translate(-29.06 -17.2)"/><path d="M246.06,164c3.46,1.61,8.18,4.32,11.91,2.33a3.2,3.2,0,0,0,.64-5c-2.82-3.17-8.51-1.64-12.1-.79-1.48.35-1.92,2.73-.45,3.42Z" transform="translate(-29.06 -17.2)"/><path d="M208.5,146.49c-.24-3.37,2.1-6.24,2.52-9.5.32-2.45-2.32-4.56-4.56-4.56s-4.85,2.1-4.56,4.56c.45,3.77,1,8.54,4.4,10.76a1.47,1.47,0,0,0,2.2-1.26Z" transform="translate(-29.06 -17.2)"/><path d="M204,141.9c.1-2.82-1.22-4.83-2.11-7.4-1-2.76-.94-5.77-2.48-8.3a4,4,0,0,0-3.43-2l-.56,0a3.32,3.32,0,0,0-3,2.32c-1.36,3.37,2,5.79,3.67,8.31.77,1.17,1.5,2.35,2.38,3.45a41.53,41.53,0,0,1,3.51,4.12,1.12,1.12,0,0,0,2.07-.56Z" transform="translate(-29.06 -17.2)"/><path d="M200.2,137c-.19-3.85-4.47-7.15-6.2-10.53-1.88-3.68-2.62-8.71-6.4-10.95-1.89-1.11-4.81.77-4,3s2.17,4.16,3,6.4a46.51,46.51,0,0,0,2.79,6.24c1.75,3.05,4.85,7.91,8.84,7.67A1.9,1.9,0,0,0,200.2,137Z" transform="translate(-29.06 -17.2)"/><path d="M177.16,117.26l.18-.19-2.1.55c.64.11,1.72,2.81,2.07,3.36.77,1.21,1.67,2.36,2.53,3.51,2,2.67,4,4.84,7.21,6,4.09,1.53,6.32-4,3.93-6.74a38.38,38.38,0,0,0-4.77-4.2,45.53,45.53,0,0,0-4.75-3.8c-2.25-1.39-6.3-4.25-7.82-.57-.82,2,2.16,3.49,3.52,2Z" transform="translate(-29.06 -17.2)"/><path d="M163.73,121.08c3.05-.52,8.12,2.71,10.73,4.11s5.08,3,8.05,3.84a5.2,5.2,0,0,0,5.16-1.36c1.33-1.69,2-3,1.36-5.16-.5-1.61-1.9-3.43-3.7-3.7-4.74-.71-9.4-.76-14.13-1.67-3.31-.64-6.16-.62-8.73,1.79-1,1,.08,2.35,1.25,2.15Z" transform="translate(-29.06 -17.2)"/><path d="M204.67,293.56a.23.23,0,0,0,0-.47.23.23,0,0,0,0,.47Z" transform="translate(-29.06 -17.2)"/><path d="M213.57,263.51c-.43-.89-1.07,1.41-1.08,1.54a18.92,18.92,0,0,0,.38,3.16c.18,1.93.32,3.87.36,5.81.09,3.83-1,7.6,1.94,10.59,1.87,1.93,4.54,1.11,6-.77,3.06-4-.41-10.88-2.22-14.9-.81-1.8-2.92-7.77-5.84-6.72-.48.17-.92.82-.54,1.32a.74.74,0,0,0,.72.39.33.33,0,0,0,.32-.32.17.17,0,0,0,0-.1Z" transform="translate(-29.06 -17.2)"/><path d="M217.14,256.06c1.88,6.82,8,12.74,13.38,17,5,4,13.65,9.55,20.26,7,3.89-1.49,5.84-7.62,1.29-9.83-3-1.44-5.81-1.25-9-2a29.59,29.59,0,0,1-8.25-3.44c-5.38-3.14-9.43-8-14.89-11a2,2,0,0,0-2.83,2.18Z" transform="translate(-29.06 -17.2)"/><path d="M226.25,251.09c7.19,5.24,17.49,1.84,23.33-4.13,3.28-3.35-1.71-8.3-5.13-5.13-5.27,4.89-11.58,6.9-18.19,9.15a.06.06,0,0,0,0,.11Z" transform="translate(-29.06 -17.2)"/></svg>