<svg id="Layer_2" data-name="Layer 2" xmlns="http://www.w3.org/2000/svg" viewBox="0 0 1920 325"><defs><style>.cls-1{fill:#fff;}.cls-2{fill:none;}</style></defs><title>two</title><path class="cls-1" d="M882.29,236.91a47.44,47.44,0,0,1,3-16,85.5,85.5,0,0,1,6.41-14.26q3.38-5.8,9.43-14.74t8.46-13.29q17.16-29.73,37.22-57.77,1.21-1.69,5.2-6.53t7.73-9.31q3.74-4.47,8.34-10.76a98.26,98.26,0,0,0,7.13-11,49,49,0,0,0,4-9.79q1.45-5.08-1-7.49a10.53,10.53,0,0,0-7.37-2.9q-4.23,0-10.39,2.66a94.87,94.87,0,0,0-10.27,5.08q-4.11,2.42-6.77,4.35a121,121,0,0,0-23,22l-.48.48a1.9,1.9,0,0,0-.36.48,2,2,0,0,1-.36.48q-1.94,2.42-2.9,3.38a18.5,18.5,0,0,1-2.54,2.05q-1.57,1.09-2.54.12a8.37,8.37,0,0,1-1.69-3.63q-1.21-5.56,5.56-14.74a96.93,96.93,0,0,1,13.29-15,74.85,74.85,0,0,1,20.06-11.48A62.64,62.64,0,0,1,973.66,55q13.29.36,21.27,8.1,4.35,4.11,7.25,19.09,1.45,8.95-1.69,24.65-1.21,5.32-2.78,10.27a66.66,66.66,0,0,1-4.23,10.15q-2.66,5.2-4.23,8.34t-5.44,9.67q-3.87,6.53-5.32,9.18-3.14,5.8-9.67,15.83t-8.7,13.9q-2.42,4.35-8.94,13.66t-11.24,17.4A46.79,46.79,0,0,0,934,229.9q.48.48,4.71-.24t10.39-2.18L961,224.71q5.68-1.33,10.88-2.66t5.92-1.57a38.24,38.24,0,0,1,8.94-.72q17.16-1.21,40.12,8.94-4.35,3.86-8.22,1.45a14.38,14.38,0,0,0-1.69,3.14,40.58,40.58,0,0,1-2.42,4.59c-.81,1.29-1.45,1.85-1.93,1.69q-3.87,2.66-13.05,4.71t-12.33,3.51q-1.94.72-10.15,5A83.19,83.19,0,0,1,964,258.42q-2.42.73-6.89,2.42t-7.25,2.54q-2.78.84-6.41,1.81a38.13,38.13,0,0,1-6.53,1.21q-.73,0-16.92,1.69a75.77,75.77,0,0,1-18.49-2.78q-10.76-2.78-14.38-9.55A42,42,0,0,1,882.29,236.91Z"/><path class="cls-1" d="M1052,265.92h-.48a8.32,8.32,0,0,1-2.9,1.21,1,1,0,0,1-.73.24,3.81,3.81,0,0,1-3.63.72,15,15,0,0,1-3.38-1.69l-1.21-1.21a7.31,7.31,0,0,1-.48-1.45,7.7,7.7,0,0,0-.48-1.45,7.31,7.31,0,0,1-.6-.73,6.75,6.75,0,0,0-.6-.72l-.72-1.45c0-.48,0-1.13-.12-1.93s-.12-1.45-.12-1.93a20.11,20.11,0,0,1,.48-3.63,25.61,25.61,0,0,1,2.18-7,5.42,5.42,0,0,0,1-1.57,5.23,5.23,0,0,1,1-1.57A2.61,2.61,0,0,1,1043,241a1,1,0,0,0,1-.72q1-2.42,2.66-2.66h1.93a24.73,24.73,0,0,1,3.14,1,3.87,3.87,0,0,1,1.69.48,3.29,3.29,0,0,0,2.42,1c.64,0,1,.24,1,.73q.48.72,1.33,2.05a10.53,10.53,0,0,1,1.09,2.05,1.41,1.41,0,0,1,.24,1,9,9,0,0,1,.24,3.38c-.16.64-.36,1.57-.6,2.78a25.06,25.06,0,0,1-.6,2.54v.73a7.15,7.15,0,0,0-.48,1.45c-.16.64-.32,1.21-.48,1.69l-.48,1.45a23.3,23.3,0,0,1-3.63,4.35c0,.16-.16.4-.48.73s-.48.56-.48.72Z"/><rect class="cls-2" width="1920" height="325"/></svg>