<?xml version="1.0" encoding="utf-8"?>
<!-- Generator: Adobe Illustrator 21.0.2, SVG Export Plug-In . SVG Version: 6.00 Build 0)  -->
<svg version="1.1" xmlns="http://www.w3.org/2000/svg" xmlns:xlink="http://www.w3.org/1999/xlink" x="0px" y="0px"
	 viewBox="0 0 1920 325" style="enable-background:new 0 0 1920 325;" xml:space="preserve">
<style type="text/css">
	.st0{fill:#FFFFFF;}
	.st1{fill:none;}
</style>
<g id="Layer_3">
</g>
<g id="Layer_1">
</g>
<g id="Layer_2">
	<g>
		<path class="st0" d="M958,245c-0.3,0.6-0.6,1.3-1,1.8c-0.3,0.6-0.5,1-0.6,1.3c-0.1,0.3-0.2,0.6-0.5,1c-0.2,0.3-0.4,0.5-0.4,0.6
			c0,0.1-0.1,0.2-0.2,0.5c-0.2,0.2-0.3,0.4-0.4,0.5c-0.1,0.1-0.3,0.2-0.6,0.5c-0.3,0.2-0.6,0.4-0.7,0.5c-0.2,0.1-0.5,0.3-1,0.7
			c-0.5,0.4-1,0.8-1.5,1.1l-2.4,2.2c-1.6,1.5-2.9,2.3-3.8,2.7c-0.9,0.3-1.9,0.2-3-0.2c-1.8,1.8-5.5,2.2-11.2,1.2
			c-5.7-1-9.6-3.3-11.7-7.1c-1.5-2.8-2.4-6.3-2.7-10.7c-0.3-4.4-0.3-8.3,0-11.8c0.3-3.5,0.9-7.9,1.7-13.1c0.8-5.3,1.3-8.9,1.5-10.8
			c0.5-5.4,2.6-22.8,6.3-52.3c0.3-2.4,0.7-5.9,1.1-10.5c0.4-4.5,0.7-7.5,0.9-8.8c0.2-1.1,1-4.2,2.4-9.2c1.5-5,2.5-9.1,3-12.2
			c0.6-3.1,0.5-5.9-0.1-8.5c-1.8,1-3.9,2.8-6.2,5.6c-2.4,2.8-4.7,5-7.1,6.7c-2.4,1.7-5.1,2.5-8.1,2.3c4.7-14.1,11.2-28.1,19.5-41.8
			c0.8-1.3,2.4-4.1,4.7-8.5c2.3-4.4,4.3-7.7,5.7-10.1c1.5-2.3,3.6-4.8,6.6-7.4c2.9-2.6,5.9-4.3,9-5.1c5.7-1.5,10.6-0.4,14.8,3.3
			c4.2,3.6,7.2,8.1,8.9,13.5c1.7,5.4,2.5,10.6,2.3,15.8c0,1.8-0.5,4.3-1.5,7.7c-1,3.3-1.5,5.8-1.5,7.4c-0.2,2.4,0.4,5.6,1.6,9.5
			c1.2,3.9,1.9,6.4,2.1,7.5c0,5.7,0,9.2,0,10.5c0,1.3-0.5,4.8-1.5,10.6c-1,5.8-1.5,9.3-1.7,10.6c-1.1,8.4-3.2,21.2-6.1,38.4
			c-0.2,1-0.4,3.7-0.9,8.3c-0.4,4.5-1,8.5-1.8,11.8c-0.8,3.3-2,5.7-3.6,7.2C967.6,220.7,964.1,233,958,245z"/>
		<path class="st0" d="M1009.6,258.7h-0.5c-0.6,0.5-1.6,0.9-2.9,1.2c-0.2,0.2-0.4,0.2-0.7,0.2c-0.8,0.8-2,1.1-3.6,0.7
			c-1.9-0.8-3.1-1.4-3.4-1.7l-1.2-1.2c-0.2-0.3-0.3-0.8-0.5-1.5c-0.2-0.6-0.3-1.1-0.5-1.5c-0.2-0.2-0.4-0.4-0.6-0.7
			c-0.2-0.3-0.4-0.6-0.6-0.7l-0.7-1.5c0-0.5,0-1.1-0.1-1.9c-0.1-0.8-0.1-1.5-0.1-1.9c0-0.8,0.2-2,0.5-3.6c0.6-3.2,1.4-5.6,2.2-7.1
			c0.3-0.3,0.6-0.9,1-1.6c0.3-0.7,0.6-1.3,1-1.6c0.5-0.5,1.1-0.7,1.9-0.7c0.5,0,0.8-0.2,1-0.7c0.6-1.6,1.5-2.5,2.7-2.7h1.9
			c1.3,0.3,2.3,0.6,3.2,1c0.5,0,1.1,0.2,1.7,0.5c0.6,0.6,1.5,1,2.4,1c0.6,0,1,0.2,1,0.7c0.3,0.5,0.8,1.2,1.3,2.1
			c0.6,0.9,0.9,1.6,1.1,2.1c0.2,0.2,0.2,0.5,0.2,1c0.3,1.6,0.4,2.8,0.2,3.4c-0.2,0.6-0.4,1.6-0.6,2.8c-0.2,1.2-0.4,2.1-0.6,2.6v0.7
			c-0.2,0.3-0.3,0.8-0.5,1.5c-0.2,0.6-0.3,1.2-0.5,1.7c-0.2,0.5-0.3,1-0.5,1.5c-0.6,1.1-1.9,2.6-3.6,4.4c0,0.2-0.2,0.4-0.5,0.7
			c-0.3,0.3-0.5,0.6-0.5,0.7L1009.6,258.7z"/>
	</g>
	<rect class="st1" width="1920" height="325"/>
</g>
</svg>
